<svg xmlns="http://www.w3.org/2000/svg" width="40" height="40" fill="#fff" viewBox="0 -960 960 960"><path d="m619.05-287.55 53.21-52.73-153.98-154.68v-192.67h-72.56v221.97zM480.02-73.3q-83.95 0-158.12-32.01-74.18-32-129.38-87.2-55.2-55.19-87.21-129.36T73.3-479.98q0-83.95 32.04-158.14t87.19-129.35q55.16-55.15 129.33-87.27 74.18-32.12 158.14-32.12t158.14 32.12q74.17 32.12 129.33 87.27 55.15 55.16 87.27 129.33 32.12 74.18 32.12 158.14t-32.12 158.14q-32.12 74.17-87.27 129.33-55.16 55.15-129.33 87.19T480.02-73.3m-.1-75.76q136.71 0 233.87-96.95 97.15-96.96 97.15-233.91t-97.13-233.99Q616.67-810.94 480-810.94q-136.79 0-233.87 97.01-97.07 97.02-97.07 233.93 0 137.03 97.07 233.99 97.08 96.95 233.79 96.95"/></svg>