<svg xmlns="http://www.w3.org/2000/svg" xml:space="preserve" width="512" height="651.453" viewBox="0 0 480 610.737"><title>Department of Information and Communications Technology (DICT)</title><g transform="translate(-74.042 -357.067)"><circle cx="314.042" cy="597.067" r="201.292" style="fill:#82837e;fill-opacity:1;stroke:#b5b7b4;stroke-width:.72584581;stroke-linecap:round;stroke-linejoin:round;stroke-miterlimit:4;stroke-dasharray:none;stroke-dashoffset:0;stroke-opacity:1"/><path d="M533.04 549.756a181.4 181.4 0 0 1-49.442-108.17" style="fill:none;fill-opacity:1;stroke:#14468a;stroke-width:18.14614487;stroke-linecap:butt;stroke-linejoin:miter;stroke-miterlimit:4;stroke-dasharray:none;stroke-dashoffset:0;stroke-opacity:1" transform="rotate(1.274)"/><path d="M328.803 801.702a202.623 181.005 0 0 1 108.352-35.782" style="fill:none;fill-opacity:1;stroke:#ee1929;stroke-width:14.51691628;stroke-linecap:butt;stroke-linejoin:miter;stroke-miterlimit:4;stroke-dasharray:none;stroke-dashoffset:0;stroke-opacity:1"/><path d="M151.149 444.934a181.125 196.207 0 0 1-42.09 125.75" style="fill:none;fill-opacity:1;stroke:#fff;stroke-width:14.51691628;stroke-linecap:butt;stroke-linejoin:miter;stroke-miterlimit:4;stroke-dasharray:none;stroke-dashoffset:0;stroke-opacity:1"/><path d="M517.094 591.103A195.42 195.42 0 0 1 449.91 430.85" style="fill:none;fill-opacity:1;stroke:#14468a;stroke-width:14.51691628;stroke-linecap:butt;stroke-linejoin:bevel;stroke-miterlimit:4;stroke-dasharray:none;stroke-dashoffset:0;stroke-opacity:1"/><path d="M514.512 618.168a212.87 212.87 0 0 1-85.728-195.126" style="fill:none;fill-opacity:1;stroke:#14468a;stroke-width:14.51691628;stroke-linecap:butt;stroke-linejoin:miter;stroke-miterlimit:4;stroke-dasharray:none;stroke-dashoffset:0;stroke-opacity:1"/><path d="M511.129 639.128a228.12 228.12 0 0 1-101.407-224.886" style="fill:none;fill-opacity:1;stroke:#14468a;stroke-width:14.51691628;stroke-linecap:butt;stroke-linejoin:miter;stroke-miterlimit:4;stroke-dasharray:none;stroke-dashoffset:0;stroke-opacity:1"/><path d="M504.154 659.322a246.21 246.21 0 0 1-115.07-257.392" style="fill:none;fill-opacity:1;stroke:#14468a;stroke-width:14.51691628;stroke-linecap:butt;stroke-linejoin:miter;stroke-miterlimit:4;stroke-dasharray:none;stroke-dashoffset:0;stroke-opacity:1"/><path d="M495.14 679.372a264.29 271.832 0 0 1-127.478-284.844" style="fill:none;fill-opacity:1;stroke:#14468a;stroke-width:14.51691628;stroke-linecap:butt;stroke-linejoin:miter;stroke-miterlimit:4;stroke-dasharray:none;stroke-dashoffset:0;stroke-opacity:1"/><path d="M484.741 697.963a282.517 295.607 0 0 1-139.735-302.366" style="fill:none;fill-opacity:1;stroke:#14468a;stroke-width:14.63884544;stroke-linecap:butt;stroke-linejoin:miter;stroke-miterlimit:4;stroke-dasharray:none;stroke-dashoffset:0;stroke-opacity:1"/><path d="M294.55 800.663a232.517 198.33 0 0 1 159.72-55.56" style="fill:none;fill-opacity:1;stroke:#ee1929;stroke-width:14.51691628;stroke-linecap:butt;stroke-linejoin:miter;stroke-miterlimit:4;stroke-dasharray:none;stroke-dashoffset:0;stroke-opacity:1"/><path d="M267.08 795.436a268.684 197.796 0 0 1 215.027-73.895" style="fill:none;fill-opacity:1;stroke:#ee1929;stroke-width:14.51691628;stroke-linecap:butt;stroke-linejoin:miter;stroke-miterlimit:4;stroke-dasharray:none;stroke-dashoffset:0;stroke-opacity:1"/><path d="M169.124 449.961a181 203.122 0 0 1-60.176 151.24" style="fill:none;fill-opacity:1;stroke:#fff;stroke-width:14.80195999;stroke-linecap:butt;stroke-linejoin:miter;stroke-miterlimit:4;stroke-dasharray:none;stroke-dashoffset:0;stroke-opacity:1"/><path d="M191.575 427.228a180.61 225.858 0 0 1-78.55 199.262" style="fill:none;fill-opacity:1;stroke:#fff;stroke-width:14.51691628;stroke-linecap:butt;stroke-linejoin:miter;stroke-miterlimit:4;stroke-dasharray:none;stroke-dashoffset:0;stroke-opacity:1"/><path d="M215.16 408.422a183.017 261.949 0 0 1-97.34 244.522" style="fill:none;fill-opacity:1;stroke:#fff;stroke-width:14.51691628;stroke-linecap:butt;stroke-linejoin:miter;stroke-miterlimit:4;stroke-dasharray:none;stroke-dashoffset:0;stroke-opacity:1"/><path d="M235.707 399.59a184.815 274.808 0 0 1-111.79 274.528" style="fill:none;fill-opacity:1;stroke:#fff;stroke-width:14.51691628;stroke-linecap:butt;stroke-linejoin:miter;stroke-miterlimit:4;stroke-dasharray:none;stroke-dashoffset:0;stroke-opacity:1"/><path d="M261.1 390.987A194.729 311.717 0 0 1 132.333 691.52" style="fill:none;fill-opacity:1;stroke:#fff;stroke-width:15.0421133;stroke-linecap:butt;stroke-linejoin:miter;stroke-miterlimit:4;stroke-dasharray:none;stroke-dashoffset:0;stroke-opacity:1"/><path d="M332.894 529.164a300.643 319.1 0 0 1-8.879-143.703" style="fill:none;fill-opacity:1;stroke:#14468a;stroke-width:14.61853123;stroke-linecap:butt;stroke-linejoin:miter;stroke-miterlimit:4;stroke-dasharray:none;stroke-dashoffset:0;stroke-opacity:1"/><path d="M298.491 456.712a300.543 328.05 0 0 1 2.43-62.95" style="fill:none;fill-opacity:1;stroke:#fff;stroke-width:14.60467815;stroke-linecap:butt;stroke-linejoin:miter;stroke-miterlimit:4;stroke-dasharray:none;stroke-dashoffset:0;stroke-opacity:1"/><path d="M263.882 667.721a271.524 324.915 0 0 1-42.34 42.374" style="fill:none;fill-opacity:1;stroke:#fff;stroke-width:14.51691628;stroke-linecap:butt;stroke-linejoin:miter;stroke-miterlimit:4;stroke-dasharray:none;stroke-dashoffset:0;stroke-opacity:1" transform="rotate(5.038)"/><path d="M329.84 503.956a271.524 324.915 0 0 1-98.855 184.72" style="fill:none;fill-opacity:1;stroke:#fff;stroke-width:14.51691628;stroke-linecap:butt;stroke-linejoin:miter;stroke-miterlimit:4;stroke-dasharray:none;stroke-dashoffset:0;stroke-opacity:1" transform="rotate(7.108)"/><path d="M277.658 456.22a318.91 345.582 0 0 1 2.055-57.028" style="fill:none;fill-opacity:1;stroke:#fff;stroke-width:14.51691628;stroke-linecap:butt;stroke-linejoin:miter;stroke-miterlimit:4;stroke-dasharray:none;stroke-dashoffset:0;stroke-opacity:1"/><path d="m390.329 657.965 10.306 11.312-24.132 5.53-9.05-11.563z" style="fill:#f7dd24;fill-opacity:1;fill-rule:evenodd;stroke:none;stroke-width:1px;stroke-linecap:butt;stroke-linejoin:miter;stroke-opacity:1"/><path d="m407.657 648.776-6.4 24.885 11.377 11.02 7.11-20.263z" style="fill:#82837e;fill-opacity:1;fill-rule:evenodd;stroke:none;stroke-width:1px;stroke-linecap:butt;stroke-linejoin:miter;stroke-opacity:1"/><path d="m319.432 524.941 23.819.889 2.488 14.93-21.863-.533z" style="fill:#82837e;fill-opacity:1;fill-rule:evenodd;stroke:none;stroke-width:.30000001;stroke-linecap:butt;stroke-linejoin:miter;stroke-miterlimit:4;stroke-dasharray:none;stroke-opacity:1"/><path d="m270.926 469.182 14.58.503s-2.674 24.468-4.525 34.187-6.033 24.132-6.033 24.132l-13.575-3.017s4.942-18.332 6.536-27.651c1.594-9.32 3.017-28.154 3.017-28.154M294.555 469.182h13.071l-2.513 24.132-5.53 30.165-8.045-31.673zM309.637 479.237 302.6 519.96s11.98 45.858 21.826 67.282c5.422 11.797 13.203 26.255 23.06 41.773 9.86 15.517 21.477 31.212 21.477 31.212l14.58-4.022s-12.641-16.415-22.883-32.314c-10.24-15.899-17.702-29.986-23.37-43.099-5.599-12.951-13.383-30.655-19.064-53.046s-8.588-48.51-8.588-48.51" style="fill:#f7dd24;fill-opacity:1;fill-rule:evenodd;stroke:none;stroke-width:1px;stroke-linecap:butt;stroke-linejoin:miter;stroke-opacity:1"/><path d="m331.317 540.339 13.01-.27c13.243 38.474 33.53 77.417 62.87 109.295l-3.043 18.404s-13.214-13.841-21.618-25.137-18.704-25.92-27.651-43.237-23.568-59.055-23.568-59.055M287.014 483.762l-7.542 39.717s8.323 27.745 13.575 41.225c8.412 21.595 17.602 42.978 28.656 63.347 8.449 15.567 18.126 30.504 28.657 44.745 6.928 9.368 22.624 26.646 22.624 26.646l2.514-17.094s-27.307-36.784-39.215-56.81c-9.04-15.205-18.135-31.814-24.635-48.265-5.804-14.69-10.055-29.47-14.077-44.745-4.234-16.084-10.557-48.766-10.557-48.766M280.478 540.07l7.333 20.882s-11.134 27.175-17.388 40.453c-5.94 12.612-11.712 25.385-19.105 37.204-10.22 16.339-34.69 46.253-34.69 46.253l-9.552-10.558s21.747-27.832 31.17-42.734c8.257-13.056 15.58-26.729 22.122-40.723 7.71-16.491 20.11-50.777 20.11-50.777" style="fill:#f7dd24;fill-opacity:1;fill-rule:evenodd;stroke:none;stroke-width:1px;stroke-linecap:butt;stroke-linejoin:miter;stroke-opacity:1"/><path d="m305.113 640.117 12.568-5.027 6.536 12.568-30.165 12.569z" style="fill:#ee1929;fill-opacity:1;fill-rule:evenodd;stroke:none;stroke-width:1px;stroke-linecap:butt;stroke-linejoin:miter;stroke-opacity:1"/><path d="m299.08 600.902 8.546 16.591s-8.106 18.078-12.799 26.792c-4.24 7.874-13.846 22.98-13.846 22.98l-26.143 12.57s16.945-23.945 24.132-36.701c7.652-13.585 20.11-42.232 20.11-42.232M289.65 573.424l6.413 18.429s-13.32 31.567-25.64 52.286-37.457 53.438-52.764 70.238c-15.306 16.8-38.737 35.842-38.737 35.842l-11.06-8.044s36.697-33.352 50.778-49.772 25.55-31.418 37.203-50.778c11.652-19.36 33.806-68.201 33.806-68.201" style="fill:#fff;fill-rule:evenodd;stroke:none;stroke-width:1px;stroke-linecap:butt;stroke-linejoin:miter;stroke-opacity:1"/><path d="m343.824 669.277 10.558 13.071s-14.45 4.252-21.618 7.039c-7.169 2.786-21.618 10.055-21.618 10.055l-8.044-12.066s14.744-6.96 21.618-10.055c6.873-3.096 19.104-8.044 19.104-8.044M358.404 688.381l9.552 11.563s-24.398 7.68-36.198 12.57a318 318 0 0 0-33.181 16.087c-11.448 6.39-33.182 21.116-33.182 21.116l-8.044-11.06s26.335-17.263 40.22-24.636c10.731-5.697 21.971-10.4 33.182-15.082 9.104-3.803 27.651-10.558 27.651-10.558" style="fill:#f7dd24;fill-opacity:1;fill-rule:evenodd;stroke:none;stroke-width:1px;stroke-linecap:butt;stroke-linejoin:miter;stroke-opacity:1"/><path d="m329.582 652.656 6.755 13.508s-28.195 11.126-42.305 17.775c-14.109 6.65-28.446 15.126-40.526 22.752s-23.393 14.678-33.417 23.108-28.44 26.662-28.44 26.662l-10.31-7.82s9.335-7.93 18.303-16.225c6.1-5.643 11.458-11.456 15.825-15.06 10.787-8.9 19.019-15.283 30.218-22.396s24.996-15.176 36.971-21.33c11.976-6.154 26.98-11.986 34.84-15.642 7.858-3.656 12.086-5.332 12.086-5.332M244.974 746.507l9.623 12.504s-11.044 7.049-15.311 10.248c-4.268 3.199-12.798 9.954-12.798 9.954l-12.798-6.4s9.716-9.118 14.93-13.508c5.216-4.39 16.354-12.798 16.354-12.798" style="fill:#ee1929;fill-opacity:1;fill-rule:evenodd;stroke:none;stroke-width:1px;stroke-linecap:butt;stroke-linejoin:miter;stroke-opacity:1"/><path d="m199.47 761.438 9.243 7.11s15.293-14.778 24.174-22.04c8.88-7.264 19.076-14.45 29.15-21.33 10.075-6.882 32.706-19.198 32.706-19.198l-7.82-9.243s-24.153 11.557-34.84 18.486c-10.686 6.93-20.39 15.006-29.15 22.752s-23.463 23.463-23.463 23.463M345.333 715.027l8.044 12.569s-24.467 8.864-37.707 15.585c-13.239 6.72-30.414 17.604-41.225 25.137s-24.132 19.105-24.132 19.105l-14.58-5.028s15.423-12.058 24.132-18.601c8.71-6.544 17.917-14.283 28.154-20.613s23.609-12.437 33.182-17.094c9.572-4.656 24.132-11.06 24.132-11.06" style="fill:#ee1929;fill-opacity:1;fill-rule:evenodd;stroke:none;stroke-width:1px;stroke-linecap:butt;stroke-linejoin:miter;stroke-opacity:1"/><path d="m420.242 664.752-4.022 15.585s13.815 13.91 19.848 19.19c6.033 5.278 16.35 12.483 16.35 12.483l22.624.503s-19.493-13.648-28.656-21.618-26.144-26.143-26.144-26.143" style="fill:#14468a;fill-opacity:1;fill-rule:evenodd;stroke:none;stroke-width:1px;stroke-linecap:butt;stroke-linejoin:miter;stroke-opacity:1"/><path d="m384.329 676.8 15.997-2.844 20.264 22.752-4.266 14.22zM360.866 709.861l38.038-10.31 12.087 12.088-40.882 10.664z" style="fill:#f7dd24;fill-opacity:1;fill-rule:evenodd;stroke:none;stroke-width:1px;stroke-linecap:butt;stroke-linejoin:miter;stroke-opacity:1"/><circle cx="278.476" cy="482.828" r="3.547" style="color:#000;clip-rule:nonzero;display:inline;overflow:visible;visibility:visible;opacity:1;isolation:auto;mix-blend-mode:normal;color-interpolation:sRGB;color-interpolation-filters:linearRGB;solid-color:#000;solid-opacity:1;fill:#fff;fill-opacity:1;fill-rule:nonzero;stroke:#fff;stroke-width:.09247012;stroke-linecap:round;stroke-linejoin:round;stroke-miterlimit:4;stroke-dasharray:none;stroke-dashoffset:0;stroke-opacity:1;color-rendering:auto;image-rendering:auto;shape-rendering:auto;text-rendering:auto"/><circle cx="299.466" cy="490.244" r="3.547" style="fill:#fff;fill-opacity:1;stroke:#fff;stroke-width:.09247012;stroke-linecap:round;stroke-linejoin:round;stroke-miterlimit:4;stroke-dasharray:none;stroke-dashoffset:0;stroke-opacity:1"/><circle cx="287.274" cy="526.442" r="3.547" style="fill:#fff;fill-opacity:1;stroke:#fff;stroke-width:.09247012;stroke-linecap:round;stroke-linejoin:round;stroke-miterlimit:4;stroke-dasharray:none;stroke-dashoffset:0;stroke-opacity:1"/><circle cx="292.301" cy="539.891" r="3.547" style="fill:#fff;fill-opacity:1;stroke:#fff;stroke-width:.09247012;stroke-linecap:round;stroke-linejoin:round;stroke-miterlimit:4;stroke-dasharray:none;stroke-dashoffset:0;stroke-opacity:1"/><circle cx="316.056" cy="546.678" r="3.547" style="fill:#fff;fill-opacity:1;stroke:#fff;stroke-width:.09247012;stroke-linecap:round;stroke-linejoin:round;stroke-miterlimit:4;stroke-dasharray:none;stroke-dashoffset:0;stroke-opacity:1"/><circle cx="306.504" cy="583.504" r="3.547" style="fill:#fff;fill-opacity:1;stroke:#fff;stroke-width:.09247012;stroke-linecap:round;stroke-linejoin:round;stroke-miterlimit:4;stroke-dasharray:none;stroke-dashoffset:0;stroke-opacity:1"/><circle cx="259.497" cy="606.631" r="3.547" style="fill:#fff;fill-opacity:1;stroke:#fff;stroke-width:.09247012;stroke-linecap:round;stroke-linejoin:round;stroke-miterlimit:4;stroke-dasharray:none;stroke-dashoffset:0;stroke-opacity:1"/><circle cx="323.221" cy="617.691" r="3.547" style="fill:#fff;fill-opacity:1;stroke:#fff;stroke-width:.09247012;stroke-linecap:round;stroke-linejoin:round;stroke-miterlimit:4;stroke-dasharray:none;stroke-dashoffset:0;stroke-opacity:1"/><circle cx="330.008" cy="684.18" r="3.547" style="fill:#fff;fill-opacity:1;stroke:#fff;stroke-width:.09247012;stroke-linecap:round;stroke-linejoin:round;stroke-miterlimit:4;stroke-dasharray:none;stroke-dashoffset:0;stroke-opacity:1"/><circle cx="267.084" cy="739.282" r="3.547" style="fill:#fff;fill-opacity:1;stroke:#fff;stroke-width:.09247012;stroke-linecap:round;stroke-linejoin:round;stroke-miterlimit:4;stroke-dasharray:none;stroke-dashoffset:0;stroke-opacity:1"/><circle cx="338.184" cy="701.599" r="3.547" style="fill:#fff;fill-opacity:1;stroke:#fff;stroke-width:.09247012;stroke-linecap:round;stroke-linejoin:round;stroke-miterlimit:4;stroke-dasharray:none;stroke-dashoffset:0;stroke-opacity:1"/><circle cx="358.803" cy="665.694" r="3.547" style="fill:#fff;fill-opacity:1;stroke:#fff;stroke-width:.09247012;stroke-linecap:round;stroke-linejoin:round;stroke-miterlimit:4;stroke-dasharray:none;stroke-dashoffset:0;stroke-opacity:1"/><circle cx="386.176" cy="664.628" r="3.547" style="fill:#fff;fill-opacity:1;stroke:#fff;stroke-width:.09247012;stroke-linecap:round;stroke-linejoin:round;stroke-miterlimit:4;stroke-dasharray:none;stroke-dashoffset:0;stroke-opacity:1"/><circle cx="394.353" cy="707.998" r="3.547" style="fill:#fff;fill-opacity:1;stroke:#fff;stroke-width:.09247012;stroke-linecap:round;stroke-linejoin:round;stroke-miterlimit:4;stroke-dasharray:none;stroke-dashoffset:0;stroke-opacity:1"/><circle cx="406.084" cy="688.09" r="3.547" style="fill:#fff;fill-opacity:1;stroke:#fff;stroke-width:.09247012;stroke-linecap:round;stroke-linejoin:round;stroke-miterlimit:4;stroke-dasharray:none;stroke-dashoffset:0;stroke-opacity:1"/><circle cx="356.933" cy="591.444" r="3.547" style="fill:#fff;fill-opacity:1;stroke:#fff;stroke-width:.09247012;stroke-linecap:round;stroke-linejoin:round;stroke-miterlimit:4;stroke-dasharray:none;stroke-dashoffset:0;stroke-opacity:1"/><circle cx="350.238" cy="620.535" r="3.547" style="fill:#fff;fill-opacity:1;stroke:#fff;stroke-width:.09247012;stroke-linecap:round;stroke-linejoin:round;stroke-miterlimit:4;stroke-dasharray:none;stroke-dashoffset:0;stroke-opacity:1"/><path d="m278.54 482.28 20.613 8.044 17.093 56.308 34.187 74.407 36.198 43.237 19.608 23.63-12.57 21.115-56.81-8.044-69.882 39.214 62.34-55.302 29.16-19.608-34.187-46.755-64.855-10.558 47.259-24.132-15.082-44.242-4.525-12.569z" style="fill:none;fill-rule:evenodd;stroke:none;stroke-width:2;stroke-linecap:butt;stroke-linejoin:miter;stroke-miterlimit:4;stroke-dasharray:none;stroke-opacity:1"/><path d="m297.142 489.319-10.055 38.712-28.657 79.937 58.319-62.844-10.558 39.717 16.591 32.68 34.446-27.616-7.297 32.14 8.546 42.734 29.16-1.006 6.536 43.237-35.193-41.729-20.11 35.193-9.552-17.093-70.888-77.927" style="fill:none;fill-rule:evenodd;stroke:#fff;stroke-width:1.45169163;stroke-linecap:butt;stroke-linejoin:miter;stroke-miterlimit:4;stroke-dasharray:none;stroke-opacity:1"/><path d="m323.285 616.012 6.033 67.871 21.115-63.849-58.821-80.943M385.798 663.63l20.613 24.132-11.06 21.619-56.811-6.536-71.893 37.203 64.352-55.302M386.804 665.139l-36.198-45.248" style="fill:none;fill-rule:evenodd;stroke:#fff;stroke-width:1.45169163;stroke-linecap:butt;stroke-linejoin:miter;stroke-miterlimit:4;stroke-dasharray:none;stroke-opacity:1"/><path d="m322.452 616.875-63.85-9.05 48.265-23.63M291.784 540.456l-4.438-13.244-8.633-43.064 20.11 5.028" style="fill:none;fill-rule:evenodd;stroke:#fff;stroke-width:1.45169163;stroke-linecap:butt;stroke-linejoin:miter;stroke-miterlimit:4;stroke-dasharray:none;stroke-opacity:1"/><circle cx="314.042" cy="597.067" r="218.225" style="fill:none;fill-opacity:1;stroke:#fff;stroke-width:43.55074692;stroke-linecap:round;stroke-linejoin:round;stroke-miterlimit:4;stroke-dasharray:none;stroke-dashoffset:0;stroke-opacity:1"/><ellipse cx="314.032" cy="596.953" rx="196.538" ry="196.404" style="fill:none;fill-opacity:1;stroke:#b5b7b3;stroke-width:.63653255;stroke-linecap:round;stroke-linejoin:round;stroke-miterlimit:4;stroke-dasharray:none;stroke-dashoffset:0;stroke-opacity:1"/><path d="M199.266 770.907a208.31 208.31 0 0 1-85.502-231.136 208.31 208.31 0 0 1 194.808-150.944 208.31 208.31 0 0 1 202.463 140.51 208.31 208.31 0 0 1-73.25 235.305" style="fill:none;fill-opacity:1;stroke:none;stroke-width:1.01566124;stroke-linecap:round;stroke-linejoin:round;stroke-miterlimit:4;stroke-dasharray:none;stroke-dashoffset:0;stroke-opacity:1"/><g style="font-style:normal;font-variant:normal;font-weight:700;font-stretch:normal;font-size:45px;line-height:0%;font-family:&quot;Segoe UI&quot;;-inkscape-font-specification:&quot;Segoe UI Bold&quot;;text-align:start;letter-spacing:20px;word-spacing:5px;writing-mode:lr-tb;text-anchor:start;fill:#14468a;fill-opacity:1;stroke:none;stroke-width:1px;stroke-linecap:butt;stroke-linejoin:miter;stroke-opacity:1"><path d="M236.392 663.962q9.1 6.614-.187 19.394-4.818 6.63-9.79 8.313-5.002 1.689-9.677-1.709-8.888-6.458.555-19.452 4.702-6.47 9.643-8.148 4.923-1.692 9.456 1.602M220.1 685.857q3.644 2.648 10.296-6.506 6.265-8.62 2.692-11.217-3.484-2.531-9.942 6.356-6.46 8.887-3.046 11.367M178.36 657.354l22.449-23.102 4.964 4.824-16.997 17.491q.762.036 1.65.256.859.221 1.75.566.875.36 1.736.83.846.485 1.584 1.049l-4.073 4.192q-2.49-1.316-5.064-2.103-2.576-.787-4.988-1.078zM177.962 607.258q6.868 8.91-5.644 18.556-6.491 5.003-11.736 5.218-5.275.21-8.804-4.367-6.707-8.701 6.014-18.507 6.335-4.883 11.549-5.101 5.2-.236 8.62 4.201m-21.802 16.418q2.75 3.567 11.713-3.341 8.44-6.506 5.743-10.004-2.629-3.411-11.33 3.296-8.701 6.708-6.126 10.049M155.39 573.253q5.531 9.797-8.226 17.564-7.137 4.03-12.359 3.495-5.251-.542-8.093-5.574-5.4-9.567 8.586-17.464 6.964-3.932 12.156-3.406 5.181.506 7.936 5.385m-23.915 13.15q2.215 3.922 12.068-1.642 9.28-5.239 7.109-9.085-2.118-3.75-11.684 1.651-9.567 5.402-7.493 9.075M137.877 536.386q4.086 10.482-10.634 16.22-7.636 2.975-12.73 1.706-5.122-1.282-7.22-6.666-3.99-10.237 10.976-16.07 7.452-2.904 12.517-1.647 5.057 1.237 7.091 6.457m-25.538 9.623q1.635 4.197 12.179.088 9.93-3.87 8.325-7.985-1.564-4.012-11.8-.023-10.236 3.99-8.704 7.92M92.612 499.485l31.369-7.323 1.573 6.74-23.75 5.545q.621.441 1.25 1.107.603.649 1.167 1.42.542.776 1.013 1.636.45.865.767 1.739l-5.691 1.329q-1.385-2.453-3.128-4.505t-3.616-3.601zM119.317 457.107q.974 11.207-14.765 12.576-8.165.71-12.696-1.94-4.555-2.67-5.055-8.427-.952-10.945 15.05-12.336 7.968-.693 12.475 1.937 4.506 2.608 4.991 8.19m-27.214 2.057q.39 4.487 11.663 3.507 10.617-.923 10.235-5.323-.373-4.29-11.318-3.339t-10.58 5.155M118.667 416.297q-.633 11.233-16.406 10.344-8.183-.462-12.29-3.73-4.128-3.292-3.803-9.061.619-10.97 16.655-10.066 7.985.45 12.072 3.696 4.088 3.223 3.772 8.817m-27.229-1.842q-.253 4.497 11.044 5.134 10.64.6 10.889-3.81.242-4.3-10.727-4.918t-11.206 3.594M136.926 330.41q-4 10.516-18.766 4.899-7.66-2.914-10.587-7.271-2.94-4.386-.885-9.787 3.906-10.269 18.919-4.558 7.475 2.843 10.39 7.172 2.921 4.309.929 9.546m-25.398-9.99q-1.601 4.21 8.975 8.234 9.961 3.789 11.531-.34 1.531-4.024-8.737-7.93t-11.769.037M128.118 272.671l28.17 15.622-3.356 6.053-21.33-11.828q.165.744.185 1.66.011.886-.088 1.835-.12.94-.347 1.894-.247.943-.598 1.804l-5.111-2.835q.619-2.747.704-5.438.085-2.692-.264-5.097zM176.364 259.18q-6.802 8.96-19.385-.593-6.528-4.955-8.107-9.961-1.584-5.037 1.91-9.64 6.643-8.75 19.436.962 6.37 4.836 7.946 9.811 1.588 4.958-1.8 9.42m-21.55-16.747q-2.724 3.588 6.29 10.43 8.487 6.444 11.158 2.926 2.604-3.43-6.147-10.073-8.75-6.643-11.301-3.283M203.277 228.494q-8.007 7.903-19.105-3.34-5.757-5.834-6.61-11.014-.85-5.21 3.262-9.27 7.82-7.717 19.102 3.715 5.619 5.692 6.47 10.84.868 5.133-3.12 9.07m-18.952-19.639q-3.206 3.165 4.743 11.218 7.486 7.585 10.63 4.482 3.065-3.025-4.653-10.844-7.717-7.82-10.72-4.856M219.233 172.316l19.147 25.903-5.565 4.115-14.498-19.613q-.16.746-.521 1.587-.357.81-.842 1.634-.498.805-1.1 1.578-.617.756-1.294 1.393l-3.474-4.7q1.703-2.242 2.897-4.655 1.195-2.414 1.875-4.747zM268.72 180.048q-9.904 5.337-17.398-8.571-3.887-7.215-3.25-12.426.646-5.24 5.733-7.98 9.672-5.212 17.29 8.928 3.794 7.041 3.166 12.222-.608 5.17-5.541 7.827m-12.674-24.17q-3.965 2.137 1.402 12.098 5.055 9.382 8.943 7.287 3.791-2.043-1.42-11.714-5.21-9.672-8.925-7.671M305.928 163.273q-10.563 3.873-16.001-10.96-2.822-7.694-1.45-12.761 1.385-5.095 6.81-7.084 10.315-3.783 15.845 11.298 2.753 7.509 1.394 12.547-1.338 5.031-6.598 6.96m-9.106-25.728q-4.23 1.55-.334 12.175 3.669 10.005 7.815 8.485 4.044-1.483.262-11.797-3.783-10.315-7.743-8.863M343.763 118.776l6.665 31.515-6.772 1.432-5.046-23.862q-.455.612-1.133 1.227-.662.59-1.444 1.137-.787.526-1.657.98-.875.431-1.755.73l-1.209-5.719q2.48-1.333 4.57-3.032 2.088-1.7 3.675-3.54zM432.817 147.103q-11.195-1.108-9.64-16.83.808-8.156 4.247-12.121 3.464-3.985 9.215-3.416 10.932 1.082 9.35 17.066-.787 7.959-4.202 11.905-3.394 3.947-8.97 3.396m2.994-27.128q-4.483-.443-5.597 10.818-1.05 10.605 3.346 11.04 4.285.424 5.367-10.51 1.082-10.932-3.116-11.348M486.242 123.494l-7.708 31.276-6.72-1.656 5.836-23.681q-.676.354-1.554.612-.852.243-1.795.395-.938.131-1.918.161-.975.01-1.898-.105l1.399-5.675q2.813-.121 5.433-.743t4.85-1.588zM511.886 166.529q-10.428-4.22-4.502-18.865 3.075-7.597 7.493-10.432 4.447-2.846 9.803-.678 10.184 4.121 4.16 19.01-3.001 7.414-7.39 10.236-4.37 2.83-9.564.729m10.523-25.182q-4.176-1.69-8.42 8.8-3.998 9.878.096 11.535 3.992 1.616 8.113-8.568t.21-11.767M548.546 184.47q-9.723-5.658-1.777-19.313 4.122-7.083 8.898-9.261 4.806-2.186 9.8.72 9.496 5.526 1.417 19.408-4.022 6.913-8.768 9.083-4.727 2.182-9.57-.637m13.992-23.432q-3.893-2.265-9.584 7.515-5.36 9.21-1.543 11.432 3.722 2.166 9.248-7.33 5.526-9.495 1.88-11.617M582.29 207.431q-8.822-6.98.98-19.37 5.084-6.427 10.12-7.906 5.068-1.483 9.6 2.103 8.616 6.816-1.35 19.413-4.961 6.272-9.967 7.748-4.988 1.489-9.383-1.988m17.173-21.211q-3.532-2.795-10.553 6.08-6.612 8.357-3.148 11.098 3.377 2.672 10.194-5.945 6.816-8.616 3.507-11.233M612.437 234.946q-7.743-8.161 3.719-19.034 5.946-5.64 11.141-6.39 5.226-.748 9.204 3.444 7.56 7.97-4.092 19.025-5.803 5.505-10.967 6.255-5.15.765-9.005-3.3m20.01-18.558q-3.1-3.268-11.31 4.52-7.731 7.334-4.691 10.538 2.964 3.125 10.934-4.436 7.97-7.562 5.067-10.622M668.288 252.035 642 270.65l-4-5.649 19.904-14.095q-.742-.174-1.576-.553-.803-.374-1.616-.875-.795-.514-1.556-1.133-.743-.631-1.366-1.32l4.77-3.379q2.207 1.749 4.595 2.992 2.389 1.244 4.708 1.97zM691.21 291.342l-28.673 14.679-3.154-6.161 21.71-11.115q-.71-.278-1.481-.772-.742-.484-1.475-1.096-.713-.622-1.378-1.343-.646-.731-1.164-1.502l5.202-2.664q1.936 2.045 4.123 3.617 2.186 1.57 4.378 2.621zM687.188 384.7q-1.86-11.094 13.72-13.707 8.084-1.355 12.81.927 4.753 2.3 5.709 7.999 1.817 10.835-14.024 13.491-7.888 1.323-12.59-.941-4.698-2.242-5.625-7.768m26.966-4.209q-.745-4.442-11.905-2.57-10.51 1.761-9.78 6.117.712 4.247 11.547 2.43t10.138-5.977M723.952 430.087l-32.203.744-.16-6.92 24.383-.563q-.518-.56-.998-1.34-.457-.758-.85-1.628-.372-.87-.658-1.81-.263-.938-.394-1.858l5.843-.135q.853 2.683 2.138 5.05 1.286 2.365 2.802 4.265zM689.128 466.098q1.343-11.17 17.029-9.283 8.137.98 12.029 4.501 3.91 3.547 3.22 9.285-1.312 10.907-17.259 8.989-7.94-.955-11.813-4.453-3.875-3.476-3.206-9.039m27.058 3.565q.538-4.472-10.697-5.824-10.58-1.273-11.108 3.112-.515 4.276 10.393 5.588t11.412-2.876M711.622 519.992l-31.111-8.346 1.793-6.685 23.557 6.32q-.34-.683-.581-1.567-.225-.856-.358-1.802-.112-.94-.122-1.92.012-.976.145-1.896l5.645 1.515q.063 2.815.631 5.447t1.489 4.881zM668.085 544.756q4.426-10.343 18.95-4.127 7.535 3.225 10.281 7.698 2.758 4.503.484 9.815-4.322 10.1-19.089 3.78-7.353-3.146-10.087-7.59-2.744-4.425-.539-9.576m24.968 11.02q1.772-4.141-8.631-8.593-9.797-4.193-11.535-.133-1.694 3.96 8.406 8.282t11.76.444M674.535 602.802l-27.513-16.752 3.6-5.912 20.831 12.685q-.134-.751-.117-1.667.025-.885.163-1.83.157-.934.423-1.878.285-.933.67-1.778l4.993 3.04q-.73 2.72-.925 5.405-.194 2.686.057 5.103zM625.783 614.326q7.16-8.677 19.345 1.378 6.322 5.216 7.697 10.282 1.377 5.097-2.3 9.554-6.993 8.474-19.382-1.75-6.169-5.09-7.54-10.125-1.386-5.018 2.18-9.34m20.853 17.606q2.867-3.474-5.861-10.676-8.22-6.783-11.03-3.376-2.742 3.321 5.732 10.314 8.474 6.992 11.159 3.738M597.643 643.889q8.323-7.569 18.952 4.12 5.514 6.063 6.153 11.273.638 5.24-3.637 9.129-8.128 7.391-18.934-4.492-5.381-5.917-6.022-11.096-.657-5.165 3.488-8.934m18.133 20.397q3.332-3.03-4.28-11.402-7.17-7.885-10.438-4.913-3.186 2.897 4.205 11.025 7.392 8.128 10.513 5.29" style="font-style:normal;font-variant:normal;font-weight:700;font-stretch:normal;font-size:45px;line-height:0%;font-family:&quot;Segoe UI&quot;;-inkscape-font-specification:&quot;Segoe UI Bold&quot;;letter-spacing:15px;word-spacing:20px;fill:#14468a;fill-opacity:1" transform="translate(20.299 283.376)scale(.72585)"/></g><circle cx="230.794" cy="800.441" r="7.258" style="fill:#14468a;fill-opacity:1;stroke:#b5b7b3;stroke-width:0;stroke-linecap:round;stroke-linejoin:round;stroke-miterlimit:4;stroke-dasharray:none;stroke-dashoffset:0;stroke-opacity:1"/><circle cx="420.966" cy="789.554" r="7.258" style="fill:#14468a;fill-opacity:1;stroke:#b5b7b3;stroke-width:0;stroke-linecap:round;stroke-linejoin:round;stroke-miterlimit:4;stroke-dasharray:none;stroke-dashoffset:0;stroke-opacity:1"/><path d="M-271.592 826.739a233.67 233.67 0 0 1-127.83-12.275" style="fill:none;fill-opacity:1;stroke:none;stroke-width:1.1393069;stroke-linecap:round;stroke-linejoin:round;stroke-miterlimit:4;stroke-dasharray:none;stroke-dashoffset:0;stroke-opacity:1" transform="scale(-1 1)"/><g style="font-style:normal;font-variant:normal;font-weight:700;font-stretch:normal;font-size:45px;line-height:125%;font-family:&quot;Swis721 BT&quot;;-inkscape-font-specification:&quot;Swis721 BT, Bold&quot;;text-align:start;letter-spacing:8px;word-spacing:10px;writing-mode:lr-tb;text-anchor:start;fill:#002868;fill-opacity:1;stroke:none;stroke-width:1px;stroke-linecap:butt;stroke-linejoin:miter;stroke-opacity:1"><path d="m356.314 744.489 13.224 1.895-.816 5.7-20.75-2.975.337-2.35q.342-2.392 1.418-4.169 1.08-1.798 2.513-3.125 1.436-1.348 3.037-2.295 1.625-.965 3.065-1.713 1.51-.783 2.66-1.528 1.172-.742 1.993-1.512.845-.79 1.321-1.631.48-.864.626-1.886.287-2.001-.698-3.185t-3.312-1.518q-4.024-.577-8.158 2.093l.867-6.046q4.445-2.05 9.556-1.316 2.37.34 4.15 1.238 1.806.88 2.946 2.22t1.577 3.09q.462 1.73.172 3.754-.309 2.153-1.223 3.731-.893 1.581-2.198 2.793-1.284 1.214-2.885 2.161-1.598.925-3.295 1.77-1.15.59-2.235 1.189-1.06.58-1.902 1.192-.84.59-1.37 1.202-.532.612-.62 1.22M392.557 754.268q-11.242-.416-10.658-16.203.303-8.19 3.491-12.36 3.212-4.191 8.987-3.977 10.978.406 10.385 16.457-.296 7.992-3.462 12.14-3.144 4.15-8.743 3.943m1.316-27.26q-4.5-.166-4.92 11.142-.393 10.65 4.02 10.812 4.304.16 4.71-10.82.406-10.978-3.81-11.134M429.786 720.693l2.202 32.137-6.905.473-1.668-24.332q-.535.543-1.293 1.057-.737.491-1.588.924-.853.41-1.778.738-.926.306-1.839.479l-.4-5.831q2.643-.974 4.948-2.365t4.134-2.993zM469.788 736.798q.403 2.294-.049 4.426-.45 2.131-1.62 3.854-1.175 1.7-2.996 2.89-1.825 1.168-4.162 1.579-2.619.46-4.867-.15-2.227-.613-3.979-2.201-1.755-1.61-2.983-4.161t-1.825-5.949q-.703-4.004-.3-7.42.423-3.443 1.834-6.078 1.433-2.639 3.81-4.35 2.372-1.733 5.619-2.303 3.592-.63 5.731-.136l1.003 5.713q-2.594-.927-5.386-.437-1.731.304-3.02 1.222-1.29.918-2.09 2.33-.779 1.408-1.055 3.264-.259 1.83.074 3.98l.13-.023q1.671-3.439 5.978-4.195 1.926-.338 3.606.08 1.68.42 3.008 1.503 1.324 1.061 2.241 2.73.918 1.668 1.298 3.832m-6.611 1.607q-.878-5-4.968-4.281-.93.163-1.628.642-.696.48-1.127 1.202-.431.723-.582 1.642-.133.893.05 1.932.2 1.147.678 2.09t1.152 1.604q.692.637 1.525.937.834.3 1.764.136.931-.163 1.602-.66.69-.523 1.091-1.285.42-.787.534-1.789.11-1.023-.091-2.17" style="font-style:normal;font-variant:normal;font-weight:700;font-stretch:normal;font-size:45px;font-family:&quot;Segoe UI&quot;;-inkscape-font-specification:&quot;Segoe UI Bold&quot;;letter-spacing:8px;word-spacing:0;fill:#14468a;fill-opacity:1" transform="translate(20.299 283.376)scale(.72585)"/></g><g style="fill:#17458c;fill-opacity:1"><path d="M1296.595 946.452s76.395-2.177 114.551-.707c7.236-.068 14.43.806 20.507 4.242 7.511 3.93 8.28 8.716 11.313 14.85l18.739-5.304s-3.668-8.77-6.364-12.374c-2.697-3.604-5.196-7.003-8.84-9.193-8.596-5.167-17.862-7.038-27.93-8.485-4.56-.639-7.301-.584-10.96-.707-43.699-1.467-130.815.354-130.815.354l.707 67.175 19.092-3.536zM1277.857 1007.263l18.385-2.475.353 30.406-18.385.707zM1444.734 976.857l19.799-5.303.354 54.8-20.153 1.061zM1277.857 1046.507l18.385-.707.353 20.153s82.87.59 118.44-.354c9.23-.77 20.392-5.196 24.75-11.844 3.23-5.119 3.7-10.976 4.595-16.794l20.006-.603c-1.013 5.534-1.596 11.524-3.155 16.749-1.636 5.48-3.796 10.393-6.951 13.906-10.36 10.116-24.794 14.095-36.77 14.85-46.567 3.083-140.007.353-140.007.353zM1498.125 928.737l.5 22 18.75-5-.125-17zM1498.5 962.362l18.75-5.25v126.25l-19.125-.25zM1733.764 978.448l-18.208.177s.192-5.546 0-8.308c-.177-2.553-.417-5.126-1.06-7.602-.78-2.997-1.484-6.198-3.36-8.662-2.357-3.376-7.591-6.704-11.667-8.308-4.228-1.59-13.435-1.768-13.435-1.768s-52.159-.844-79.196-.354c-4.766.087-9.627.594-14.142 2.122-6.634 2.563-13.046 7.382-16.087 13.258-1.513 3.016-2.121 9.9-2.121 9.9l-.354 41.365-20.682 2.298s-.432-31.85.53-41.366 1.34-10.66 3.005-15.733c1.365-4.157 3.17-8.244 5.657-11.844 2.131-3.086 4.67-6.032 7.778-8.131 10.779-6.929 23.473-7.63 35.002-8.132 27.962-.354 55.482.414 82.378.177 8.475.308 17 1.93 24.395 4.596 10.763 3.542 17.8 14.57 19.8 24.218 1.72 7.821 1.986 13.932 1.767 22.097M1717.5 1030.067l16.971.53s1.093 11.34.53 16.971c-.59 5.902-1.627 12.117-4.066 17.324a31.4 31.4 0 0 1-4.95 7.425c-2.1 2.332-4.521 4.454-7.247 6.01-7.173 3.493-15.299 5.244-23.158 6.01-3.522.317-10.607.177-10.607.177s-54.274.631-82.378.354a68 68 0 0 1-17.5-2.475c-4.935-1.372-9.827-3.251-14.143-6.01-3.55-2.27-6.982-5.014-9.369-8.486-2.864-4.166-5.48-14.142-5.48-14.142s-1.557-6.915-1.944-10.43c-.73-6.622-.707-19.975-.707-19.975l20.86-2.475-.354 15.91s.348 10.53 2.475 15.202c1.49 3.276 4.069 6.08 6.894 8.309 3.558 2.808 7.855 4.71 12.197 6.01 3.641 1.091 11.314 1.414 11.314 1.414l83.616-.883s9.358-.693 13.611-2.475c2.925-1.226 5.67-3.111 7.778-5.48 2.596-3.63 4.43-7.933 5.127-12.021.908-5.527.53-16.794.53-16.794M1754 928.362l-.5 17 77 1v30l18.25-3.75.25-26.25 77-1v-17zM1830.75 987.862l18.25-4v99.5h-18.75z" style="fill:#17458c;fill-opacity:1;fill-rule:evenodd;stroke:none;stroke-width:1px;stroke-linecap:butt;stroke-linejoin:miter;stroke-opacity:1" transform="translate(-849.264 180.306)scale(.72585)"/></g></g></svg>