<svg xmlns="http://www.w3.org/2000/svg" xmlns:xlink="http://www.w3.org/1999/xlink" width="480.084" height="479.886"><title>Department of National Defense - DND (Philippines)</title><defs><path id="b" d="m126.5 98.8 227.7 3V381l-227.7-3z"/><path id="c" d="m354.2 381-229.3-.7v-279l229.3.7z"/><path id="d" d="m354.2 381-227.7-3V98.8l227.7 3z"/><path id="e" d="m124.9 101.3 229.3.7v279l-229.3-.7z"/><path id="a" d="m354.2 381-227.7-3V98.8l227.7 3z"/><path id="f" d="m124.9 101.3 229.3.7v279l-229.3-.7z"/><path id="h" d="m126.5 98.8 227.7 3V381l-227.7-3z"/><path id="i" d="m354.2 381-229.3-.7v-279l229.3.7z"/><path id="j" d="m354.2 381-227.7-3V98.8l227.7 3z"/><path id="k" d="m124.9 101.3 229.3.7v279l-229.3-.7z"/><path id="g" d="m354.2 381-227.7-3V98.8l227.7 3z"/><path id="l" d="m124.9 101.3 229.3.7v279l-229.3-.7z"/><path id="n" d="m126.5 98.8 227.7 3V381l-227.7-3z"/><path id="o" d="m354.2 381-229.3-.7v-279l229.3.7z"/><path id="p" d="m354.2 381-227.7-3V98.8l227.7 3z"/><path id="q" d="m124.9 101.3 229.3.7v279l-229.3-.7z"/><path id="m" d="m354.2 381-227.7-3V98.8l227.7 3z"/><path id="r" d="m124.9 101.3 229.3.7v279l-229.3-.7z"/><clipPath id="s"><use xlink:href="#g" width="744.094" height="1052.362" overflow="visible" style="overflow:visible"/></clipPath></defs><text xml:space="preserve" x="1055.11" y="523.129" style="font-size:50px;font-style:normal;font-variant:normal;font-weight:700;font-stretch:normal;text-align:start;line-height:125%;letter-spacing:0;word-spacing:0;writing-mode:lr-tb;text-anchor:start;fill:#000;fill-opacity:1;stroke:none;font-family:Swis721 BT;-inkscape-font-specification:&quot;Swis721 BT, Bold&quot;" transform="translate(-103.075 -234.501)"/><text xml:space="preserve" x="-474.739" y="518.852" style="font-size:50px;font-style:normal;font-variant:normal;font-weight:700;font-stretch:normal;text-align:start;line-height:125%;letter-spacing:0;word-spacing:0;writing-mode:lr-tb;text-anchor:start;fill:#000;fill-opacity:1;stroke:none;font-family:Swis721 BT;-inkscape-font-specification:&quot;Swis721 BT, Bold&quot;" transform="translate(-103.075 -234.501)"/><path d="M109.784 265.338c0 45.671-36.066 82.695-80.556 82.695s-80.556-37.024-80.556-82.695 36.066-82.694 80.556-82.694 80.556 37.023 80.556 82.694z" style="color:#000;fill:#0038a8;fill-opacity:1;fill-rule:nonzero;stroke:#d4af37;stroke-width:2.77060699;stroke-linecap:round;stroke-linejoin:bevel;stroke-miterlimit:4;stroke-opacity:1;stroke-dasharray:none;stroke-dashoffset:0;marker:none;visibility:visible;display:inline;overflow:visible" transform="matrix(2.92957 0 0 2.85381 154.444 -517.253)"/><path d="M24.196 466.615c0 50.669-41.752 91.744-93.256 91.744s-93.255-41.075-93.255-91.744 41.752-91.743 93.255-91.743c51.504 0 93.256 41.075 93.256 91.743z" style="color:#000;fill:#cfb53b;fill-opacity:1;stroke:#d4af37;stroke-width:2.15083051;stroke-linecap:round;stroke-linejoin:bevel;stroke-miterlimit:4;stroke-opacity:1;stroke-dasharray:none;stroke-dashoffset:0;marker:none;visibility:visible;display:inline;overflow:visible" transform="matrix(1.89493 0 0 1.92616 370.602 -658.473)"/><path d="M337.775 215.362h121.56M305.379 226.362h181.93M285.375 237.362h221.658M268.196 248.362h257.58M254.658 259.597l284.11-.235M242.86 270.362h305.702M231.953 281.362h328.243M224.367 292.362h344.977M216.969 304.362l357.976-1M210.008 314.362h372.747M203.904 325.362l384.778-1.057M198.762 336.465l396.36-.103M194.42 347.362h404.133M191.02 358.362h413.005M187.951 369.185l418.156.355M185.482 380.362h420.717M183.68 391.362h426.047M182.487 402.362h427.24M474.326 621.656l-155.37.013M498.926 611.362l-203.954-.735M516.41 600.362l-239.846-.356M530.06 589.362H262.376M544.03 577.646l-294.745.066M555.395 567.362l-316.427-.04M563.783 556.363l-334.98-.818M570.36 545.362l-349.456-.302M580.279 534.362H212.843M585.454 523.362H206.939M591.343 512.362h-389.9M594.913 501.362H196.14M599.335 490.362H192.568M603.502 479.362H189.139M606.87 468.362H186.434M609.432 457.362H184.317M610.44 446.362H182.902M612.456 435.362H182.134M610.944 424.362H181.622M610.613 413.362H181.794M356.617 633.362h78.05M408 206.373v8.99M378 206.87v8.492M334 215.12v11.242M363 215.362v11M392 215.362v11M422 215.362v11M451 215.362v11M320.277 226.12v11.242M349.277 226.362v11M378.277 226.362v11M408.277 226.362v11M437.277 226.362v11M334.356 237.12v11.242M363.356 237.362v11M392.356 237.362v11M422.356 237.362v11M451.356 237.362v11M320.277 248.12v11.242M349.277 248.362v11M378.277 248.362v11M408.277 248.362v11M437.277 248.362v11M334.178 259.12v11.242M363.178 259.362v11M392.178 259.362v11M422.178 259.362v11M451.178 259.362v11M320.277 270.12v11.242M349.277 270.362v11M378.277 270.362v11M408.277 270.362v11M437.277 270.362v11M334 281.12v11.242M363 281.362v11M392 281.362v11M422 281.362v11M451 281.362v11M320.277 292.505v11.242M349.277 292.747v11M378.277 292.747v11M408.277 292.747v11M437.277 292.747v11M334 303.632v11.241M363 303.873v11M392 303.873v11M422 303.873v11M451 303.873v11M320.277 314.12v11.242M349.277 314.362v11M378.277 314.362v11M408.277 314.362v11M437.277 314.362v11M466.123 226.362v11M466.479 248.362v11M466.3 270.362v11M466.123 292.362v11M466.123 314.873v11M480.741 237.362v11M481.097 259.362v11M480.92 281.362v11M480.741 303.362v11M480.741 325.873v11M497.124 248.362v11M497.48 270.362v11M497.302 292.362v11M497.124 314.362v11M497.124 336.873v11M511.49 259.362v11M511.847 281.362v11M511.668 303.362v11M511.49 325.362v11M511.49 347.873v11M524.596 270.362v11M524.953 292.362v11M524.775 314.362v11M524.596 336.362v11M524.597 358.873v11M541.483 281.376v11M541.84 303.376v11M541.661 325.376v11M541.483 347.376v11M541.483 369.887v11M556.858 292.362v11M557.214 314.362v11M557.036 336.362v11M556.858 358.362v11M556.858 380.873v11M571.728 303.362v11M572.085 325.362v11M571.907 347.362v11M571.728 369.362v11M571.729 391.873v11M541.483 281.376v11M541.84 303.376v11M541.661 325.376v11M541.483 347.376v11M541.483 369.887v11M496.738 230.753l.03 6.61M523.5 248.362v11M511.025 237.362v11M540.966 259.362v11M585.843 336.365v11M586.095 358.523v11M586.347 380.362v11M600.461 369.362v11M600.818 391.362v11M600.64 413.362v11M600.461 435.362v11M586.599 402.362v11M586.955 424.362v11M586.777 446.362v11M586.599 468.362v11M600.671 457.362v11M571.98 413.362v11M572.337 435.362v11M572.159 457.362v11M571.98 479.362v11M586.85 490.362v11M587.207 512.362v11M571.723 501.68v11M572.08 523.68v11M556.606 402.362v11M556.962 424.362v11M556.784 446.362v11M556.606 468.362v11M540.98 391.362v11M541.336 413.362v11M541.157 435.362v11M540.98 457.362v11M556.606 490.362v11M556.962 512.362v11M556.784 534.362v11M556.606 556.362l-.022 8.435M540.98 479.362v11M541.336 501.362v11M541.157 523.362v11M540.98 545.362v11M524.848 380.362v11M525.205 402.362v11M525.027 424.362v11M524.848 446.362v11M511.49 369.46v11M511.847 391.46v11M511.669 413.46v11M511.49 435.46v11M497.125 358.447v11M497.481 380.447v11M497.303 402.447v11M497.125 424.447v11M480.741 347.362v11M481.097 369.362v11M480.92 391.362v11M480.741 413.362v11M465.87 336.396v11M466.227 358.396v11M466.048 380.396v11M465.87 402.396v11M451.252 325.362v11M451.608 347.362v11M451.43 369.362v11M451.252 391.362v11M422.015 325.407v11M422.372 347.407v11M422.193 369.407v11M422.015 391.407v11M437.138 336.403v11M437.494 358.403v11M437.316 380.403v11M437.138 402.403v11M465.87 424.362v11M466.227 446.362v11M466.049 468.362v11M465.87 490.362v11M480.993 435.362v11M481.35 457.362v11M481.171 479.362v11M480.993 501.362v11M497.124 446.362v11M497.48 468.362v11M497.302 490.362v11M497.124 512.362v11M511.49 457.362v11M511.847 479.362v11M511.668 501.362v11M511.49 523.362v11M525.1 468.362v11M525.457 490.362v11M525.279 512.362v11M525.1 534.362v11M465.618 512.362v11M465.975 534.362v11M465.797 556.362v11M465.618 578.362v11M480.993 523.362v11M481.35 545.362v11M481.171 567.362v11M480.993 589.362v11M497.124 534.362v11M497.48 556.362v11M497.302 578.362v11M497.124 600.362v11M525.1 556.362v11M525.457 578.362v11M511.742 545.362v11M512.099 567.362v11M511.92 589.362v11M480.896 611.362l.11 7.573M465.596 600.362v11M541.461 567.362v11M451.482 413.362v11M451.838 435.362v11M451.66 457.362v11M451.482 479.362v11M422.497 413.362v11M422.854 435.362v11M422.675 457.362v11M422.497 479.362v11M437.116 424.362v11M437.472 446.362v11M437.294 468.362v11M437.116 490.362v11M451.23 501.362v11M451.586 523.362v11M451.408 545.362v11M451.23 567.362v11M422.497 501.362v11M422.854 523.362v11M422.675 545.362v11M422.497 567.362v11M436.886 512.362v11M437.242 534.362v11M437.064 556.362v11M436.886 578.362v11M451.23 589.362v11M451.586 611.362v11M422.497 589.362v11M422.854 611.362v11M436.612 600.362v11M436.968 622.362v11M392.504 325.362v11M392.86 347.362v11M392.682 369.362v11M392.504 391.362v11M363.267 325.362v11M363.624 347.362v11M363.445 369.362v11M363.267 391.362v11M334.282 325.362v11M334.639 347.362v11M334.46 369.362v11M334.282 391.362v11M349.405 336.362v11M349.761 358.362v11M349.583 380.362v11M349.405 402.362v11M378.39 336.362v11M378.746 358.362v11M378.568 380.362v11M378.39 402.362v11M408.13 336.362v11M408.487 358.362v11M408.309 380.362v11M408.13 402.362v11M320.42 336.297v11M320.777 358.297v11M320.599 380.297v11M320.42 402.297v11M304.793 237.362v11M305.15 259.362v11M304.971 281.362v11M304.793 303.362v11M290.93 248.362v11M291.287 270.362v11M291.11 292.362v11M290.93 314.362v11M276.936 242.436l-.12 5.926M277.173 259.362v11M276.995 281.362v11M276.817 303.362v11M291.574 233.437l-.391 3.925M262.198 270.362v11M262.555 292.362v11M262.376 314.362v11M262.198 336.362v11M246.825 282.278v11M247.182 304.278v11M247.003 326.278v11M246.825 348.278v11M232.205 292.362v11M232.561 314.362v11M232.383 336.362v11M232.205 358.362v11M276.564 325.362v11M276.92 347.362v11M276.743 369.362v11M276.564 391.362v11M291.183 336.273v11M291.54 358.273v11M291.361 380.273v11M291.183 402.273v11M304.793 325.362v11M305.15 347.362v11M304.971 369.362v11M304.793 391.362v11M262.198 358.362v11M262.555 380.362v11M262.376 402.362v11M262.198 424.362v11M246.571 369.362v11M246.928 391.362v11M246.75 413.362v11M246.571 435.362v11M218.09 303.362v11M218.447 325.362v11M218.269 347.362v11M218.09 369.362v11M232.205 380.362v11M232.561 402.362v11M232.383 424.362v11M232.205 446.362v11M217.839 391.362v11M218.195 413.362v11M218.017 435.362v11M217.839 457.362v11M276.312 413.362v11M276.669 435.362v11M276.49 457.362v11M276.312 479.362v11M305.045 413.362v11M305.402 435.362v11M305.224 457.362v11M305.045 479.362v11M290.93 424.362v11M291.287 446.362v11M291.11 468.362v11M290.93 490.362v11M262.198 446.362v11M262.555 468.362v11M262.376 490.362v11M262.198 512.362v11M246.32 457.362v11M246.676 479.362v11M246.498 501.362v11M246.32 523.362v11M231.953 468.362v11M232.31 490.362v11M232.131 512.362v11M231.953 534.362v11M320.42 424.362v11M320.776 446.362v11M320.598 468.362v11M320.42 490.362v11M392.756 413.362v11M393.113 435.362v11M392.934 457.362v11M392.756 479.362v11M407.879 424.362v11M408.235 446.362v11M408.057 468.362v11M407.879 490.362v11M363.771 413.362v11M364.128 435.362v11M363.95 457.362v11M363.771 479.362v11M378.642 424.362v11M378.998 446.362v11M378.82 468.362v11M378.642 490.362v11M349.405 424.362v11M349.761 446.362v11M349.583 468.362v11M349.405 490.362v11M334.282 413.362v11M334.639 435.362v11M334.46 457.362v11M334.282 479.362v11M393.008 501.362v11M393.365 523.362v11M393.186 545.362v11M393.008 567.362v11M407.627 512.362v11M407.983 534.362v11M407.805 556.362v11M407.627 578.362v11M378.894 512.362v11M379.25 534.362v11M379.072 556.362v11M378.894 578.362v11M363.771 501.362v11M364.128 523.362v11M363.95 545.362v11M363.771 567.362v11M349.153 512.362v11M349.51 534.362v11M349.331 556.362v11M349.153 578.362v11M334.534 501.362v11M334.89 523.362v11M334.712 545.362v11M334.534 567.362v11M305.297 501.362v11M305.654 523.362v11M305.476 545.362v11M305.297 567.362v11M320.168 512.362v11M320.524 534.362v11M320.346 556.362v11M320.168 578.362v11M276.564 501.362v11M276.92 523.362v11M276.743 545.362v11M276.564 567.362v11M290.93 512.362v11M291.287 534.362v11M291.11 556.362v11M290.93 578.362v11M201.96 380.362v11M202.316 402.362v11M202.138 424.362v11M201.96 446.362v11M202.213 336.362v11M202.035 358.362v11M186.333 391.362v11M186.69 413.362v11M186.511 435.362v11M186.333 457.362v11M201.708 468.362v11M202.064 490.362v11M217.587 479.362v11M217.943 501.362v11M217.765 523.362v11M246.067 545.362v11M246.424 567.362l-.014 7.594M262.198 534.362v11M262.555 556.362v11M262.376 578.362v11M276.564 589.362v11M305.297 589.362v11M305.654 611.362l-.107 4.578M290.93 600.362l.43 8.278M334.786 589.362v11M335.143 611.362v11M320.168 600.362v11M363.52 589.362v11M363.876 611.362v11M349.153 600.362v11M349.51 622.362l.001 8.585M393.008 589.362v11M393.365 611.362v11M378.894 600.362v11M379.25 622.362v11M407.879 600.362v11M408.235 622.362v11M600.897 479.362v11M261.05 254.19l-.112 5.172M237.146 276.864l-.404 4.498M349.382 211.28l-.549 4.082M479.83 222.764l.385 3.598M436.81 209.823l-.032 5.54" style="fill:none;stroke:#996515;stroke-width:3;stroke-linecap:butt;stroke-linejoin:miter;stroke-miterlimit:4;stroke-opacity:1;stroke-dasharray:none" transform="translate(-86.325 -105.571)scale(.82182)"/><path d="M24.196 466.615c0 50.669-41.752 91.744-93.256 91.744s-93.255-41.075-93.255-91.744 41.752-91.743 93.255-91.743c51.504 0 93.256 41.075 93.256 91.743z" style="color:#000;fill:none;stroke:#d4af37;stroke-width:3.44132876;stroke-linecap:round;stroke-linejoin:bevel;stroke-miterlimit:4;stroke-opacity:1;stroke-dasharray:none;stroke-dashoffset:0;marker:none;visibility:visible;display:inline;overflow:visible" transform="matrix(1.89493 0 0 1.92616 370.602 -658.473)"/><path d="M239.8 341.9s1.6-11.3 44.6-16.3c25.8-3 35.5-30.6 34.8-43.7.1-21.2.2-48.3.4-71.7-.3-25.8-.3-39.4 16.1-53.9-29.6-6.8-34-21.8-43-35-24.5 11.9-41.9 1.3-53-13.8m.1 234.4s-1.6-11.3-44.6-16.3c-25.8-3-35.5-30.6-34.8-43.7-.1-21.2-.2-48.3-.4-71.7.3-25.8.3-39.4-16.1-53.9 29.6-6.8 33.9-21.4 42.8-34.7 24.9 11.5 41.5 1.5 53-14.1" clip-path="url(#s)" style="fill:#fff" transform="matrix(1.23205 0 0 1.22998 -55.916 -40.086)"/><path d="m160.4 208.6 79.7-.1v132.9c-.1-.7-3.9-5.4-10.7-8.2-6.5-2.7-15.5-5-25.9-6.5-35.3-2.3-40.4-29.4-40.4-29.4-4.7-9.7-2.2-29.5-3-44.6z" clip-path="url(#s)" style="fill:#0038a8" transform="matrix(1.23205 0 0 1.22998 -55.916 -40.086)"/><path d="m160.4 208.6 79.7-.1v132.9c-.1-.7-3.9-5.4-10.7-8.2-6.5-2.7-15.5-5-25.9-6.5-35.3-2.3-40.4-29.4-40.4-29.4-4.7-9.7-2.2-29.5-3-44.6z" clip-path="url(#s)" style="fill:none;stroke:#0038a8;stroke-width:.30000001" transform="matrix(1.23205 0 0 1.22998 -55.916 -40.086)"/><path d="m319.1 208.6-79 .7-.1 131.5c.1-.7 5-5.2 11-7.7 6.6-2.8 14.7-4.9 24.9-6.4 35.3-2.3 40.4-29.4 40.4-29.4 4.7-9.7 2.2-29.5 3-44.6z" clip-path="url(#s)" style="fill:#ce1126" transform="matrix(1.23205 0 0 1.22998 -55.916 -40.086)"/><path d="m319.1 208.6-79 .7-.1 131.5c.1-.7 5-5.2 11-7.7 6.6-2.8 14.7-4.9 24.9-6.4 35.3-2.3 40.4-29.4 40.4-29.4 4.7-9.7 2.2-29.5 3-44.6z" clip-path="url(#s)" style="fill:none;stroke:#ce1126;stroke-width:.30000001" transform="matrix(1.23205 0 0 1.22998 -55.916 -40.086)"/><path d="M279.8 210.1c0 27.4-17.8 49.6-39.9 49.6-22 0-39.9-22.2-39.9-49.6s17.8-49.6 39.9-49.6 39.9 22.2 39.9 49.6" clip-path="url(#s)" style="fill:#fff" transform="matrix(1.23205 0 0 1.22998 -55.916 -40.086)"/><path d="M279.8 210.1c0 27.4-17.8 49.6-39.9 49.6-22 0-39.9-22.2-39.9-49.6s17.8-49.6 39.9-49.6 39.9 22.2 39.9 49.6z" clip-path="url(#s)" style="fill:none;stroke:#d4af00;stroke-width:1.17309999;stroke-opacity:1" transform="matrix(1.23205 0 0 1.22998 -55.916 -40.086)"/><g style="stroke:#d4af37;stroke-width:.69999999;stroke-miterlimit:4;stroke-opacity:1;stroke-dasharray:none"><path d="m230.9 195.2-5.5-9.4-3.1-.4 7.5 10.6zm-4.3 4.3-11.5-8.8-.4-5.1 4.6-.1 9.5 11.6zm-1.7 2-9.4-5.3-.4-3.1 10.7 7.3z" clip-path="url(#s)" style="fill:#fcd116;stroke:#d4af37;stroke-width:.69999999;stroke-miterlimit:4;stroke-opacity:1;stroke-dasharray:none" transform="matrix(1.23205 0 0 1.22998 -55.916 -40.086)"/><path d="m244.4 193.2 2.8-15.2-1.9-3.6-2.3 18.5zm-6 0-1.8-20.8 3.4-5.7 3.4 4.6-1.6 21.6zm-2.7.3-2.8-15.2 2-3.6 2.3 18.5z" clip-path="url(#s)" style="fill:#fcd116;stroke:#d4af37;stroke-width:.69999999;stroke-miterlimit:4;stroke-opacity:1;stroke-dasharray:none" transform="matrix(1.23205 0 0 1.22998 -55.916 -40.086)"/><path d="m257.1 214.8 10.5 2.8 2.5-1.9-12.8-2.3zm0-6 14.4-1.8 3.9 3.4-3.2 3.4-14.9-1.6zm-.2-2.6 10.5-2.8 2.5 2-12.8 2.3z" clip-path="url(#s)" style="fill:#fcd116;stroke:#d4af37;stroke-width:.69999999;stroke-miterlimit:4;stroke-opacity:1;stroke-dasharray:none" transform="matrix(1.23205 0 0 1.22998 -55.916 -40.086)"/><path d="m249.1 225.5 5.5 9.4 3.1.4-7.5-10.6zm4.2-4.3 11.5 8.8.4 5.1-4.6.2-9.5-11.6zm1.7-2 9.5 5.3.4 3.1-10.8-7.3z" clip-path="url(#s)" style="fill:#fcd116;stroke:#d4af37;stroke-width:.69999999;stroke-miterlimit:4;stroke-opacity:1;stroke-dasharray:none" transform="matrix(1.23205 0 0 1.22998 -55.916 -40.086)"/><path d="m224.7 219.3-9.4 5.4-.4 3.1 10.7-7.4zm4.2 4.3L220 235l-5.2.4-.1-4.6 11.7-9.4zm2.1 1.7-5.4 9.4-3.1.4 7.4-10.6z" clip-path="url(#s)" style="fill:#fcd116;stroke:#d4af37;stroke-width:.69999999;stroke-miterlimit:4;stroke-opacity:1;stroke-dasharray:none" transform="matrix(1.23205 0 0 1.22998 -55.916 -40.086)"/><path d="m222.8 206-10.5-2.8-2.5 2 12.8 2.2zm.1 6.1-14.4 1.8-3.9-3.3 3.2-3.4 14.9 1.5zm.2 2.6-10.5 2.9-2.5-1.9 12.8-2.4z" clip-path="url(#s)" style="fill:#fcd116;stroke:#d4af37;stroke-width:.69999999;stroke-miterlimit:4;stroke-opacity:1;stroke-dasharray:none" transform="matrix(1.23205 0 0 1.22998 -55.916 -40.086)"/><path d="m235.7 227-2.8 15.2 1.9 3.6 2.3-18.5zm6.1 0 1.8 20.8-3.4 5.7-3.4-4.6 1.6-21.6zm2.7-.2 2.8 15.2-2 3.6L243 227z" clip-path="url(#s)" style="fill:#fcd116;stroke:#d4af37;stroke-width:.69999999;stroke-miterlimit:4;stroke-opacity:1;stroke-dasharray:none" transform="matrix(1.23205 0 0 1.22998 -55.916 -40.086)"/><path d="m255.4 201.7 9.5-5.2.4-3.1-10.8 7.2m-3.3-3.2 9.1-11.2 5.2-.3v4.6l-11.8 9.2m-4.5-4.1 5.6-9.3 3.1-.3-7.6 10.5" clip-path="url(#s)" style="fill:#fcd116;stroke:#d4af37;stroke-width:.69999999;stroke-miterlimit:4;stroke-opacity:1;stroke-dasharray:none" transform="matrix(1.23205 0 0 1.22998 -55.916 -40.086)"/><path d="M240.1 192.1c10 0 18.2 8.1 18.2 18.2 0 10-8.1 18.2-18.2 18.2s-18.2-8.1-18.2-18.2c0-10 8.1-18.2 18.2-18.2" clip-path="url(#s)" style="fill:#fcd116;stroke:#d4af37;stroke-width:.69999999;stroke-miterlimit:4;stroke-opacity:1;stroke-dasharray:none" transform="matrix(1.23205 0 0 1.22998 -55.916 -40.086)"/></g><path d="M240.1 107.5c-11.5 15.6-28.4 25.6-53.3 14.1-8.9 13.2-13.2 27.9-42.8 34.7 16.4 14.5 16.4 28.1 16.1 53.9.2 23.4.4 50.6.4 71.7-.8 13.1 9 40.6 34.8 43.7 42.9 5 44.6 16.3 44.6 16.3s1.7-11.3 44.6-16.3c25.8-3 35.5-30.6 34.8-43.7.1-21.2.2-48.3.4-71.7-.3-25.8-.3-39.4 16.1-53.9-29.6-6.8-34-21.7-42.9-35-24.7 11.9-41.7 1.3-52.8-13.8z" clip-path="url(#s)" style="fill:none;stroke:#c5b358;stroke-width:3;stroke-miterlimit:4;stroke-opacity:1;stroke-dasharray:none" transform="matrix(1.23205 0 0 1.22998 -55.916 -40.086)"/><path d="m381.429 299.148-8.028 6.065 3.287 9.51-8.25-5.761-8.028 6.064 2.93-9.625-8.249-5.761 10.06-.189 2.93-9.625 3.288 9.51z" style="fill:none;stroke:#d4af37;stroke-width:1;stroke-linecap:butt;stroke-linejoin:miter;stroke-miterlimit:4;stroke-opacity:1;stroke-dasharray:none;stroke-dashoffset:0" transform="matrix(1.29763 .04524 -.04567 1.3055 -224.623 -283.384)"/><path d="m381.429 299.148-7.127 6.34 2.386 9.234-8.232-4.819-8.046 5.123 2.04-9.317-7.359-6.07 9.492-.939 3.498-8.874 3.827 8.737z" style="fill:#fcd116;fill-opacity:1;stroke:#d4af37;stroke-width:1;stroke-linecap:butt;stroke-linejoin:miter;stroke-miterlimit:4;stroke-opacity:1;stroke-dasharray:none;stroke-dashoffset:0" transform="matrix(1.29763 .04524 -.04567 1.3055 -224.623 -283.384)"/><path d="m368.081 289.826.259 13.847 13.089-4.525M355.091 299.64zM355.091 299.64l13.249 4.033 8.348 11.05M368.34 303.673l-7.93 11.353M368.456 309.903l-.116-6.23" style="fill:none;stroke:#d4af37;stroke-width:1px;stroke-linecap:butt;stroke-linejoin:miter;stroke-opacity:1" transform="matrix(1.29763 .04524 -.04567 1.3055 -224.623 -283.384)"/><path d="m368.34 303.673 3.568-5.11M368.34 303.673l-3.757-4.973M362.45 305.709l5.89-2.036 5.962 1.814" style="fill:none;stroke:#d4af37;stroke-width:.5;stroke-linecap:butt;stroke-linejoin:miter;stroke-miterlimit:4;stroke-opacity:1;stroke-dasharray:none" transform="matrix(1.29763 .04524 -.04567 1.3055 -224.623 -283.384)"/><path d="m381.429 299.148-8.028 6.065 3.287 9.51-8.25-5.761-8.028 6.064 2.93-9.625-8.249-5.761 10.06-.189 2.93-9.625 3.288 9.51z" style="fill:none;stroke:#d4af37;stroke-width:1;stroke-linecap:butt;stroke-linejoin:miter;stroke-miterlimit:4;stroke-opacity:1;stroke-dasharray:none;stroke-dashoffset:0" transform="matrix(1.29763 .04524 -.04567 1.3055 -296.821 -233.57)"/><path d="m381.429 299.148-7.127 6.34 2.386 9.234-8.232-4.819-8.046 5.123 2.04-9.317-7.359-6.07 9.492-.939 3.498-8.874 3.827 8.737z" style="fill:#fcd116;fill-opacity:1;stroke:#d4af37;stroke-width:1;stroke-linecap:butt;stroke-linejoin:miter;stroke-miterlimit:4;stroke-opacity:1;stroke-dasharray:none;stroke-dashoffset:0" transform="matrix(1.29763 .04524 -.04567 1.3055 -296.821 -233.57)"/><path d="m368.081 289.826.259 13.847 13.089-4.525M355.091 299.64zM355.091 299.64l13.249 4.033 8.348 11.05M368.34 303.673l-7.93 11.353M368.456 309.903l-.116-6.23" style="fill:none;stroke:#d4af37;stroke-width:1px;stroke-linecap:butt;stroke-linejoin:miter;stroke-opacity:1" transform="matrix(1.29763 .04524 -.04567 1.3055 -296.821 -233.57)"/><path d="m368.34 303.673 3.568-5.11M368.34 303.673l-3.757-4.973M362.45 305.709l5.89-2.036 5.962 1.814" style="fill:none;stroke:#d4af37;stroke-width:.5;stroke-linecap:butt;stroke-linejoin:miter;stroke-miterlimit:4;stroke-opacity:1;stroke-dasharray:none" transform="matrix(1.29763 .04524 -.04567 1.3055 -296.821 -233.57)"/><path d="m381.429 299.148-8.028 6.065 3.287 9.51-8.25-5.761-8.028 6.064 2.93-9.625-8.249-5.761 10.06-.189 2.93-9.625 3.288 9.51z" style="fill:none;stroke:#d4af37;stroke-width:1;stroke-linecap:butt;stroke-linejoin:miter;stroke-miterlimit:4;stroke-opacity:1;stroke-dasharray:none;stroke-dashoffset:0" transform="matrix(1.29763 .04524 -.04567 1.3055 -152.302 -233.57)"/><path d="m381.429 299.148-7.127 6.34 2.386 9.234-8.232-4.819-8.046 5.123 2.04-9.317-7.359-6.07 9.492-.939 3.498-8.874 3.827 8.737z" style="fill:#fcd116;fill-opacity:1;stroke:#d4af37;stroke-width:1;stroke-linecap:butt;stroke-linejoin:miter;stroke-miterlimit:4;stroke-opacity:1;stroke-dasharray:none;stroke-dashoffset:0" transform="matrix(1.29763 .04524 -.04567 1.3055 -152.302 -233.57)"/><path d="m368.081 289.826.259 13.847 13.089-4.525M355.091 299.64zM355.091 299.64l13.249 4.033 8.348 11.05M368.34 303.673l-7.93 11.353M368.456 309.903l-.116-6.23" style="fill:none;stroke:#d4af37;stroke-width:1px;stroke-linecap:butt;stroke-linejoin:miter;stroke-opacity:1" transform="matrix(1.29763 .04524 -.04567 1.3055 -152.302 -233.57)"/><path d="m368.34 303.673 3.568-5.11M368.34 303.673l-3.757-4.973M362.45 305.709l5.89-2.036 5.962 1.814" style="fill:none;stroke:#d4af37;stroke-width:.5;stroke-linecap:butt;stroke-linejoin:miter;stroke-miterlimit:4;stroke-opacity:1;stroke-dasharray:none" transform="matrix(1.29763 .04524 -.04567 1.3055 -152.302 -233.57)"/><path d="M-31.567 358.347c-10.525-83.923 46.985-160.746 128.455-171.589 81.469-10.843 156.045 48.4 166.571 132.323 3.012 24.013.456 48.42-7.457 71.218" style="color:#000;fill:none;stroke:none;stroke-width:1;marker:none;visibility:visible;display:inline;overflow:visible" transform="matrix(1.27319 0 0 1.23596 92.448 -178.666)"/><g style="font-size:60px;font-style:normal;font-variant:normal;font-weight:700;font-stretch:normal;text-align:start;line-height:0%;letter-spacing:1.20000005px;word-spacing:0;writing-mode:lr-tb;text-anchor:start;fill:#cfb53b;fill-opacity:1;stroke:#0038a8;stroke-width:1.5;stroke-linecap:butt;stroke-linejoin:miter;stroke-miterlimit:4;stroke-opacity:1;font-family:United Sans Cd Hv;-inkscape-font-specification:United Sans Cd Hv Bold"><path d="m166.72 427.246-.588-7.958-23.673 8.55-17.591-5.197.57 7.719 22.026 5.77-21.481 1.59.566 7.659 41.287-3.054-.566-7.66-8.138.603-8.984-2.705zM166.124 417.714l.26-7.255-9.55-1.543.24-6.716 9.637-.855.273-7.615-41.601 4.873-.404 11.273zm-36.033-13.118 20.597-1.784-.182 5.097zM168.063 385.657l1.696-11.577-4.256-5.717-17.097-2.505-1.653 11.28 6.47.947.531-3.62 7.837 1.147 1.418 1.906-.426 2.909-1.906 1.419-25.17-3.688-1.479-1.915.418-2.85 1.965-1.41 4.393.644 1.122-7.658-7.42-1.087-5.718 4.256-1.687 11.517 4.256 5.717 30.988 4.54zM170.993 366.356l1.833-7.025-8.985-3.586 1.697-6.502 9.592 1.264 1.924-7.373-41.663-4.303-2.85 10.915zm-32.312-20.65 20.491 2.744-1.288 4.934zM178.834 337.533l3.603-8.833-29.597-16.086 32.451 9.085 3.534-8.667-36.59-19.91-2.402 5.89 29.906 14.851-32.171-9.296-3.806 9.334 29.498 15.851-31.764-10.295-2.74 6.722zM191.48 307.762l3.597-6.306-7.744-5.798 3.33-5.838 8.933 3.714 3.775-6.619-39.112-14.987-5.588 9.798zm-25.83-28.34 19.072 7.977-2.527 4.43zM205.28 284.094l4.546-6.264-13.693-9.938 1.762-2.428 16.16 6.54 4.582-6.313-17.087-6.693-.87-5.747-11.751-8.529-7.04 1.119-10.114 13.936zm-13.955-19.691-10.197-7.401 2.996-4.127 2.395-.338 7.38 5.357.422 2.382zM219.897 264.147l4.88-5.375-6.3-7.342 4.517-4.975 7.914 5.565 5.122-5.642-34.925-23.12-7.583 8.35zm-19.062-33.274 16.886 11.929-3.429 3.775zM238.492 244.024l5.132-4.522-16.46-18.683 23.032 12.892 4.908-4.323-27.368-31.063-5.133 4.521 16.183 18.368-22.755-12.577-4.907 4.324zM267.662 219.986l5.787-3.646-13.276-21.066 20.687 16.395 5.532-3.487-22.072-35.024-5.787 3.647 13.052 20.71-20.463-16.04-5.532 3.487zM295.453 203.523l10.546-5.066 2.36-6.725-7.482-15.576-10.276 4.936 2.832 5.895 3.3-1.585 3.429 7.14-.787 2.241-2.65 1.273-2.242-.787-11.016-22.93.761-2.297 2.596-1.247 2.268.841 1.922 4.002 6.977-3.351-3.247-6.76-6.726-2.361-10.492 5.04-2.36 6.725 13.561 28.231zM329.373 189.468l7.339-2.265-10.156-32.908 6.765-2.088-2.052-6.65-20.811 6.422 2.052 6.65 6.708-2.07zM344.779 184.73l7.12-1.422-.705-9.649 6.59-1.316 3.057 9.178 7.473-1.493-14.348-39.35-11.061 2.21zm4.444-38.088 6.491 19.629-5.001.999zM371.693 179.598l6.814-.594-2.163-24.806 10.89 24.045 6.515-.569-3.597-41.242-6.814.594 2.127 24.387-10.854-23.626-6.515.568zM403.936 177.663l11.696.306 5.17-4.906.453-17.274-11.396-.298-.172 6.537 3.659.096-.207 7.917-1.724 1.636-2.939-.077-1.635-1.724.666-25.43 1.725-1.696 2.879.075 1.634 1.784-.116 4.438 7.737.203.196-7.497-4.906-5.17-11.636-.305-5.17 4.906-.82 31.309zM430.168 179.18l11.589 1.607 5.684-4.3 2.373-17.116-11.291-1.566-.899 6.478 3.626.502-1.088 7.845-1.895 1.434-2.912-.404-1.433-1.895 3.494-25.199 1.903-1.492 2.853.395 1.425 1.955-.61 4.397 7.666 1.063 1.03-7.428-4.3-5.685-11.529-1.599-5.684 4.3-4.302 31.023zM456.242 183.653l10.986 2.81 6.132-3.634 9.009-35.226-7.44-1.903-8.207 32.087-2.102 1.196-2.5-.64-1.269-2.058 8.207-32.087-7.44-1.903-9.01 35.226zM477.17 189.446l15.61 5.704 2.327-6.368-8.34-3.048 11.88-32.517-7.27-2.656zM494.473 195.713l6.546 3.138 5.232-8.138 6.06 2.905-3.068 9.176 6.87 3.294 12.163-40.08-10.171-4.877zm26.428-27.785-6.598 19.592-4.6-2.204zM519.073 207.775l5.8 3.625 13.194-21.117-5.764 25.758 5.546 3.466 21.937-35.11-5.801-3.625-12.971 20.761 5.542-25.402-5.546-3.466zM545.99 225.63l9.16 7.28 7.082-.81 10.751-13.528-8.924-7.093-4.07 5.12 2.866 2.278-4.928 6.2-2.36.27-2.302-1.83-.27-2.36 15.828-19.916 2.398-.317 2.255 1.792.232 2.408-2.762 3.475 6.06 4.816 4.666-5.871-.81-7.082-9.113-7.242-7.08.81-19.488 24.519zM570.089 246.331l5.259 5.679 11.094-10.273 6.033 6.515 7.122.274 11.887-11.007.273-7.122-11.292-12.195zm20.71-8.63 10.566-9.784 3.058 3.302-.135 2.415-8.057 7.46-2.374-.091zM586.116 263.758l4.331 5.826 8.42-4.764 4.01 5.393-6.989 6.69 4.546 6.115 29.43-29.803-6.73-9.053zm36.327-12.279-14.964 14.265-3.042-4.093zM602.555 285.796l3.05 5.512 30.502-16.876-27.917 21.549 3.98 7.192 33.086-12.204-30.501 16.877 3.456 6.247 36.225-20.043-5.694-10.29-31.129 12.15 26.801-19.972-5.635-10.185zM620.152 319.151l6.066 15.73 6.516 2.89 11.252-4.34 2.373-5.353 5.353 2.373 10.244-3.95 2.889-6.517-6.067-15.73zm8.55 4.998 11.14-4.297 1.62 4.199-1.156 2.504-7.726 2.98-2.172-.964zm16.85-6.499 10.245-3.95 1.706 4.422-.963 2.172-6.83 2.634-2.538-1.08zM628.942 342.266l1.85 7.02 9.588-1.285 1.712 6.498-8.977 3.607 1.942 7.368 38.412-16.699-2.874-10.908zm38.287 2.135-19.2 7.665-1.3-4.931zM635.687 368.822l1 6.766 24.632-3.64-23.352 12.306.956 6.47 40.954-6.051-1-6.767-24.216 3.578 22.936-12.244-.956-6.47zM639.51 400.353l.407 11.513 5.214 4.859 14.99-.53 4.108-4.408-.289-8.155 1.273-1.365 7.675-.272 1.8 1.678.09 2.518-1.68 1.74-4.317.153.273 7.735 7.375-.26 4.86-5.215-.4-11.273-5.214-4.859-14.69.52-4.108 4.407.287 8.095-1.273 1.366-8.035.284-1.738-1.62-.098-2.758 1.618-1.798 4.377-.155-.271-7.675-7.376.26zM640.112 419.468l-.52 7.241 9.49 1.885-.482 6.703-9.662.509-.546 7.6 41.75-3.376.808-11.251zm35.539 14.404-20.648 1.043.366-5.087z" style="letter-spacing:.5px;stroke:#0038a8" transform="matrix(.8 0 0 .8 -82.446 -91.607)"/></g><path d="M155.966 829.587c-31.558 65.35-102.073 88.165-157.501 50.958-23.444-15.737-41.475-40.653-50.965-70.426" style="color:#000;fill:none;stroke:none;stroke-width:.45020309;marker:none;visibility:visible;display:inline;overflow:visible" transform="matrix(-1.92948 0 0 1.63652 347.359 -1007.417)"/><g style="font-size:60px;font-style:normal;font-variant:normal;font-weight:700;font-stretch:normal;text-align:start;line-height:0%;letter-spacing:4.5px;word-spacing:0;writing-mode:lr-tb;text-anchor:start;fill:#cfb53b;fill-opacity:1;stroke:#0038a8;stroke-width:1.5;stroke-miterlimit:4;stroke-opacity:1;font-family:United Sans Cd Hv;-inkscape-font-specification:United Sans Cd Hv Bold"><path d="m162.144 554.525 4.137 6.541 14.3-9.044 1.603 2.535-12.054 12.594 4.17 6.592 12.54-13.398 5.66 1.318 12.271-7.762 1.566-6.953-9.205-14.553zm23.457-5.678 10.648-6.736 2.726 4.31-.572 2.35-7.708 4.875-2.368-.49zM179.07 580.198l11.317 14.381 5.328-4.193-6.53-8.298 8.581-6.753 5.863 7.45 5.328-4.193-5.863-7.45 7.969-6.27 6.456 8.204 5.328-4.193-11.242-14.287zM195.942 600.985l5.38 5.565 10.87-10.51 6.172 6.384 7.127.12 11.646-11.261.12-7.127-11.552-11.948zm20.52-9.074 10.352-10.01 3.128 3.236-.083 2.417-7.893 7.632-2.376-.04zM220.722 625.14l8.723 7.245 7.098-.657 23.231-27.97-5.908-4.907-21.161 25.478-2.412.18-1.985-1.648-.265-2.404 21.161-25.478-5.907-4.907-23.232 27.97zM240.837 641.17l14.08 9.272 6.982-1.438 6.632-10.072-1.18-5.735 5.734-1.18 6.038-9.17-1.437-6.982-14.081-9.272zm9.863-.905 6.566-9.973 3.759 2.475.514 2.71-4.553 6.915-2.327.48zm9.932-15.084 6.038-9.17 3.96 2.607.478 2.327-4.025 6.113-2.693.598zM266.856 657.554l14.717 7.72 3.15-6.003-7.864-4.126 16.084-30.656-6.854-3.596zM287.403 667.989l15.658 6.568 2.275-5.422-4.26-1.787 11.464-27.333 4.26 1.787 2.275-5.422-15.658-6.568-2.274 5.422 4.26 1.787-11.465 27.333-4.26-1.787zM325.059 681.88l7.623 2.36.69-25.161 11.263-14.477-7.394-2.289-13.418 18.396 6.368-20.577-7.337-2.27-12.24 39.548 7.337 2.27 2.413-7.795 5.8-7.375zM338.091 685.573l7.125 1.392 3.018-9.192 6.596 1.288-.663 9.652 7.479 1.461 1.694-41.85-11.07-2.163zm18.594-33.537-1.46 20.622-5.006-.977zM383.153 692.543l6.836.225.82-24.886 7.935 25.175 6.536.216 1.365-41.377-6.836-.226-.807 24.467-7.948-24.756-6.537-.215zM419.45 692.654l11.664-.915 4.63-5.419-1.351-17.227-11.365.892.511 6.52 3.649-.286.62 7.895-1.544 1.807-2.93.23-1.807-1.544-1.99-25.361 1.538-1.867 2.872-.225 1.81 1.603.348 4.427 7.716-.606-.587-7.477-5.419-4.63-11.604.91-4.63 5.42 2.45 31.223zM458.888 687.643l7.522-1.826-3.567-14.693 8.63-2.095 3.708-6.086-3.822-15.743-6.086-3.709-16.151 3.921zm2.554-22.291-3.397-13.994 4.373-1.061 2.043 1.294 2.59 10.67-1.236 2.03zM486.292 680.508l16.04-5.573-1.93-5.554-4.365 1.516-9.729-27.997 4.364-1.517-1.93-5.554-16.039 5.574 1.93 5.554 4.364-1.517 9.73 27.998-4.365 1.516zM509.76 671.94l15.17-6.787-2.769-6.189-8.105 3.626-14.138-31.6-7.065 3.16zM530.67 662.252l14.852-8.23-2.85-5.143-4.041 2.24-14.366-25.926 4.041-2.24-2.85-5.143-14.852 8.23 2.85 5.143 4.041-2.239 14.366 25.926-4.041 2.239zM552.38 649.878l6.382-4.38-8.554-12.467 7.322-5.024 1.304-7.007-9.165-13.358-7.008-1.304-13.704 9.403zm-5.533-21.744L538.7 616.26l3.71-2.546 2.37.484 6.212 9.054-.434 2.336zM575.463 633.475l13.02-10.9-3.776-4.509-3.542 2.966-19.028-22.725 3.543-2.966-3.775-4.508-13.02 10.9 3.776 4.509 3.542-2.966L575.23 626l-3.542 2.966zM594.451 617.225l4.785-4.888-17.795-17.417 23.922 11.157 4.575-4.674-29.586-28.959-4.785 4.889 17.495 17.123-23.622-10.863-4.575 4.673zM614.862 595.866l4.482-5.711-6.811-6.87 4.148-5.287 8.293 4.982 4.704-5.995-36.495-20.554-6.963 8.874zm-21.401-31.819 17.698 10.685-3.148 4.012zM636.078 567.31l6.119-9.76-1.593-6.947-12.709-7.968-5.872 1.347-4.334 6.913-1.82.417-6.507-4.08-.55-2.398 1.34-2.135 2.366-.499 3.66 2.295 4.111-6.558-6.252-3.92-6.948 1.593-5.991 9.557 1.592 6.947 12.455 7.809 5.872-1.347 4.303-6.862 1.82-.418 6.81 4.271.532 2.316-1.466 2.338-2.348.582-3.71-2.326-4.08 6.506 6.252 3.92z" style="font-size:60px;letter-spacing:4.5px;fill:#cfb53b;fill-opacity:1;stroke:#0038a8;stroke-width:1.5;stroke-miterlimit:4;stroke-opacity:1" transform="matrix(.8 0 0 .8 -82.446 -91.607)"/></g><path d="m74.034 353.763-5.964-2.81-5.224 4.022.83-6.54-5.44-3.725 6.477-1.232 1.862-6.325 3.173 5.78 6.59-.185-4.516 4.804z" style="fill:#fcd116;fill-opacity:1;stroke:#d4af37;stroke-width:.66445488;stroke-linecap:butt;stroke-linejoin:miter;stroke-miterlimit:4;stroke-opacity:1;stroke-dasharray:none;stroke-dashoffset:0" transform="rotate(1.255 8360.21 24544.114)scale(-1.40016 1.40016)"/><path d="m73.129 338.686 7.369 12.38 13.238 5.683" style="fill:none;stroke:#d4af37;stroke-width:1px;stroke-linecap:butt;stroke-linejoin:miter;stroke-opacity:1" transform="matrix(-.8543 .36837 .36837 .8543 373.57 -23.525)"/><path d="m89.994 340.231-9.496 10.834-14.05 3.183M79.183 365.412l1.315-14.347" style="fill:none;stroke:#d4af37;stroke-width:1px;stroke-linecap:butt;stroke-linejoin:miter;stroke-opacity:1" transform="matrix(-.8543 .36837 .36837 .8543 373.57 -23.525)"/><path d="m76.225 355.94 4.273-4.875 6.323-1.432" style="fill:none;stroke:#d4af37;stroke-width:.5;stroke-linecap:butt;stroke-linejoin:miter;stroke-miterlimit:4;stroke-opacity:1;stroke-dasharray:none" transform="matrix(-.8543 .36837 .36837 .8543 373.57 -23.525)"/><path d="m81.09 344.61-.592 6.455-5.957-2.557M83.814 356.636l-3.316-5.57" style="fill:none;stroke:#d4af37;stroke-width:.5;stroke-linecap:butt;stroke-linejoin:miter;stroke-miterlimit:4;stroke-opacity:1;stroke-dasharray:none" transform="matrix(-.8543 .36837 .36837 .8543 373.57 -23.525)"/><path d="m74.034 353.763-5.964-2.81-5.224 4.022.83-6.54-5.44-3.725 6.477-1.232 1.862-6.325 3.173 5.78 6.59-.185-4.516 4.804z" style="fill:#fcd116;fill-opacity:1;stroke:#d4af37;stroke-width:.66445488;stroke-linecap:butt;stroke-linejoin:miter;stroke-miterlimit:4;stroke-opacity:1;stroke-dasharray:none;stroke-dashoffset:0" transform="rotate(-7.743 -1260.936 774.226)scale(1.40016)"/><path d="m73.129 338.686 7.369 12.38 13.238 5.683" style="fill:none;stroke:#d4af37;stroke-width:1px;stroke-linecap:butt;stroke-linejoin:miter;stroke-opacity:1" transform="rotate(16.837 130.81 209.576)scale(.93034)"/><path d="m89.994 340.231-9.496 10.834-14.05 3.183M79.183 365.412l1.315-14.347" style="fill:none;stroke:#d4af37;stroke-width:1px;stroke-linecap:butt;stroke-linejoin:miter;stroke-opacity:1" transform="rotate(16.837 130.81 209.576)scale(.93034)"/><path d="m76.225 355.94 4.273-4.875 6.323-1.432" style="fill:none;stroke:#d4af37;stroke-width:.5;stroke-linecap:butt;stroke-linejoin:miter;stroke-miterlimit:4;stroke-opacity:1;stroke-dasharray:none" transform="rotate(16.837 130.81 209.576)scale(.93034)"/><path d="m81.09 344.61-.592 6.455-5.957-2.557M83.814 356.636l-3.316-5.57" style="fill:none;stroke:#d4af37;stroke-width:.5;stroke-linecap:butt;stroke-linejoin:miter;stroke-miterlimit:4;stroke-opacity:1;stroke-dasharray:none" transform="rotate(16.837 130.81 209.576)scale(.93034)"/></svg>