<?xml version="1.0" encoding="UTF-8"?>
<svg xmlns="http://www.w3.org/2000/svg" xmlns:xlink="http://www.w3.org/1999/xlink" width="659.97pt" height="179.17pt" viewBox="0 0 659.97 179.17" version="1.1">
<defs>
<clipPath id="clip1">
  <path d="M 649 73 L 659.96875 73 L 659.96875 81 L 649 81 Z M 649 73 "/>
</clipPath>
<clipPath id="clip2">
  <path d="M 247 74 L 333 74 L 333 179.171875 L 247 179.171875 Z M 247 74 "/>
</clipPath>
</defs>
<g id="surface1">
<path style=" stroke:none;fill-rule:nonzero;fill:rgb(93.299866%,16.099548%,14.099121%);fill-opacity:1;" d="M 17.128906 45.066406 C 1.675781 45.027344 0.0351563 35.003906 0 30.722656 L 8.171875 30.722656 C 8.207031 32.753906 9.132813 37.5 16.523438 37.5 C 18.875 37.5 20.730469 37.144531 22.089844 36.464844 C 23.835938 35.539063 24.726563 34.074219 24.726563 32.078125 C 24.726563 28.9375 22.015625 28.007813 17.589844 26.867188 L 13.308594 25.832031 C 6.78125 24.191406 0.605469 22.65625 0.605469 13.199219 C 0.605469 11.34375 1 7.777344 3.425781 4.816406 C 6.066406 1.605469 10.277344 -0.00390625 15.984375 -0.00390625 C 21.445313 -0.00390625 25.585938 1.675781 28.367188 4.957031 C 31.222656 8.347656 31.578125 12.308594 31.578125 13.878906 L 23.445313 13.878906 C 23.230469 12.128906 22.695313 7.527344 15.378906 7.527344 C 13.59375 7.527344 11.953125 7.921875 10.777344 8.632813 C 9.3125 9.523438 8.5625 10.847656 8.5625 12.558594 C 8.5625 15.878906 11.132813 16.519531 12.703125 16.910156 L 22.371094 19.480469 C 27.832031 20.90625 32.863281 23.300781 32.863281 31.007813 C 32.863281 36.535156 30.6875 40.496094 26.296875 42.851563 C 22.695313 44.851563 18.660156 45.066406 17.128906 45.066406 "/>
<path style=" stroke:none;fill-rule:nonzero;fill:rgb(93.299866%,16.099548%,14.099121%);fill-opacity:1;" d="M 52.847656 43.925781 L 44.351563 43.925781 L 44.351563 8.847656 L 32.328125 8.847656 L 32.328125 1.140625 L 64.835938 1.140625 L 64.835938 8.847656 L 52.847656 8.847656 L 52.847656 43.925781 "/>
<path style=" stroke:none;fill-rule:nonzero;fill:rgb(93.299866%,16.099548%,14.099121%);fill-opacity:1;" d="M 189.046875 43.925781 L 158.679688 43.925781 L 158.644531 1.105469 L 188.082031 1.105469 L 188.082031 8.882813 L 166.996094 8.882813 L 166.996094 17.660156 L 186.371094 17.660156 L 186.371094 25.402344 L 166.996094 25.402344 L 166.996094 36.179688 L 189.046875 36.179688 L 189.046875 43.925781 "/>
<path style=" stroke:none;fill-rule:nonzero;fill:rgb(93.299866%,16.099548%,14.099121%);fill-opacity:1;" d="M 70.6875 27.617188 L 80.605469 27.617188 L 75.71875 10.953125 Z M 85.53125 43.925781 L 82.960938 35.144531 L 68.402344 35.144531 L 65.65625 43.925781 L 56.699219 43.925781 L 70.9375 1.140625 L 80.644531 1.140625 L 94.738281 43.925781 L 85.53125 43.925781 "/>
<path style=" stroke:none;fill-rule:nonzero;fill:rgb(93.299866%,16.099548%,14.099121%);fill-opacity:1;" d="M 105.050781 21.015625 L 112.6875 21.050781 C 118.785156 21.050781 118.785156 16.449219 118.785156 14.484375 C 118.785156 10.347656 116.683594 8.667969 111.578125 8.667969 L 105.050781 8.667969 Z M 105.050781 43.925781 L 96.59375 43.925781 L 96.558594 1.140625 L 114.824219 1.140625 C 122.496094 1.140625 127.28125 6.421875 127.28125 14.878906 C 127.28125 17.089844 126.636719 20.445313 124.925781 23.191406 C 122.675781 26.761719 119.179688 28.578125 114.507813 28.578125 L 105.050781 28.578125 L 105.050781 43.925781 "/>
<path style=" stroke:none;fill-rule:nonzero;fill:rgb(93.299866%,16.099548%,14.099121%);fill-opacity:1;" d="M 129.136719 39.179688 L 129.136719 7.882813 C 129.136719 3.53125 132.773438 -0.00390625 137.308594 -0.00390625 C 141.589844 -0.00390625 144.941406 2.960938 145.550781 7.136719 L 148.261719 21.085938 L 140.484375 22.585938 L 137.628906 7.8125 C 137.628906 7.8125 137.59375 7.632813 137.414063 7.632813 C 137.308594 7.671875 137.269531 7.777344 137.269531 7.847656 L 137.308594 36.179688 L 156.859375 36.179688 L 156.859375 43.925781 L 133.417969 43.925781 C 131.027344 43.925781 129.136719 41.496094 129.136719 39.179688 "/>
<path style=" stroke:none;fill-rule:nonzero;fill:rgb(93.299866%,16.099548%,14.099121%);fill-opacity:1;" d="M 222.230469 3.136719 L 222.765625 3.136719 C 223.195313 3.136719 223.621094 3.101563 223.621094 2.601563 C 223.621094 2.175781 223.230469 2.101563 222.910156 2.101563 L 222.230469 2.101563 Z M 221.730469 1.675781 L 222.980469 1.710938 C 223.765625 1.675781 224.121094 1.996094 224.121094 2.640625 C 224.121094 3.210938 223.765625 3.460938 223.265625 3.496094 L 224.195313 4.957031 L 223.65625 4.957031 L 222.765625 3.53125 L 222.230469 3.53125 L 222.230469 4.957031 L 221.730469 4.957031 L 221.730469 1.710938 "/>
<path style=" stroke:none;fill-rule:nonzero;fill:rgb(93.299866%,16.099548%,14.099121%);fill-opacity:1;" d="M 222.804688 0.960938 C 221.519531 0.960938 220.445313 2.03125 220.445313 3.316406 C 220.445313 4.636719 221.519531 5.671875 222.804688 5.671875 C 224.121094 5.671875 225.15625 4.636719 225.15625 3.316406 C 225.15625 2.03125 224.121094 0.960938 222.804688 0.960938 Z M 225.621094 3.316406 C 225.621094 4.851563 224.371094 6.136719 222.804688 6.136719 C 221.269531 6.136719 220.019531 4.851563 220.019531 3.316406 C 220.019531 1.78125 221.269531 0.53125 222.804688 0.53125 C 224.371094 0.53125 225.621094 1.78125 225.621094 3.316406 "/>
<path style=" stroke:none;fill-rule:nonzero;fill:rgb(93.299866%,16.099548%,14.099121%);fill-opacity:1;" d="M 207.566406 45.066406 C 192.152344 45.027344 190.472656 35.003906 190.472656 30.722656 L 198.609375 30.722656 C 198.679688 32.753906 199.574219 37.5 206.960938 37.5 C 209.3125 37.5 211.203125 37.144531 212.5625 36.464844 C 214.308594 35.539063 215.164063 34.074219 215.164063 32.078125 C 215.164063 28.9375 212.488281 28.007813 208.03125 26.867188 L 203.78125 25.832031 C 197.253906 24.191406 191.078125 22.65625 191.078125 13.199219 C 191.078125 11.34375 191.4375 7.777344 193.898438 4.816406 C 196.503906 1.605469 200.75 -0.00390625 206.425781 -0.00390625 C 211.882813 -0.00390625 216.058594 1.675781 218.804688 4.957031 C 221.695313 8.347656 222.015625 12.308594 222.054688 13.878906 L 213.882813 13.878906 C 213.703125 12.128906 213.132813 7.527344 205.816406 7.527344 C 204.03125 7.527344 202.429688 7.921875 201.214844 8.632813 C 199.75 9.523438 199.003906 10.847656 199.003906 12.558594 C 199.003906 15.878906 201.605469 16.519531 203.140625 16.910156 L 212.847656 19.480469 C 218.269531 20.90625 223.339844 23.300781 223.339844 31.007813 C 223.339844 36.535156 221.125 40.496094 216.773438 42.851563 C 213.132813 44.851563 209.136719 45.066406 207.566406 45.066406 "/>
<path style=" stroke:none;fill-rule:nonzero;fill:rgb(57.598877%,58.399963%,59.599304%);fill-opacity:1;" d="M 643.453125 78.597656 C 643.492188 79.640625 644.425781 79.976563 645.410156 79.976563 C 646.152344 79.976563 647.167969 79.808594 647.167969 78.914063 C 647.167969 78.003906 645.988281 77.851563 644.792969 77.589844 C 643.609375 77.328125 642.40625 76.949219 642.40625 75.578125 C 642.40625 74.152344 643.863281 73.558594 645.132813 73.558594 C 646.734375 73.558594 648.015625 74.054688 648.113281 75.78125 L 646.925781 75.78125 C 646.828125 74.878906 646.011719 74.585938 645.21875 74.585938 C 644.507813 74.585938 643.675781 74.785156 643.675781 75.496094 C 643.675781 76.339844 644.941406 76.480469 646.058594 76.734375 C 647.257813 77.003906 648.4375 77.382813 648.4375 78.769531 C 648.4375 80.457031 646.820313 81.003906 645.339844 81.003906 C 643.707031 81.003906 642.328125 80.363281 642.257813 78.597656 L 643.453125 78.597656 "/>
<g clip-path="url(#clip1)" clip-rule="nonzero">
<path style=" stroke:none;fill-rule:nonzero;fill:rgb(57.598877%,58.399963%,59.599304%);fill-opacity:1;" d="M 649.761719 73.722656 L 650.886719 73.722656 L 650.886719 74.769531 L 650.917969 74.769531 C 651.457031 73.96875 652.269531 73.558594 653.269531 73.558594 C 654.15625 73.558594 654.972656 73.898438 655.265625 74.769531 C 655.765625 74.007813 656.621094 73.558594 657.550781 73.558594 C 659.007813 73.558594 659.972656 74.152344 659.972656 75.625 L 659.972656 80.839844 L 658.777344 80.839844 L 658.777344 76.171875 C 658.777344 75.292969 658.539063 74.585938 657.367188 74.585938 C 656.21875 74.585938 655.464844 75.308594 655.464844 76.410156 L 655.464844 80.839844 L 654.269531 80.839844 L 654.269531 76.171875 C 654.269531 75.253906 653.976563 74.585938 652.90625 74.585938 C 651.480469 74.585938 650.957031 75.871094 650.957031 76.410156 L 650.957031 80.839844 L 649.761719 80.839844 L 649.761719 73.722656 "/>
</g>
<path style=" stroke:none;fill-rule:nonzero;fill:rgb(57.598877%,58.399963%,59.599304%);fill-opacity:1;" d="M 408.929688 119.96875 C 409.398438 130.6875 415.730469 137.789063 426.851563 137.789063 C 433.183594 137.789063 439.355469 134.917969 441.835938 129.183594 L 466.390625 129.183594 C 461.605469 147.304688 444.460938 155.15625 426.542969 155.15625 C 400.4375 155.15625 382.675781 139.753906 382.675781 113.480469 C 382.675781 89.464844 402.292969 72.246094 425.925781 72.246094 C 454.648438 72.246094 469.019531 93.386719 467.785156 119.96875 Z M 441.519531 105.617188 C 441.058594 96.863281 434.730469 89.613281 425.925781 89.613281 C 416.65625 89.613281 410.476563 96.109375 408.929688 105.617188 L 441.519531 105.617188 "/>
<path style=" stroke:none;fill-rule:nonzero;fill:rgb(57.598877%,58.399963%,59.599304%);fill-opacity:1;" d="M 529.25 103.207031 C 529.097656 96.558594 523.070313 91.875 516.429688 91.875 C 501.757813 91.875 499.433594 104.109375 499.433594 114.988281 C 499.433594 125.105469 503.917969 135.523438 515.035156 135.523438 C 524.148438 135.523438 528.78125 130.390625 530.019531 122.082031 L 555.515625 122.082031 C 553.1875 143.074219 536.507813 155.160156 515.195313 155.160156 C 491.097656 155.160156 473.183594 138.996094 473.183594 114.988281 C 473.183594 90.070313 489.394531 72.25 515.195313 72.25 C 535.121094 72.25 552.878906 82.519531 554.738281 103.207031 L 529.25 103.207031 "/>
<path style=" stroke:none;fill-rule:nonzero;fill:rgb(57.598877%,58.399963%,59.599304%);fill-opacity:1;" d="M 561.675781 45.066406 L 587.933594 45.066406 L 587.933594 85.234375 L 588.25 85.234375 C 592.269531 77.234375 603.074219 72.25 612.644531 72.25 C 639.371094 72.25 641.535156 91.273438 641.535156 102.601563 L 641.535156 152.890625 L 615.277344 152.890625 L 615.277344 114.988281 C 615.277344 104.257813 616.511719 93.390625 602.148438 93.390625 C 592.269531 93.390625 587.933594 101.542969 587.933594 110.152344 L 587.933594 152.890625 L 561.675781 152.890625 L 561.675781 45.066406 "/>
<path style=" stroke:none;fill-rule:nonzero;fill:rgb(74.099731%,79.998779%,16.499329%);fill-opacity:1;" d="M 43.582031 156.421875 C 31.003906 156.375 20.632813 151.128906 13.667969 144.867188 C 6.144531 137.835938 0.199219 126.3125 0.00390625 112.527344 C -0.125 101.679688 4.691406 89.335938 16.285156 80.523438 C 25.640625 73.242188 35.585938 70.882813 43.367188 70.921875 C 45.820313 70.921875 48.070313 71.144531 50.078125 71.460938 C 55.339844 72.308594 58.894531 77.15625 58.03125 82.292969 C 57.167969 87.433594 52.207031 90.910156 46.957031 90.070313 C 45.871094 89.898438 44.664063 89.777344 43.367188 89.785156 C 39.191406 89.835938 34.191406 90.785156 28.25 95.324219 C 21.269531 100.863281 19.429688 106.417969 19.296875 112.527344 C 19.097656 120.109375 23.722656 128.515625 26.757813 131.011719 C 30.609375 134.511719 36.828125 137.601563 43.582031 137.554688 C 47.144531 137.546875 50.996094 136.789063 55.273438 134.671875 C 59.640625 132.5 62.777344 129.5 64.820313 126.429688 C 66.882813 123.398438 67.707031 120.242188 67.691406 118.515625 C 67.746094 113.300781 72.109375 109.128906 77.4375 109.183594 C 82.761719 109.238281 87.039063 113.5 86.984375 118.707031 C 86.878906 124.832031 84.789063 130.964844 80.984375 136.730469 C 77.167969 142.460938 71.5 147.761719 64.015625 151.484375 C 57.144531 154.898438 50.140625 156.421875 43.605469 156.421875 L 43.582031 156.421875 "/>
<path style=" stroke:none;fill-rule:nonzero;fill:rgb(74.099731%,79.998779%,16.499329%);fill-opacity:1;" d="M 25.753906 124.636719 C 22.75 120.34375 23.875 114.472656 28.28125 111.53125 L 67 85.679688 C 71.40625 82.738281 77.40625 83.847656 80.40625 88.152344 C 83.410156 92.445313 82.277344 98.316406 77.878906 101.257813 L 39.160156 127.109375 C 37.496094 128.21875 35.601563 128.75 33.722656 128.75 C 30.648438 128.75 27.621094 127.316406 25.753906 124.636719 "/>
<path style=" stroke:none;fill-rule:nonzero;fill:rgb(74.099731%,79.998779%,16.499329%);fill-opacity:1;" d="M 92.769531 98.675781 C 93.238281 88.40625 98.183594 81.757813 105.28125 77.6875 C 112.386719 73.757813 121.660156 72.25 130.769531 72.25 C 149.769531 72.25 168.152344 76.324219 168.152344 98.523438 L 168.152344 132.808594 C 168.152344 139.445313 168.152344 146.695313 171.242188 152.894531 L 144.824219 152.894531 C 143.898438 150.476563 143.589844 148.058594 143.28125 145.492188 C 136.484375 152.433594 126.445313 155.160156 116.863281 155.160156 C 101.574219 155.160156 89.53125 147.609375 89.53125 131.445313 C 89.53125 105.921875 117.949219 107.890625 136.175781 104.261719 C 140.652344 103.355469 143.121094 101.851563 143.121094 97.019531 C 143.121094 91.125 135.863281 88.859375 130.460938 88.859375 C 123.203125 88.859375 118.570313 92.035156 117.332031 98.675781 Z M 126.753906 139.296875 C 139.265625 139.296875 143.433594 132.347656 142.8125 116.191406 C 139.105469 118.460938 132.316406 118.910156 126.601563 120.421875 C 120.730469 121.777344 115.785156 124.195313 115.785156 130.390625 C 115.785156 136.730469 120.882813 139.296875 126.753906 139.296875 "/>
<path style=" stroke:none;fill-rule:nonzero;fill:rgb(74.099731%,79.998779%,16.499329%);fill-opacity:1;" d="M 198.878906 127.066406 C 198.878906 130.996094 200.574219 133.863281 203.207031 135.820313 C 205.679688 137.636719 209.226563 138.546875 212.9375 138.546875 C 218.03125 138.546875 225.296875 136.433594 225.296875 130.234375 C 225.296875 124.199219 217.105469 122.988281 212.46875 121.933594 C 195.949219 117.851563 175.246094 117.402344 175.246094 96.261719 C 175.246094 77.382813 196.097656 72.246094 211.851563 72.246094 C 229.464844 72.246094 247.84375 77.230469 248.773438 97.617188 L 224.519531 97.617188 C 224.519531 94.296875 223.28125 92.179688 221.121094 90.828125 C 218.957031 89.464844 216.027344 88.863281 212.777344 88.863281 C 208.460938 88.863281 201.503906 89.3125 201.503906 94.75 C 201.503906 102.148438 219.117188 103.511719 231.160156 106.078125 C 247.378906 109.25 251.554688 120.71875 251.554688 127.21875 C 251.554688 148.207031 231.160156 155.15625 213.09375 155.15625 C 194.09375 155.15625 174.628906 148.964844 173.859375 127.066406 L 198.878906 127.066406 "/>
<path style=" stroke:none;fill-rule:nonzero;fill:rgb(57.598877%,58.399963%,59.599304%);fill-opacity:1;" d="M 378.664063 91.125 L 378.664063 74.515625 L 362.445313 74.515625 L 362.445313 50.804688 L 336.1875 50.804688 L 336.1875 74.515625 L 332.789063 74.515625 L 326.625 91.125 L 336.1875 91.125 L 336.1875 126.011719 C 336.1875 147.300781 341.898438 153.644531 364.300781 153.644531 C 369.085938 153.644531 373.871094 153.042969 378.664063 152.894531 L 378.664063 134.011719 C 376.351563 134.011719 374.027344 134.3125 371.867188 134.3125 C 366.144531 134.3125 362.445313 132.960938 362.445313 126.761719 L 362.445313 91.125 L 378.664063 91.125 "/>
<g clip-path="url(#clip2)" clip-rule="nonzero">
<path style=" stroke:none;fill-rule:nonzero;fill:rgb(74.099731%,79.998779%,16.499329%);fill-opacity:1;" d="M 332.789063 74.511719 L 305.914063 74.511719 L 290.78125 125.554688 L 290.472656 125.554688 L 275.332031 74.511719 L 247.527344 74.511719 L 268.230469 129.03125 C 269.769531 133.253906 274.863281 145.339844 274.863281 149.570313 C 274.863281 155.003906 270.386719 158.324219 264.363281 158.324219 L 255.253906 158.324219 L 255.253906 179.167969 L 267.613281 179.167969 C 285.371094 179.167969 294.789063 177.054688 301.128906 159.835938 L 326.625 91.125 L 332.789063 74.515625 L 332.789063 74.511719 "/>
</g>
</g>
</svg>
