<svg xmlns="http://www.w3.org/2000/svg" width="879.96" height="238.893" viewBox="0 0 659.97 179.17"><defs><clipPath id="a"><path d="M649 73h10.969v8H649Zm0 0"/></clipPath><clipPath id="b"><path d="M247 74h86v105.172h-86Zm0 0"/></clipPath></defs><path d="M17.129 45.066C1.676 45.027.035 35.004 0 30.723h8.172c.035 2.03.96 6.777 8.351 6.777 2.352 0 4.207-.355 5.567-1.035 1.746-.926 2.637-2.39 2.637-4.387 0-3.14-2.711-4.07-7.137-5.21l-4.281-1.036C6.78 24.192.605 22.656.605 13.199c0-1.855.395-5.422 2.82-8.383 2.641-3.21 6.852-4.82 12.56-4.82 5.46 0 9.6 1.68 12.382 4.961 2.856 3.39 3.211 7.352 3.211 8.922h-8.133c-.215-1.75-.75-6.352-8.066-6.352-1.785 0-3.426.395-4.602 1.106-1.464.89-2.214 2.215-2.214 3.926 0 3.32 2.57 3.96 4.14 4.351l9.668 2.57c5.461 1.426 10.492 3.82 10.492 11.528 0 5.527-2.175 9.488-6.566 11.844-3.602 2-7.637 2.214-9.168 2.214M52.848 43.926h-8.496V8.848H32.328V1.14h32.508v7.707H52.848zM189.047 43.926H158.68l-.035-42.82h29.437v7.777h-21.086v8.777h19.375v7.742h-19.375V36.18h22.05zM70.688 27.617h9.917L75.72 10.953ZM85.53 43.926l-2.57-8.781H68.402l-2.746 8.78H56.7L70.938 1.142h9.707l14.093 42.785zM105.05 21.016l7.638.035c6.097 0 6.097-4.602 6.097-6.567 0-4.136-2.101-5.816-7.207-5.816h-6.527Zm0 22.91h-8.456L96.559 1.14h18.265c7.672 0 12.457 5.28 12.457 13.738 0 2.21-.644 5.566-2.355 8.312-2.25 3.57-5.746 5.387-10.418 5.387h-9.457zM129.137 39.18V7.883c0-4.352 3.636-7.887 8.172-7.887 4.28 0 7.632 2.965 8.242 7.14l2.71 13.95-7.777 1.5-2.855-14.773s-.035-.18-.215-.18a.23.23 0 0 0-.144.215l.039 28.332h19.55v7.746h-23.441c-2.39 0-4.281-2.43-4.281-4.746M222.23 3.137h.536c.43 0 .855-.035.855-.535 0-.426-.39-.5-.71-.5h-.68Zm-.5-1.461 1.25.035c.786-.035 1.141.285 1.141.93 0 .57-.355.82-.855.855l.93 1.461h-.54l-.89-1.426h-.536v1.426h-.5V1.711" style="stroke:none;fill-rule:nonzero;fill:#ee2924;fill-opacity:1"/><path d="M222.805.96c-1.285 0-2.36 1.071-2.36 2.356a2.356 2.356 0 0 0 2.36 2.356 2.33 2.33 0 0 0 2.351-2.356 2.35 2.35 0 0 0-2.351-2.355m2.816 2.356c0 1.536-1.25 2.82-2.816 2.82-1.535 0-2.785-1.284-2.785-2.82a2.79 2.79 0 0 1 2.785-2.785c1.566 0 2.816 1.25 2.816 2.785M207.566 45.066c-15.414-.039-17.093-10.062-17.093-14.343h8.136c.07 2.03.965 6.777 8.352 6.777 2.351 0 4.242-.355 5.601-1.035 1.747-.926 2.602-2.39 2.602-4.387 0-3.14-2.676-4.07-7.133-5.21l-4.25-1.036c-6.527-1.64-12.703-3.176-12.703-12.633 0-1.855.36-5.422 2.82-8.383 2.606-3.21 6.852-4.82 12.528-4.82 5.457 0 9.633 1.68 12.379 4.961 2.89 3.39 3.21 7.352 3.25 8.922h-8.172c-.18-1.75-.75-6.352-8.067-6.352-1.785 0-3.386.395-4.601 1.106-1.465.89-2.211 2.215-2.211 3.926 0 3.32 2.601 3.96 4.137 4.351l9.707 2.57c5.422 1.426 10.492 3.82 10.492 11.528 0 5.527-2.215 9.488-6.567 11.844-3.64 2-7.636 2.214-9.207 2.214" style="stroke:none;fill-rule:nonzero;fill:#ee2924;fill-opacity:1"/><path d="M643.453 78.598c.04 1.043.973 1.379 1.957 1.379.742 0 1.758-.168 1.758-1.063 0-.91-1.18-1.062-2.375-1.324-1.184-.262-2.387-.64-2.387-2.012 0-1.426 1.457-2.02 2.727-2.02 1.601 0 2.883.497 2.98 2.223h-1.187c-.098-.902-.914-1.195-1.707-1.195-.711 0-1.543.2-1.543.91 0 .844 1.265.984 2.383 1.238 1.199.27 2.379.649 2.379 2.036 0 1.687-1.618 2.234-3.098 2.234-1.633 0-3.012-.64-3.082-2.406z" style="stroke:none;fill-rule:nonzero;fill:#939598;fill-opacity:1"/><g clip-path="url(#a)"><path d="M649.762 73.723h1.125v1.047h.031c.539-.801 1.352-1.211 2.352-1.211.886 0 1.703.34 1.996 1.21a2.71 2.71 0 0 1 2.285-1.21c1.457 0 2.422.593 2.422 2.066v5.215h-1.196v-4.668c0-.879-.238-1.586-1.41-1.586-1.148 0-1.902.723-1.902 1.824v4.43h-1.195v-4.668c0-.918-.293-1.586-1.364-1.586-1.426 0-1.949 1.285-1.949 1.824v4.43h-1.195z" style="stroke:none;fill-rule:nonzero;fill:#939598;fill-opacity:1"/></g><path d="M408.93 119.969c.468 10.719 6.8 17.82 17.922 17.82 6.332 0 12.503-2.871 14.984-8.605h24.555c-4.786 18.12-21.93 25.972-39.848 25.972-26.106 0-43.867-15.402-43.867-41.676 0-24.015 19.617-41.234 43.25-41.234 28.722 0 43.094 21.14 41.86 47.723Zm32.59-14.352c-.461-8.754-6.79-16.004-15.594-16.004-9.27 0-15.45 6.496-16.996 16.004zM529.25 103.207c-.152-6.648-6.18-11.332-12.82-11.332-14.672 0-16.996 12.234-16.996 23.113 0 10.117 4.484 20.535 15.601 20.535 9.113 0 13.746-5.132 14.985-13.441h25.496c-2.328 20.992-19.008 33.078-40.32 33.078-24.098 0-42.012-16.164-42.012-40.172 0-24.918 16.21-42.738 42.011-42.738 19.926 0 37.684 10.27 39.543 30.957zM561.676 45.066h26.258v40.168h.316c4.02-8 14.824-12.984 24.395-12.984 26.726 0 28.89 19.023 28.89 30.352v50.289h-26.258v-37.903c0-10.73 1.235-21.597-13.129-21.597-9.878 0-14.214 8.152-14.214 16.761v42.739h-26.258z" style="stroke:none;fill-rule:nonzero;fill:#939598;fill-opacity:1"/><path d="M43.582 156.422c-12.578-.047-22.95-5.293-29.914-11.555C6.145 137.836.199 126.313.004 112.527-.125 101.68 4.69 89.336 16.285 80.523c9.356-7.28 19.3-9.64 27.082-9.601 2.453 0 4.703.223 6.711.539 5.262.848 8.817 5.695 7.953 10.832-.863 5.14-5.824 8.617-11.074 7.777a22 22 0 0 0-3.59-.285c-4.176.05-9.176 1-15.117 5.54-6.98 5.538-8.82 11.093-8.953 17.202-.2 7.582 4.426 15.989 7.46 18.485 3.852 3.5 10.071 6.59 16.825 6.543 3.563-.008 7.414-.766 11.691-2.883 4.368-2.172 7.504-5.172 9.547-8.242 2.063-3.032 2.887-6.188 2.871-7.914.055-5.215 4.418-9.387 9.746-9.332 5.325.054 9.602 4.316 9.547 9.523-.105 6.125-2.195 12.258-6 18.023-3.816 5.73-9.484 11.032-16.968 14.754-6.871 3.414-13.875 4.938-20.41 4.938z" style="stroke:none;fill-rule:nonzero;fill:#bdcc2a;fill-opacity:1"/><path d="M25.754 124.637c-3.004-4.293-1.879-10.164 2.527-13.106L67 85.68c4.406-2.942 10.406-1.832 13.406 2.472 3.004 4.293 1.871 10.164-2.527 13.106L39.16 127.109a9.77 9.77 0 0 1-5.437 1.641c-3.075 0-6.102-1.434-7.97-4.113M92.77 98.676c.468-10.27 5.414-16.918 12.511-20.989 7.106-3.93 16.38-5.437 25.489-5.437 19 0 37.382 4.074 37.382 26.273v34.286c0 6.636 0 13.886 3.09 20.086h-26.418c-.926-2.418-1.234-4.836-1.543-7.403-6.797 6.942-16.836 9.668-26.418 9.668-15.289 0-27.332-7.55-27.332-23.715 0-25.523 28.418-23.554 46.645-27.183 4.476-.907 6.945-2.41 6.945-7.242 0-5.895-7.258-8.16-12.66-8.16-7.258 0-11.89 3.175-13.129 9.816Zm33.984 40.62c12.512 0 16.68-6.948 16.058-23.105-3.707 2.27-10.496 2.72-16.21 4.23-5.872 1.356-10.817 3.774-10.817 9.97 0 6.34 5.098 8.906 10.969 8.906M198.879 127.066c0 3.93 1.695 6.797 4.328 8.754 2.473 1.817 6.02 2.727 9.73 2.727 5.094 0 12.36-2.113 12.36-8.313 0-6.035-8.192-7.246-12.828-8.3-16.52-4.082-37.223-4.532-37.223-25.672 0-18.88 20.852-24.016 36.606-24.016 17.613 0 35.992 4.984 36.921 25.371H224.52c0-3.32-1.239-5.437-3.399-6.789-2.164-1.363-5.094-1.965-8.344-1.965-4.316 0-11.273.45-11.273 5.887 0 7.398 17.613 8.762 29.656 11.328 16.219 3.172 20.395 14.64 20.395 21.14 0 20.989-20.395 27.938-38.461 27.938-19 0-38.465-6.191-39.235-28.09z" style="stroke:none;fill-rule:nonzero;fill:#bdcc2a;fill-opacity:1"/><path d="M378.664 91.125v-16.61h-16.219v-23.71h-26.257v23.71h-3.399l-6.164 16.61h9.563v34.887c0 21.289 5.71 27.633 28.113 27.633 4.785 0 9.57-.602 14.363-.75v-18.883c-2.312 0-4.637.3-6.797.3-5.722 0-9.422-1.351-9.422-7.55V91.125z" style="stroke:none;fill-rule:nonzero;fill:#939598;fill-opacity:1"/><g clip-path="url(#b)"><path d="M332.79 74.512h-26.876l-15.133 51.043h-.308l-15.141-51.043h-27.805l20.703 54.52c1.54 4.222 6.633 16.308 6.633 20.538 0 5.434-4.476 8.754-10.5 8.754h-9.11v20.844h12.36c17.758 0 27.176-2.113 33.516-19.332l25.496-68.711 6.164-16.61z" style="stroke:none;fill-rule:nonzero;fill:#bdcc2a;fill-opacity:1"/></g></svg>