<svg xmlns="http://www.w3.org/2000/svg" width="40" height="40" fill="#fff" viewBox="0 -960 960 960"><path d="M533.39-506.69q22.02-21.94 22.02-53.31t-22.02-53.39T480-635.41t-53.31 22.02T404.75-560t21.94 53.31T480-484.75t53.39-21.94M480-173.34Q607.98-289.75 669.46-383.4q61.48-93.66 61.48-169.4 0-113.64-72.82-185.89T480-810.94t-178.12 72.25-72.82 185.89q0 75.74 62.48 169.28Q354.02-289.99 480-173.34m0 100.04Q315.81-212.22 234.56-330.24 153.3-448.25 153.3-552.8q0-152.71 98.62-243.38 98.61-90.68 228.08-90.68t228.16 90.68q98.7 90.67 98.7 243.38 0 104.55-81.34 222.56Q644.19-212.22 480-73.3m0-486.7"/></svg>