<?xml version="1.0" encoding="UTF-8"?> <svg xmlns="http://www.w3.org/2000/svg" xmlns:xlink="http://www.w3.org/1999/xlink" id="badge" width="600" height="600" viewBox="0 0 600 600"><defs><style> .cls-1 { fill: url(#linear-gradient); } .cls-2 { isolation: isolate; } .cls-3 { fill: #fff; } .cls-4 { fill: url(#Grey_Gradient); } </style><linearGradient id="linear-gradient" x1="350.436" y1="586.034" x2="246.356" y2="-4.228" gradientUnits="userSpaceOnUse"><stop offset="0" stop-color="#969696"></stop><stop offset=".204" stop-color="#6f6f6f"></stop><stop offset=".439" stop-color="#4a4a4a"></stop><stop offset=".658" stop-color="#2f2f2f"></stop><stop offset=".852" stop-color="#1e1e1e"></stop><stop offset="1" stop-color="#191919"></stop></linearGradient><linearGradient id="Grey_Gradient" data-name="Grey Gradient" x1="356.226" y1="618.874" x2="239.651" y2="-42.257" gradientUnits="userSpaceOnUse"><stop offset="0" stop-color="#e3e3e3"></stop><stop offset=".046" stop-color="#dcdcdc"></stop><stop offset=".3" stop-color="#bdbdbd"></stop><stop offset=".548" stop-color="#a7a7a7"></stop><stop offset=".785" stop-color="#9a9a9a"></stop><stop offset=".999" stop-color="#969696"></stop></linearGradient></defs><path class="cls-1" d="M566.667,33.333v416.667c0,64.33-52.336,116.667-116.667,116.667H33.333V33.333h533.333"></path><path class="cls-4" d="M566.667,33.333v416.667c0,64.33-52.336,116.667-116.667,116.667H33.333V33.333h533.333M600,0H0v600h450c82.843,0,150-67.157,150-150V0h0Z"></path><g><polygon class="cls-3" points="134.6 488.342 142.015 488.342 149.43 488.342 149.43 497.838 134.6 497.838 134.6 488.342"></polygon><polygon class="cls-3" points="115.63 501.977 130.461 501.977 130.461 511.473 115.63 511.473 115.63 506.725 115.63 501.977"></polygon><polygon class="cls-3" points="153.569 501.977 168.4 501.977 168.4 506.725 168.4 511.473 153.569 511.473 153.569 501.977"></polygon><polygon class="cls-3" points="134.6 515.612 149.43 515.612 149.43 525.108 142.015 525.108 134.6 525.108 134.6 515.612"></polygon><path class="cls-3" d="M160.387,488.342c4.425,0,8.013,3.587,8.013,8.013v1.483h-14.831v-9.496h6.818Z"></path><path class="cls-3" d="M153.569,525.108v-9.496h14.831v1.483c0,4.425-3.587,8.013-8.013,8.013h-6.818Z"></path><path class="cls-3" d="M115.63,496.354c0-4.425,3.587-8.013,8.013-8.013h6.818v9.496h-14.831v-1.483Z"></path><path class="cls-3" d="M123.643,525.108c-4.425,0-8.013-3.587-8.013-8.013v-1.483h14.831v9.496h-6.818Z"></path><path class="cls-3" d="M215.928,498.239c0-5.466-4.431-9.898-9.898-9.898h-30.603v36.767h8.976v-13.073h20.034c1.122,0,2.031.909,2.031,2.031v11.042h8.976v-11.042c0-1.997-1.027-3.753-2.581-4.772,1.887-1.802,3.065-4.341,3.065-7.157v-3.898ZM206.952,502.107c0,1.122-.909,2.031-2.031,2.031h-20.518v-7.9h20.518c1.122,0,2.031.909,2.031,2.031v3.837Z"></path><path class="cls-3" d="M307.289,488.341h-30.663s-.008,0-.008,0v36.766h8.976v-28.87h20.586c1.122,0,2.031.909,2.031,2.031v26.838h8.976v-26.869c0-5.466-4.431-9.898-9.898-9.898Z"></path><polygon class="cls-3" points="260.683 525.107 269.659 525.107 269.659 506.725 269.659 488.341 260.683 488.341 260.683 506.724 260.683 525.107"></polygon><polygon class="cls-3" points="256.136 488.341 236.342 488.341 219.928 488.341 219.928 496.238 230.302 496.238 230.302 525.107 239.278 525.107 239.278 496.238 256.136 496.238 256.136 488.341"></polygon><polygon class="cls-3" points="401.62 488.341 365.412 488.341 365.412 496.238 375.787 496.238 375.787 525.107 384.762 525.107 384.762 496.238 401.62 496.238 401.62 488.341"></polygon><polygon class="cls-3" points="333.129 517.211 333.129 510.613 356.925 510.613 356.925 502.716 333.129 502.716 333.129 496.238 360.85 496.238 360.85 488.341 324.153 488.341 324.153 525.107 361.34 525.107 361.34 517.211 333.129 517.211"></polygon><polygon class="cls-3" points="110.946 496.238 110.946 488.342 72.53 488.342 72.53 506.725 72.53 525.108 81.505 525.108 81.505 512.035 106.531 512.035 106.531 504.138 81.505 504.138 81.505 496.238 110.946 496.238"></polygon></g><rect class="cls-3" x="33.333" y="218.76" width="200" height="7.573"></rect><g><path class="cls-3" d="M72.893,255.106h14.043c8.082,0,12.756,5.198,12.756,12.57s-4.762,12.497-12.947,12.497h-6.326v12.026h-7.525v-37.094ZM85.527,273.889c4.311,0,6.413-2.535,6.413-6.212,0-3.695-2.103-6.158-6.448-6.158h-5.074v12.37h5.109Z"></path><path class="cls-3" d="M104.466,264.38h7.178v4.854h.278c.973-3.441,3.424-5.253,6.413-5.253.747,0,1.669.108,2.329.271v6.847c-.695-.235-2.104-.417-3.129-.417-3.268,0-5.666,2.354-5.666,5.778v15.739h-7.403v-27.82Z"></path><path class="cls-3" d="M122.479,284.43c0-6.212,4.745-8.06,10.029-8.566,4.64-.472,6.465-.707,6.465-2.5v-.108c0-2.282-1.443-3.604-3.963-3.604-2.659,0-4.24,1.358-4.744,3.206l-6.848-.58c1.025-5.071,5.23-8.259,11.627-8.259,5.943,0,11.332,2.789,11.332,9.418v18.765h-7.021v-3.857h-.209c-1.304,2.59-3.858,4.383-7.804,4.383-5.093,0-8.864-2.789-8.864-8.296ZM139.024,282.257v-2.952c-.886.615-3.528,1.014-5.144,1.249-2.607.381-4.328,1.449-4.328,3.623,0,2.119,1.634,3.224,3.91,3.224,3.25,0,5.562-2.228,5.562-5.144Z"></path><path class="cls-3" d="M151.062,278.398c0-8.53,5.006-14.381,13.104-14.381,6.97,0,11.645,4.22,11.957,10.65h-6.986c-.399-2.771-2.138-4.637-4.849-4.637-3.441,0-5.701,3.006-5.701,8.259,0,5.325,2.242,8.35,5.701,8.35,2.537,0,4.414-1.666,4.849-4.637h6.986c-.348,6.394-4.813,10.74-11.923,10.74-8.221,0-13.139-5.886-13.139-14.345Z"></path><path class="cls-3" d="M195.096,270.176h-5.022v13.476c0,2.137,1.025,2.717,2.503,2.717.695,0,1.477-.182,1.842-.254l1.165,5.742c-.747.253-2.103.651-4.015.724-5.371.236-8.934-2.463-8.898-7.915v-14.489h-3.65v-5.796h3.65v-6.665h7.403v6.665h5.022v5.796Z"></path><path class="cls-3" d="M199.639,256.882c0-2.138,1.809-3.895,3.998-3.895,2.207,0,4.015,1.757,4.015,3.895,0,2.155-1.808,3.912-4.015,3.912-2.189,0-3.998-1.757-3.998-3.912ZM199.918,264.38h7.403v27.82h-7.403v-27.82Z"></path><path class="cls-3" d="M212.158,278.398c0-8.53,5.005-14.381,13.104-14.381,6.97,0,11.645,4.22,11.957,10.65h-6.986c-.399-2.771-2.137-4.637-4.849-4.637-3.441,0-5.7,3.006-5.7,8.259,0,5.325,2.242,8.35,5.7,8.35,2.538,0,4.415-1.666,4.849-4.637h6.986c-.348,6.394-4.813,10.74-11.922,10.74-8.221,0-13.139-5.886-13.139-14.345Z"></path><path class="cls-3" d="M240.741,284.43c0-6.212,4.745-8.06,10.028-8.566,4.641-.472,6.465-.707,6.465-2.5v-.108c0-2.282-1.442-3.604-3.963-3.604-2.658,0-4.24,1.358-4.744,3.206l-6.848-.58c1.025-5.071,5.231-8.259,11.627-8.259,5.944,0,11.332,2.789,11.332,9.418v18.765h-7.021v-3.857h-.209c-1.303,2.59-3.857,4.383-7.803,4.383-5.093,0-8.864-2.789-8.864-8.296ZM257.287,282.257v-2.952c-.887.615-3.528,1.014-5.145,1.249-2.607.381-4.328,1.449-4.328,3.623,0,2.119,1.635,3.224,3.91,3.224,3.25,0,5.562-2.228,5.562-5.144Z"></path><path class="cls-3" d="M277.806,292.2h-7.403v-37.094h7.403v37.094Z"></path><path class="cls-3" d="M74.291,316.106h22.387v3.984h-17.896v12.534h16.735v3.984h-16.735v12.606h18.185v3.984h-22.676v-37.094Z"></path><path class="cls-3" d="M114.062,336.754l6.666-11.374h4.926l-8.983,13.91,8.983,13.91h-4.926l-6.666-10.795-6.665,10.795h-4.927l8.839-13.91-8.839-13.91h4.927l6.665,11.374Z"></path><path class="cls-3" d="M130.434,345.304c0-6.376,5.633-7.517,10.795-8.188,5.071-.651,7.172-.471,7.172-2.535v-.146c0-3.567-1.938-5.65-5.868-5.65-4.075,0-6.303,2.173-7.245,4.202l-4.057-1.449c2.174-5.071,6.955-6.521,11.156-6.521,3.551,0,10.289,1.015,10.289,9.854v18.329h-4.275v-3.768h-.217c-.869,1.812-3.405,4.42-8.26,4.42-5.289,0-9.49-3.115-9.49-8.549ZM148.4,343.13v-3.912c-.725.869-5.578,1.376-7.39,1.594-3.333.435-6.303,1.449-6.303,4.709,0,2.971,2.463,4.492,5.868,4.492,5.071,0,7.824-3.405,7.824-6.883Z"></path><path class="cls-3" d="M160.497,325.38h4.13v4.347h.362c1.159-2.97,3.839-4.709,7.462-4.709,3.658,0,6.086,1.739,7.463,4.709h.289c1.432-2.88,4.348-4.709,8.332-4.709,4.963,0,8.477,3.024,8.477,9.563v18.619h-4.275v-18.619c0-4.111-2.607-5.724-5.65-5.724-3.912,0-6.158,2.645-6.158,6.23v18.112h-4.347v-19.054c0-3.17-2.265-5.289-5.507-5.289-3.332,0-6.303,2.88-6.303,6.955v17.388h-4.274v-27.82Z"></path><path class="cls-3" d="M231.638,353.2h-4.347l-10.288-27.82h4.637l7.68,22.169h.29l7.68-22.169h4.637l-10.288,27.82Z"></path><path class="cls-3" d="M246.777,343.347c-.036-4.69,3.098-8.675,7.172-9.418v-.217c-3.549-.906-5.832-4.312-5.795-8.26-.037-5.65,4.709-9.853,11.229-9.853,6.449,0,11.193,4.202,11.23,9.853-.037,3.948-2.318,7.354-5.796,8.26v.217c4.003.743,7.136,4.728,7.173,9.418-.037,6.032-5.199,10.36-12.607,10.36-7.479,0-12.642-4.328-12.605-10.36ZM267.57,343.13c-.036-4.184-3.496-7.173-8.188-7.173-4.763,0-8.223,2.989-8.186,7.173-.037,3.984,3.097,6.593,8.186,6.593,5.018,0,8.151-2.608,8.188-6.593ZM266.266,325.742c-.035-3.768-2.789-6.23-6.883-6.23-4.165,0-6.918,2.463-6.882,6.23-.036,3.84,2.825,6.375,6.882,6.375,3.985,0,6.848-2.535,6.883-6.375Z"></path><path class="cls-3" d="M296.692,320.381v-.29h-19.126v-3.984h23.763v4.202l-16.519,32.892h-4.709l16.591-32.819Z"></path><path class="cls-3" d="M306.471,334.653c0-12.026,4.781-19.054,12.896-19.054s12.896,7.027,12.896,19.054c0,12.117-4.709,19.054-12.896,19.054s-12.896-6.937-12.896-19.054ZM327.915,334.653c0-9.636-3.188-15.142-8.549-15.142s-8.55,5.506-8.55,15.142,3.152,15.069,8.55,15.069,8.549-5.416,8.549-15.069Z"></path></g><g class="cls-2"><g class="cls-2"><path class="cls-3" d="M162.094,179.566h-19.551l-46.578-67.385h-.785v67.385h-22.635v-107.062h19.865l46.212,67.332h.94v-67.332h22.531v107.062Z"></path><path class="cls-3" d="M220.549,89.965c-11.083,0-17.199,5.07-17.199,11.971-.156,7.685,7.633,11.135,16.938,13.278l9.619,2.301c18.61,4.182,32.045,13.644,32.098,31.47-.053,19.604-15.422,32.099-41.56,32.099-25.981,0-42.554-11.972-43.128-35.13h21.903c.731,10.717,9.2,16.153,20.963,16.153,11.501,0,18.925-5.332,18.977-13.174-.052-7.214-6.534-10.56-18.192-13.383l-11.658-2.928c-18.087-4.339-29.223-13.383-29.17-29.17-.104-19.447,17.095-32.412,40.566-32.412,23.838,0,39.521,13.174,39.835,32.255h-21.694c-.836-8.416-7.476-13.33-18.297-13.33Z"></path><path class="cls-3" d="M277.172,72.504h72.142v18.663h-49.506v25.511h45.794v18.663h-45.794v25.563h49.716v18.662h-72.352v-107.062Z"></path><path class="cls-3" d="M399.299,150.763c-.053-13.383,10.142-24.31,23.211-26.452v-.732c-11.396-2.3-19.291-12.023-19.238-23.733-.053-16.571,15.84-28.805,37.535-28.805s37.534,12.233,37.586,28.805c-.052,11.763-8.051,21.434-19.237,23.733v.732c12.86,2.143,23.159,13.069,23.211,26.452-.052,17.355-17.408,30.268-41.56,30.268s-41.561-12.912-41.508-30.268ZM458.789,148.984c0-9.253-7.632-15.944-17.982-15.944-10.403,0-17.983,6.691-17.983,15.944,0,9.044,7.214,15.422,17.983,15.422s17.982-6.325,17.982-15.422ZM456.28,102.197c0-8.312-6.378-14.114-15.474-14.114-9.148,0-15.475,5.75-15.475,14.114,0,8.469,6.43,14.376,15.475,14.376,8.991,0,15.474-5.907,15.474-14.376Z"></path></g></g></svg> 