<svg xmlns="http://www.w3.org/2000/svg" width="720" height="720" viewBox="0 0 190.5 190.5"><title>Office of Civil Defense of the Philippines (OCD)</title><g transform="translate(952.615 -494.42)"><circle cx="-273.747" cy="-174.372" r="210.674" style="opacity:1;vector-effect:none;fill:none;fill-opacity:1;fill-rule:nonzero;stroke:none;stroke-width:1.98601258;stroke-linecap:square;stroke-linejoin:bevel;stroke-miterlimit:4;stroke-dasharray:none;stroke-dashoffset:0;stroke-opacity:1" transform="rotate(-162.5)"/><circle cx="-198.721" cy="256.619" r="237.008" style="opacity:1;vector-effect:none;fill:none;fill-opacity:1;fill-rule:nonzero;stroke:none;stroke-width:2.23426414;stroke-linecap:square;stroke-linejoin:bevel;stroke-miterlimit:4;stroke-dasharray:none;stroke-dashoffset:0;stroke-opacity:1" transform="rotate(-2.25)scale(-1 1)"/><circle cx="430.043" cy="213.67" r="10.382" style="opacity:1;vector-effect:none;fill:#fff;fill-opacity:1;fill-rule:nonzero;stroke:none;stroke-width:.4025434;stroke-linecap:square;stroke-linejoin:bevel;stroke-miterlimit:4;stroke-dasharray:none;stroke-dashoffset:0;stroke-opacity:1"/><circle cx="-857.365" cy="589.669" r="95.25" style="vector-effect:none;fill:#041e42;fill-opacity:1;fill-rule:nonzero;stroke:none;stroke-width:.897918;stroke-linecap:square;stroke-linejoin:bevel;stroke-miterlimit:4;stroke-dasharray:none;stroke-dashoffset:0;stroke-opacity:1"/><circle cx="-857.365" cy="589.669" r="73.603" style="vector-effect:none;fill:#f28920;fill-opacity:1;fill-rule:nonzero;stroke:none;stroke-width:.693857;stroke-linecap:square;stroke-linejoin:bevel;stroke-miterlimit:4;stroke-dasharray:none;stroke-dashoffset:0;stroke-opacity:1"/><path d="m-857.254 530.456-51.215 88.892h102.43z" style="vector-effect:none;fill:#041e42;fill-opacity:1;fill-rule:nonzero;stroke:none;stroke-width:.755503;stroke-linecap:square;stroke-linejoin:bevel;stroke-miterlimit:4;stroke-dasharray:none;stroke-dashoffset:0;stroke-opacity:1"/><path d="M-857.339 591.421a.05.05 0 0 0-.032.014l-1.685 1.684.265 4.31.072 1.176-.052.022.382 7.386-.715.086-.003-.026-.091-.732-.775-6.216-.287-2.304v-.001l-.277-2.22-1.488 1.489-1.925-.797.595 2.127.613 2.192h-.03l.165.605 1.703 6.247-.24.072q-.186.053-.37.111l-.067.02-.03-.085-2.423-6.97h-.002l-.39-1.123-.005.006-1.37-3.969-2.294-.95-.016-.002a.04.04 0 0 0-.038.025l-.903 2.181 1.899 3.832.532 1.074-.004.004.488.989 2.808 5.68-.762.382-3.173-5.595-.296-.522-.004.005-2.257-3.991-.818 1.975h-1.968l1.276 1.67-.006.016 1.455 1.932-.035.015 4.187 5.655-.06.048q-.201.156-.395.318l-4.243-4.773-.674-.758-.01.004-.842-.951-.012.029-2.8-3.205h-2.414a.044.044 0 0 0-.044.044v2.497l3.195 2.795h-.002l.867.76-.003.007 5.56 4.88.002.001v.001l.039.034-.248.305q-.108.128-.214.259l-7.398-5.668-.009.004-1.789-1.381v2.122l-1.727.716 4.23 2.48 3.539 2.074 2.09 1.225-.302.56-.045.083-.023.043-.295-.145-7.467-3.67-3.715-1.827-2.246.93a.044.044 0 0 0-.024.058l.937 2.262 5.048 1.723v.037l.974.339 6.044 2.107-.024.078-.007.023-.018.056q.03-.083.062-.164-.053.156-.104.313l.02-.08-.065.21-.017.057q-.03.09-.057.182l-.014.046-.349-.096-2.052-.568-1.452-.401-2.93-.81-.01-.004-4.276-1.182.773 1.865-1.505 1.504 4.44.582 2.993.393 4.008.525-.073.718-.395-.025-3.355-.21-3.663-.228-.549-.034-4.825-.302-2.98 2.98a.046.046 0 0 0 0 .065l1.404 1.404h55.775l1.404-1.404a.046.046 0 0 0 0-.065l-2.937-2.937-4.33.299.005-.014-1.234.08-.002-.003-7.311.476-.002-.015-.002-.015-.002-.018-.02-.201q-.016-.174-.036-.346l-.032-.319 6.867-.858 2.402-.3 2.188-.274-1.467-1.467.774-1.87-4.373 1.209-.577.16-6.16 1.702-.09-.293q-.05-.165-.102-.328l-.052-.169 5.938-2.036 1.043-.358v-.01l5.151-1.756.93-2.245a.04.04 0 0 0-.022-.054l-2.258-.935-4.827 2.408-1.026.512-5.617 2.803-.18-.337-.138-.256-.109-.203 5.546-3.207 2.55-1.475 1.833-1.06-1.833-.76v-2.316l-3.696 2.843-2.702 2.077-2.864 2.202-.128-.15-.147-.172-.242-.282 4.825-4.197.766-.666 4.188-3.643v-2.264a.044.044 0 0 0-.044-.044h-2.778l-6.832 7.925-.858.995-.568.66q-.333-.281-.683-.54l.007-.009.003-.003.018-.023.001-.001.001-.001 1.501-1.941 2.496-3.227 1.74-2.25 1.225-1.585h-1.882l-.764-1.846-1.029 1.846-4.645 8.084-.634-.37 3.743-7.714 1.817-3.652-.951-2.295a.04.04 0 0 0-.04-.027l-.017.003-2.195.91-1.332 3.932-.018-.018-.395 1.147-2.437 7.072-.06-.018-.102-.03-.032-.01-.01-.004a14 14 0 0 0-.52-.163l1.846-6.848.607-2.25-.005-.004.551-2.017-1.816.752-1.48-1.48-.274 2.207-.022.009-.305 2.284-.066.5-.866 6.488-.186-.02-.077-.007-.165-.018-.056-.006-.194-.02-.062-.007.528-8.594.263-4.297-1.694-1.695a.05.05 0 0 0-.033-.014z" style="fill:#fff;fill-opacity:1;fill-rule:nonzero;stroke:none;stroke-width:.0809488;stroke-linecap:square;stroke-linejoin:bevel;stroke-miterlimit:4;stroke-dasharray:none;stroke-dashoffset:0;stroke-opacity:1"/><path d="m215.903 162.688-7.006-4.832-6.669 5.289 2.43-8.157-7.09-4.707 8.509-.21 2.286-8.198 2.828 8.028 8.503-.36-6.76 5.17z" style="vector-effect:none;fill:#fff;fill-opacity:1;fill-rule:nonzero;stroke:none;stroke-width:9.34381;stroke-linecap:square;stroke-linejoin:bevel;stroke-miterlimit:4;stroke-dasharray:none;stroke-dashoffset:0;stroke-opacity:1" transform="matrix(.4682 .019 -.019 .4682 -952.17 474.012)"/><path d="m215.903 162.688-7.006-4.832-6.669 5.289 2.43-8.157-7.09-4.707 8.509-.21 2.286-8.198 2.828 8.028 8.503-.36-6.76 5.17z" style="vector-effect:none;fill:#fff;fill-opacity:1;fill-rule:nonzero;stroke:none;stroke-width:9.34381;stroke-linecap:square;stroke-linejoin:bevel;stroke-miterlimit:4;stroke-dasharray:none;stroke-dashoffset:0;stroke-opacity:1" transform="rotate(24.824 -1618.38 -1907.427)scale(.46858)"/><path d="m215.903 162.688-7.006-4.832-6.669 5.289 2.43-8.157-7.09-4.707 8.509-.21 2.286-8.198 2.828 8.028 8.503-.36-6.76 5.17z" style="vector-effect:none;fill:#fff;fill-opacity:1;fill-rule:nonzero;stroke:none;stroke-width:9.34381;stroke-linecap:square;stroke-linejoin:bevel;stroke-miterlimit:4;stroke-dasharray:none;stroke-dashoffset:0;stroke-opacity:1" transform="rotate(-24.824 760.89 1987.928)scale(-.46858 .46858)"/><path d="m-857.305 519.036-61.359 105.87h122.719zm.051 5.307 56.186 97.831H-913.44z" style="vector-effect:none;fill:#041e42;fill-opacity:1;fill-rule:nonzero;stroke:none;stroke-width:.755503;stroke-linecap:square;stroke-linejoin:bevel;stroke-miterlimit:4;stroke-dasharray:none;stroke-dashoffset:0;stroke-opacity:1"/><path d="m-857.254 524.343-56.186 97.831h112.372zm0 6.113 51.215 88.892h-102.43z" style="vector-effect:none;fill:#fff;fill-opacity:1;fill-rule:nonzero;stroke:none;stroke-width:.69496;stroke-linecap:square;stroke-linejoin:bevel;stroke-miterlimit:4;stroke-dasharray:none;stroke-dashoffset:0;stroke-opacity:1"/><g aria-label="OCD" style="font-style:normal;font-variant:normal;font-weight:600;font-stretch:normal;font-size:50.1183px;line-height:1.25;font-family:&quot;Bookman Old Style&quot;;-inkscape-font-specification:&quot;Bookman Old Style Semi-Bold&quot;;font-variant-ligatures:normal;font-variant-caps:normal;font-variant-numeric:normal;font-feature-settings:normal;text-align:start;letter-spacing:1.30777px;writing-mode:lr-tb;text-anchor:start;vector-effect:none;fill:#fff;fill-opacity:1;fill-rule:nonzero;stroke:#041e42;stroke-width:1.57594;stroke-linecap:square;stroke-linejoin:bevel;stroke-miterlimit:4;stroke-dasharray:none;stroke-dashoffset:0;stroke-opacity:1"><path d="M170.593 198.832q8.125 0 13.141 4.943 5.041 4.943 5.041 12.7 0 5.213-2.3 9.251t-6.363 6.24q-4.037 2.178-9.764 2.178-7.562 0-12.383-4.16-5.824-5.017-5.824-13.41 0-7.807 5.09-12.775 5.115-4.967 13.362-4.967zm.098 5.432q-3.891 0-6.192 2.912-2.887 3.671-2.887 9.471t2.692 9.177q2.324 2.888 6.142 2.888 3.842 0 6.142-2.888 2.717-3.45 2.717-9.226 0-4.062-1.175-6.828-1.15-2.765-3.132-4.135t-4.307-1.37zM220.061 199.419h3.475l3.353 12.26-4.552 1.322q-2.276-4.38-4.283-6.216-2.79-2.52-6.044-2.52-2.374 0-4.454 1.32-2.056 1.322-3.28 3.892-1.198 2.57-1.198 6.02 0 5.261 2.765 9.054 2.79 3.794 7.293 3.794 2.863 0 5.506-1.64 3.303-2.031 5.702-5.457l3.793 2.814q-3.695 5.041-6.754 7.023-4.723 3.06-10.523 3.06-4.821 0-8.737-2.301-3.89-2.325-6.216-6.485-2.324-4.16-2.324-9.079 0-4.894 2.251-8.908 2.276-4.038 6.167-6.289 3.915-2.251 8.712-2.251 4.87 0 8.54 2.055zM232.112 199.419h17.889q6.093 0 9.69 1.933 3.598 1.933 5.727 5.727 2.154 3.793 2.154 9.103 0 3.695-1.102 6.607-1.076 2.913-3.23 5.262-2.153 2.325-4.625 3.5-1.86.88-5.286 1.443-3.401.563-5.457.563h-15.76v-4.723h1.175q1.492 0 1.957-.245.465-.244.76-.832.195-.465.195-2.03v-18.648q0-1.567-.22-2.007-.196-.465-.686-.685-.465-.245-2.006-.245h-1.175zm12.48 5.482v21.217q0 1.076.123 1.321.196.367.563.514.391.122 1.835.122 4.014 0 6.265-1.223 2.276-1.248 3.67-3.965 1.396-2.74 1.396-6.51 0-3.719-1.322-6.46-1.297-2.765-3.23-3.89t-5.53-1.126z" style="font-style:normal;font-variant:normal;font-weight:600;font-stretch:normal;font-family:&quot;Bookman Old Style&quot;;-inkscape-font-specification:&quot;Bookman Old Style Semi-Bold&quot;;letter-spacing:1.30777px;fill:#fff;fill-opacity:1;stroke:#041e42;stroke-width:1.57594;stroke-miterlimit:4;stroke-dasharray:none;stroke-opacity:1" transform="matrix(.37549 0 0 .38003 -936.18 495.753)"/></g><g aria-label="OFFICE OF CIVIL DEFENSE" style="font-style:normal;font-variant:normal;font-weight:600;font-stretch:normal;font-size:31.75px;line-height:1.25;font-family:&quot;Bookman Old Style&quot;;-inkscape-font-specification:&quot;Bookman Old Style Semi-Bold&quot;;font-variant-ligatures:normal;font-variant-caps:normal;font-variant-numeric:normal;font-feature-settings:normal;text-align:start;word-spacing:1.32292px;writing-mode:lr-tb;text-anchor:start;vector-effect:none;fill:#fff;fill-opacity:1;fill-rule:nonzero;stroke:#041e42;stroke-width:.875521;stroke-linecap:square;stroke-linejoin:bevel;stroke-miterlimit:4;stroke-dasharray:none;stroke-dashoffset:0;stroke-opacity:1"><path d="M-8.967 164.873q1.885-4.912 6.037-6.8 4.158-1.9 8.848-.102 3.152 1.21 5.06 3.537t2.297 5.294q.38 2.946-.948 6.409-1.753 4.572-5.387 6.522-4.384 2.358-9.459.411-4.72-1.81-6.543-6.04-1.817-4.245.095-9.231zm3.308 1.2q-.903 2.353.325 4.42 1.55 2.597 5.056 3.942t6.173.5q2.285-.735 3.17-3.043.891-2.323-.321-4.384-1.456-2.443-4.948-3.782-2.456-.942-4.4-.873-1.94.054-3.228.934-1.288.881-1.827 2.287zM-1.003 146.912l8.642-16.1 7.398 1.13-.477 2.999q-1.685-.113-2.668.078-.998.184-1.871.705t-1.507 1.332q-.42.548-1.237 2.07l-1.289 2.401 5.167 2.773.66-1.228q.374-.699.374-1.202.008-.517-.237-.865-.238-.361-1.02-.78L9.9 139.67l1.35-2.514 8.712 4.677-1.349 2.513-1.256-.674q-.545-.293-.849-.33-.402-.054-.732.057t-.57.36q-.234.234-.639.988l-.577 1.075 4.091 2.196q.74.397 1.073.414.319.009.595-.203t.702-1.008l.428-.796 2.694 1.447-5.096 9.495-2.695-1.447.337-.628q.563-1.047.47-1.51-.1-.486-.924-.928l-11.198-6.01q-.768-.413-1.087-.422t-.602.216q-.283.226-.747 1.092l-.338.628zM12.323 123.058l10.477-14.97 7.213 1.992-.826 2.923q-1.66-.31-2.66-.236-1.012.065-1.94.479t-1.653 1.145q-.481.495-1.472 1.91l-1.563 2.233 4.804 3.362.8-1.142q.454-.65.514-1.15.068-.512-.134-.886-.194-.387-.92-.896L24 117.15l1.636-2.337 8.102 5.67-1.636 2.337-1.168-.818q-.507-.354-.804-.427-.393-.101-.734-.03t-.608.29q-.26.205-.75.906l-.7 1 3.804 2.662q.688.482 1.016.538.316.046.614-.131.299-.178.817-.918l.518-.74 2.506 1.753-6.18 8.829-2.505-1.754.408-.584q.682-.974.644-1.445-.041-.493-.807-1.03l-10.413-7.287q-.714-.5-1.03-.547-.315-.047-.623.144-.307.191-.87.996l-.41.584zM28.071 101.527l7-8.193 2.326 1.987-.638.747q-.556.65-.621.97-.067.298.094.623.158.302.857.9l9.301 7.947q.76.649 1.048.75t.56-.022q.361-.13.794-.635l.761-.892 2.326 1.987-7.001 8.193-2.325-1.987.566-.663q.607-.71.696-1.01.077-.31-.057-.591-.137-.304-.8-.87l-9.336-7.98q-.783-.668-1.117-.766-.335-.12-.674.008-.24.086-.796.737l-.639.747zM52.159 76.123l1.626-1.555 7.056 4.24-1.54 2.655q-3.025-1.032-4.786-.994-2.434.069-3.957 1.525-1.111 1.062-1.494 2.612-.37 1.538.206 3.289.589 1.74 2.133 3.354 2.354 2.463 5.346 3.001 3.003.528 5.111-1.487 1.34-1.281 1.844-3.232.637-2.429.227-5.106l3.035-.38q.526 4.014-.019 6.31-.842 3.546-3.557 6.141-2.257 2.157-5.12 2.833-2.86.652-5.81-.255t-5.152-3.21q-2.19-2.29-2.932-5.177-.741-2.908.073-5.703.825-2.806 3.07-4.952 2.28-2.18 4.919-2.86zM61.481 67.925l14.82-10.984 6.185 4.114-1.69 2.536q-1.605-.941-3.018-1.197-1.399-.264-2.552.176-1.15.418-2.41 1.353l-2.712 2.01 3.284 4.43.891-.66q1.006-.746 1.246-1.14.243-.418.17-.837-.084-.431-.773-1.36l-.5-.675 2.266-1.68 5.568 7.512-2.266 1.68-.566-.765q-.576-.776-1.031-.991-.443-.224-.855-.116-.413.109-1.508.92l-.802.595 3.02 4.074q.481.65.649.742.167.093.402.037.247-.065.859-.518l1.49-1.104q1.667-1.236 2.464-2.557.787-1.333.895-3.05.111-1.74-.49-3.562l2.924-.925L90 74.305l-15.354 11.38-1.821-2.457.446-.33q.89-.66 1.102-1.014.211-.354.103-.767-.078-.238-.739-1.13l-7.172-9.675q-.585-.79-.879-.946-.28-.167-.595-.112-.324.043-.998.543l-.79.585zM109.88 37.407q4.765-2.231 9.064-.71 4.315 1.514 6.445 6.064 1.432 3.057 1.191 6.057t-2.017 5.407q-1.77 2.386-5.128 3.959-4.435 2.076-8.405.96-4.793-1.342-7.099-6.265-2.144-4.578-.523-8.89 1.635-4.317 6.472-6.582zm1.55 3.16q-2.283 1.068-2.832 3.407-.685 2.946.908 6.347t4.099 4.643q2.156 1.055 4.395.007 2.253-1.055 2.81-3.38.645-2.77-.941-6.157-1.116-2.383-2.564-3.682-1.434-1.306-2.973-1.565-1.54-.26-2.903.38zM128.07 30l17.39-5.609 4.547 5.943-2.423 1.831q-1.135-1.249-1.977-1.794-.847-.56-1.837-.79t-2.008-.084q-.683.103-2.327.634l-2.594.836 1.8 5.58 1.327-.427q.754-.243 1.103-.606.365-.367.429-.788.08-.425-.193-1.27l-.36-1.115 2.715-.876 3.035 9.412-2.715.875-.438-1.357q-.19-.589-.383-.826-.252-.318-.566-.467-.315-.148-.66-.136-.331.006-1.146.269l-1.161.374 1.425 4.42q.258.8.486 1.042.223.228.569.266.345.039 1.205-.239l.86-.277.938 2.911-10.256 3.307-.939-2.91.679-.22q1.131-.364 1.386-.763.264-.418-.023-1.308l-3.9-12.096q-.268-.83-.491-1.057-.224-.228-.584-.262-.36-.033-1.296.268l-.678.22zM187.43 16.667l2.235-.266 3.095 7.627-2.826 1.198q-1.799-2.642-3.23-3.669-1.987-1.407-4.08-1.157-1.526.181-2.762 1.19-1.221 1.008-1.81 2.754-.575 1.744-.31 3.963.402 3.383 2.471 5.61 2.085 2.226 4.98 1.88 1.841-.219 3.415-1.476 1.969-1.559 3.249-3.946l2.654 1.52q-1.99 3.524-3.805 5.033-2.802 2.33-6.532 2.773-3.1.37-5.794-.81-2.68-1.196-4.494-3.693t-2.19-5.66q-.375-3.147.765-5.9 1.154-2.771 3.484-4.517 2.345-1.748 5.43-2.116 3.13-.373 5.649.668zM199.154 15.911l10.774-.188.054 3.058-.983.017q-.855.015-1.138.179-.267.147-.403.482-.122.32-.106 1.238l.214 12.233q.018.998.134 1.281t.387.405q.336.185 1.002.173l1.172-.02.054 3.058-10.775.188-.053-3.058.871-.015q.935-.016 1.218-.148.283-.148.405-.435.137-.304.122-1.175l-.215-12.28q-.018-1.03-.166-1.344-.133-.331-.453-.5-.224-.123-1.08-.108l-.982.018zM215.936 15.605l10.472.862-.251 3.048-.332-.027q-.995-.082-1.286-.026-.275.056-.485.294-.21.237-.232.505-.028.332.251 1.388l2.997 11.298 5.081-10.919q.37-.812.395-1.128.037-.442-.246-.672-.268-.229-1.231-.308l-.68-.056.252-3.048 8.528.702-.25 3.048q-1.059-.087-1.442.12-.582.318-1.25 1.678l-8 16.435-4.96-.409-5.305-17.641q-.326-1.06-.524-1.363t-.595-.494q-.382-.19-1.158-.239zM245.085 18.617l10.6 1.944-.553 3.008-.966-.177q-.842-.155-1.151-.05-.29.092-.491.393-.182.289-.348 1.193l-2.207 12.034q-.18.982-.122 1.282t.3.474q.293.247.947.367l1.154.212-.552 3.008-10.6-1.944.552-3.008.858.157q.92.169 1.223.095.306-.088.482-.346.195-.27.352-1.128l2.216-12.08q.185-1.013.102-1.35-.064-.351-.345-.58-.195-.164-1.037-.319l-.966-.177zM262.636 21.997l10.406 2.919-.825 2.945-.916-.257q-.763-.214-.983-.193-.409.05-.666.323-.254.258-.446.945l-3.41 12.16q-.206.733-.192.918.029.19.213.356.188.152.798.323 2.045.573 3.43.386 1.401-.183 2.723-1.08 1.34-.908 2.627-2.736l2.538 1.748-5.016 7.087-16.25-4.558.825-2.945 1.023.287q.625.176.993.098.367-.078.582-.315.234-.247.43-.949l3.381-12.054q.214-.763.155-1.141-.043-.375-.275-.604-.216-.226-.842-.401l-1.129-.317zM303.002 35.492l10.355 5.193q3.527 1.769 5.049 3.932 1.52 2.164 1.652 4.977.145 2.821-1.396 5.895-1.073 2.14-2.556 3.505-1.468 1.374-3.397 2.108-1.922.72-3.693.683-1.333-.03-3.48-.698-2.132-.662-3.322-1.259l-9.122-4.575 1.37-2.734.68.341q.865.433 1.205.427t.68-.262q.249-.212.704-1.119l5.413-10.794q.455-.907.455-1.226.022-.326-.198-.595-.198-.277-1.09-.724l-.68-.341zm5.633 6.796-6.16 12.282q-.312.623-.312.8.007.27.177.461.19.185 1.027.604 2.323 1.165 3.981 1.11 1.68-.062 3.276-1.23 1.603-1.18 2.697-3.362 1.08-2.153 1.11-4.124.053-1.977-.74-3.19-.792-1.213-2.874-2.257zM330.297 49.821l15.29 10.32-1.821 7.202-2.954-.75q.353-1.827.124-3.244-.216-1.408-1.015-2.348-.777-.945-2.078-1.823l-2.798-1.888-3.085 4.57.92.621q1.037.7 1.49.796.474.09.844-.119.38-.222 1.027-1.18l.47-.697 2.338 1.578-5.23 7.75-2.339-1.578.532-.788q.54-.801.592-1.302.064-.492-.175-.845-.24-.353-1.37-1.115l-.827-.559-2.837 4.204q-.452.67-.484.859t.099.391q.143.212.774.638l1.537 1.037q1.72 1.161 3.23 1.473 1.52.299 3.175-.17 1.678-.475 3.196-1.649l1.846 2.45-6.996 5.182-15.842-10.691 1.71-2.535.46.31q.92.62 1.324.702t.757-.159q.199-.152.82-1.072l6.737-9.983q.55-.814.6-1.144.063-.32-.094-.598-.148-.291-.844-.76l-.814-.55zM353.84 66.336l13.797 11.98-2.733 6.966-2.82-1.127q.481-1.618.512-2.62.04-1.014-.275-1.98t-.967-1.763q-.442-.53-1.746-1.663l-2.058-1.787-3.844 4.428 1.053.914q.598.52 1.089.631.503.122.896-.04.405-.153.986-.823l.77-.885 2.153 1.87-6.483 7.467-2.154-1.87.935-1.077q.405-.467.509-.755.141-.38.106-.727-.036-.345-.225-.635-.177-.28-.823-.84l-.921-.8-3.045 3.505q-.55.635-.64.955-.08.31.067.625.145.315.827.908l.683.592-2.006 2.31-8.137-7.066 2.005-2.31.539.468q.897.78 1.37.791.495.01 1.108-.696l8.332-9.597q.572-.658.651-.967t-.078-.635-.9-.97l-.539-.467zM374.21 84.596l12.37 13.684-3.495 6.556-2.688-1.437q.781-1.689.898-3.12.128-1.418-.422-2.523-.528-1.103-1.58-2.267l-2.264-2.504-4.09 3.698.743.823q.84.929 1.256 1.13.439.2.848.087.422-.125 1.28-.9l.623-.564 1.892 2.093-6.937 6.27-1.891-2.093.705-.638q.717-.648.887-1.122.18-.462.032-.862t-1.062-1.411l-.67-.74-3.761 3.4q-.6.542-.676.717-.076.176.002.404.089.24.6.805l1.242 1.375q1.393 1.54 2.784 2.205 1.403.654 3.123.595 1.742-.058 3.498-.833l1.204 2.82-8.035 3.354L357.81 99.42l2.27-2.05.371.41q.744.824 1.117 1 .372.175.772.027.23-.1 1.053-.844l8.934-8.077q.73-.659.857-.966.138-.296.053-.603-.074-.318-.637-.941l-.659-.73zM393.174 106.283l5.148 7.364-6.858 12.704 6.468-4.522q.831-.581.975-.817.221-.348.184-.65-.025-.312-.47-.949l-.617-.883 2.507-1.752 5.23 7.48-2.507 1.753-.581-.83q-.436-.624-.77-.797-.324-.16-.643-.092-.32.07-1.138.641l-14.014 9.798-2.606-3.728 8.648-16.062-9.338 6.528q-.806.563-.963.809-.148.258-.105.595.051.35.487.974l.608.87-2.506 1.753-5.258-7.52 2.507-1.753.545.78q.454.65.721.81.29.165.662.117.373-.047.918-.429l10.391-7.264q.597-.417.78-.738.194-.33.157-.632-.025-.312-.388-.831l-.68-.974zM417.37 145.318l-5.647 5.17-2.129-2.205q1.64-2.546 1.837-4.77.21-2.232-.783-4.091-.642-1.203-1.504-1.64-.855-.424-1.456-.104-.686.366-.937 1.309-.259.928.16 2.824l.91 4.329q.77 3.595-.003 5.714-.794 2.113-2.78 3.173-2.53 1.35-5.352.27-3.13-1.22-4.914-4.562-.829-1.552-1.131-3.06-.289-1.517-.106-3.43l-1.726.132-1.112-2.083 6.824-5.422 2.025 2.279q-1.814 2.154-2.329 4.925-.493 2.779.753 5.113.56 1.049 1.191 1.592.64.557 1.301.653.662.096 1.165-.173.84-.448 1.007-1.58.161-1.145-.349-3.514l-.788-3.765q-.186-.852-.292-2.43-.084-1.572.18-2.593.27-1.007 1.01-1.977.754-.977 1.844-1.56 1.552-.828 3.307-.669 1.777.165 3.506 1.452 1.736 1.3 2.856 3.398 1.35 2.53 1.126 5.273l1.27.023zM421.745 154.362l6.707 17.184-5.595 4.888-2.002-2.297q1.33-1.302 1.947-2.597.622-1.281.5-2.51-.101-1.218-.672-2.68l-1.227-3.145-5.137 2.005.403 1.034q.455 1.166.773 1.501.339.345.762.383.438.034 1.516-.387l.782-.305 1.026 2.627-8.71 3.4-1.026-2.628.886-.346q.9-.351 1.227-.734.333-.368.337-.795.004-.426-.492-1.696l-.363-.93-4.724 1.844q-.753.294-.887.43-.133.138-.141.38-.002.255.274.964l.674 1.727q.755 1.934 1.82 3.05 1.08 1.11 2.708 1.664 1.65.565 3.566.463l.124 3.065-8.702.282-6.948-17.804 2.85-1.112.201.517q.403 1.033.69 1.33.285.297.712.3.25-.012 1.283-.415l11.22-4.38q.916-.356 1.144-.599.235-.227.264-.545.044-.323-.262-1.106l-.357-.915z" style="font-size:32.4556px;letter-spacing:2.64583px;word-spacing:1.32292px;fill:#fff;fill-opacity:1;stroke:#041e42;stroke-width:.875521;stroke-miterlimit:4;stroke-dasharray:none;stroke-opacity:1" transform="translate(-936.18 495.753)scale(.37775)"/></g><g aria-label="DEPARTMENT OF NATIONAL DEFENSE" style="font-style:normal;font-variant:normal;font-weight:600;font-stretch:normal;font-size:32.4556px;line-height:1.25;font-family:&quot;Bookman Old Style&quot;;-inkscape-font-specification:&quot;Bookman Old Style Semi-Bold&quot;;font-variant-ligatures:normal;font-variant-caps:normal;font-variant-numeric:normal;font-feature-settings:normal;text-align:start;word-spacing:1.98438px;writing-mode:lr-tb;text-anchor:start;vector-effect:none;fill:#fff;fill-opacity:1;fill-rule:nonzero;stroke:#041e42;stroke-width:.875521;stroke-linecap:square;stroke-linejoin:bevel;stroke-miterlimit:4;stroke-dasharray:none;stroke-dashoffset:0;stroke-opacity:1"><path d="m-6.39 257.12 1.062 11.536q.362 3.93-.67 6.364-1.034 2.435-3.353 4.033-2.319 1.614-5.743 1.93-2.383.219-4.326-.318-1.942-.522-3.585-1.77-1.627-1.251-2.531-2.776-.679-1.147-1.245-3.322-.565-2.16-.687-3.486l-.936-10.163 3.045-.28.07.757q.089.963.274 1.248t.582.44q.311.098 1.321.006l12.025-1.108q1.01-.093 1.28-.261.29-.154.402-.483.13-.314.039-1.308l-.07-.758zm-2.794 8.374-13.682 1.26q-.694.064-.845.158-.225.148-.298.393-.055.26.03 1.191.239 2.588 1.162 3.967.94 1.394 2.774 2.132 1.85.737 4.28.513 2.4-.221 4.088-1.236 1.706-1 2.317-2.314t.398-3.634zM-3.95 281.879l3.711 18.069-6.34 3.874-1.585-2.603q1.53-1.058 2.357-2.23.83-1.158.917-2.39.105-1.218-.21-2.755l-.679-3.307-5.402 1.11.223 1.086q.252 1.227.509 1.61.275.397.686.507.426.107 1.56-.126l.822-.17.568 2.764-9.16 1.88-.567-2.762.932-.192q.947-.194 1.333-.516.39-.307.466-.727t-.199-1.755l-.2-.978-4.968 1.02q-.792.163-.946.275-.155.113-.204.35-.045.252.108.997l.373 1.816q.417 2.034 1.279 3.313.876 1.276 2.388 2.098 1.53.834 3.437 1.058l-.395 3.041-8.625-1.19-3.844-18.72 2.996-.616.112.543q.223 1.087.455 1.428t.652.416q.248.03 1.335-.194l11.798-2.422q.962-.198 1.229-.398.269-.185.351-.493.098-.311-.07-1.134l-.198-.962ZM.875 304.533l3.518 11.137q.669 2.115.67 3.644.02 1.54-.54 2.813-.557 1.29-1.594 2.216-1.022.92-2.367 1.346-2.705.854-5.192-.653-2.483-1.493-3.638-5.15l-1.136-3.596-3.945 1.246q-.74.234-.903.402-.244.226-.294.541-.045.33.165.995l.339 1.073-2.917.921-3.246-10.275 2.916-.922.224.71q.296.938.528 1.197.231.26.562.304.345.04 1.267-.25l11.59-3.662q.967-.306 1.231-.522.28-.221.33-.536.07-.305-.165-1.045l-.32-1.013zm-1.001 8.825-5.984 1.89.568 1.8q.52 1.646 1.096 2.312.591.66 1.434.91.859.244 1.826-.062 1.45-.458 1.943-1.844.372-1.031-.143-2.663zM10.47 331.947l1.976 4.55-13.01 12.889q-1.036 1.037-1.162 1.54-.12.52.342 1.545l-2.805 1.219-4.167-9.594 2.806-1.218.267.575q.347.8.69 1.03.356.226.662.093.261-.113.955-.743l1.588-1.398-2.683-6.178-2.378.135q-.755.051-.959.14-.232.1-.352.343-.113.256-.036.672.049.272.535 1.391l-2.805 1.219-3.41-7.85 2.806-1.218q.328.756.61 1.048.283.292.64.397.362.118 1.194.085zm-11.188 4.115 1.761 4.056 4.724-4.401zM16.44 345.558l6.787 11.818q.655 1.14 1.223 2.606.575 1.478.498 2.967-.07 1.501-.794 2.722-.725 1.22-2.071 1.994-2.185 1.255-4.446.47-2.238-.78-3.874-2.673l-2.325 6.58-.111.283q-.246.653-.298 1.104-.039.442.047.813.085.372.409.935l.473.825-2.652 1.523-3.528-6.143 4.723-10.9-.916-1.594-3.82 2.194q-.99.569-1.201.836-.198.26-.201.573.018.318.436 1.047l.506.88-2.653 1.522-5.383-9.372 2.653-1.523.489.852q.387.673.682.87.317.201.684.173.205-.026 1.07-.524l10.788-6.195q.632-.364.83-.623.22-.255.168-.535-.038-.417-.283-.843l-.235-.377-.41-.715zm.91 8.87-4.961 2.85 1.633 2.845q.963 1.676 1.74 2.327.797.657 1.61.737.823.095 1.647-.379.756-.434 1.063-1.14.329-.7.171-1.579-.149-.864-1.088-2.5zM30.522 367.883l1.234 1.689-.47.618 7.36 10.07.76-.223 1.243 1.702-4.638 6.786-2.571-1.772q.98-1.934 1.202-2.625.438-1.36.33-2.637-.077-.964-.554-1.617-.224-.307-.462-.31-.225-.012-.75.372l-10.26 7.5q-.909.663-1.092.895-.184.233-.212.49-.016.246.13.552.157.297 1.008 1.461l-2.47 1.805-6.358-8.7 2.47-1.805.383.525q.636.87.916 1.038.292.159.655.09.375-.077 1.245-.713l10.491-7.668q.448-.327.488-.514.04-.186-.203-.52-.486-.664-1.583-1.119-1.098-.454-2.474-.43-.545.006-2.803.381l-.88-2.95zM41.991 385.036l6.827 7.307-7.214 11.987 12.547-6.278 6.945 7.435-2.235 2.088-.746-.8q-.606-.648-1.122-.643-.493.006-1.246.709l-9.172 8.568q-.602.562-.688.773-.134.32-.053.592.099.385.488.801l.855.915-2.235 2.088-7.26-7.77 2.236-2.088.562.602q.617.66.937.794.321.135.627.044.328-.09.907-.63l9.936-9.283-17.065 8.569-2.088-2.235 9.4-15.916-9.82 9.174q-.337.314-.414.603-.066.3.035.618.124.318.59.816l.724.776-2.235 2.088-6.177-6.613 2.235-2.088.605.649q.574.613.884.736.332.124.66.011.352-.11.99-.706l9.055-8.46q.625-.584.735-.838.157-.342.078-.659t-.5-.768l-.823-.88zM62.553 406.571l14.132 11.857-2.562 6.973-2.86-1.054q.542-1.78.462-3.213-.069-1.423-.765-2.441-.674-1.021-1.876-2.03l-2.586-2.17-3.545 4.226.85.713q.959.804 1.399.946.462.14.852-.03.4-.181 1.144-1.067l.54-.644 2.16 1.813-6.009 7.163-2.16-1.813.61-.729q.622-.74.725-1.233.115-.482-.087-.858-.201-.376-1.245-1.252l-.765-.642-3.26 3.885q-.52.619-.57.803-.052.185.057.4.12.226.704.715l1.42 1.192q1.59 1.334 3.06 1.802 1.48.455 3.175.16 1.717-.296 3.35-1.305l1.58 2.629-7.498 4.424-14.641-12.284 1.966-2.343.425.356q.85.713 1.243.836t.769-.078q.214-.131.927-.981l7.741-9.227q.631-.753.716-1.075.096-.312-.03-.605-.117-.304-.76-.844l-.753-.632zM80.24 421.287l7.465 5-1.794 14.325 4.392-6.557q.565-.842.614-1.115.08-.404-.065-.672-.135-.282-.78-.714l-.896-.6 1.702-2.54 7.584 5.08-1.702 2.54-.843-.564q-.632-.424-1.005-.464-.36-.031-.633.148-.273.18-.829 1.01l-9.516 14.206-3.779-2.531 2.246-18.104-6.34 9.467q-.548.816-.606 1.102-.044.294.118.593.175.308.807.732l.882.59-1.702 2.542-7.623-5.107 1.702-2.541.79.53q.658.44.966.494.33.049.66-.13.33-.18.7-.733l7.055-10.534q.406-.605.46-.97.062-.378-.083-.646-.135-.282-.662-.635l-.987-.661ZM101.685 434.388l1.852.972-.15.763 11.044 5.795.585-.534 1.866.979-1.173 8.136-3.089-.458q.028-2.168-.078-2.886-.206-1.415-.865-2.512-.494-.832-1.21-1.208-.337-.177-.551-.074-.208.088-.51.663l-5.905 11.254q-.523.996-.586 1.286t.025.532q.095.229.36.44.273.196 1.55.866l-1.421 2.709-9.543-5.008 1.422-2.708.575.302q.954.5 1.28.528.333.014.628-.207.302-.235.803-1.19l6.038-11.506q.258-.491.212-.677-.046-.185-.411-.376-.73-.383-1.915-.307t-2.41.704q-.487.246-2.349 1.577l-2.089-2.26zM143.689 453.137q5.014 1.595 7.14 5.63 2.14 4.04.617 8.828-1.023 3.216-3.235 5.257t-5.151 2.602q-2.92.551-6.454-.573-4.666-1.484-6.825-4.998-2.61-4.239-.962-9.419 1.533-4.817 5.649-6.884 4.131-2.062 9.22-.443zm-1.006 3.372q-2.401-.764-4.393.582-2.502 1.698-3.64 5.277t-.14 6.192q.867 2.238 3.223 2.988 2.371.754 4.358-.577 2.353-1.596 3.487-5.16.797-2.507.615-4.444-.167-1.932-1.121-3.167-.955-1.235-2.39-1.691zM156.73 457.449l17.918 3.583 1.072 7.406-3.008.417q-.383-1.644-.852-2.53-.466-.901-1.218-1.585t-1.713-1.054q-.646-.242-2.34-.58l-2.673-.535-1.15 5.75 1.368.273q.777.155 1.258.009.498-.143.759-.479.276-.332.45-1.203l.23-1.15 2.797.56-1.939 9.697-2.797-.56.28-1.398q.121-.606.068-.908-.065-.4-.267-.684-.202-.282-.51-.44-.292-.156-1.131-.324l-1.197-.24-.91 4.554q-.165.823-.084 1.147.084.307.367.51.282.201 1.168.378l.886.178-.6 2.999-10.567-2.113.6-3 .7.14q1.165.233 1.581.01.435-.237.619-1.154l2.492-12.463q.171-.854.087-1.162t-.382-.513-1.262-.398l-.7-.14zM191.548 463.13l8.981.255 6.113 13.079.224-7.889q.029-1.014-.075-1.27-.147-.385-.413-.535-.264-.166-1.04-.188l-1.078-.031.087-3.057 9.125.259-.087 3.057-1.014-.029q-.76-.021-1.098.144-.322.165-.457.462t-.164 1.296l-.485 17.092-4.547-.13-7.743-16.517-.323 11.39q-.028.982.075 1.255.12.272.416.44.312.167 1.072.188l1.062.03-.087 3.058-9.172-.26.087-3.058.95.027q.792.023 1.08-.096.306-.134.49-.462.183-.328.202-.993l.36-12.673q.02-.728-.128-1.066-.149-.353-.414-.503-.265-.166-.898-.184l-1.188-.034zM223.183 463.043l4.945-.389 7.957 16.495q.644 1.317 1.08 1.6.451.283 1.571.179l.24 3.049-10.427.82-.24-3.05.631-.065q.869-.068 1.2-.317.328-.264.302-.596-.022-.284-.392-1.145l-.806-1.956-6.714.528-.646 2.292q-.197.731-.18.952.02.253.21.445.206.19.624.253.273.042 1.49-.054l.24 3.05-8.532.67-.24-3.05q.822-.064 1.19-.236t.583-.475q.23-.304.47-1.102zm.253 11.918 4.408-.346-2.626-5.898zM239.565 460.725l2.056-.382.354.692 12.263-2.277.129-.781 2.072-.385 4.11 7.119-2.71 1.55q-1.319-1.72-1.847-2.22-1.037-.983-2.233-1.438-.903-.348-1.698-.2-.374.069-.48.282-.107.197.011.836l2.32 12.496q.206 1.106.336 1.372t.348.403q.216.121.555.123.336-.014 1.754-.278l.558 3.008-10.595 1.967-.558-3.007.639-.12q1.059-.196 1.332-.375.27-.196.365-.552.092-.371-.105-1.431l-2.372-12.777q-.101-.545-.252-.662-.15-.117-.555-.042-.81.15-1.695.943-.884.793-1.458 2.044-.23.494-.87 2.692l-3.04-.483zM260.504 457.287l10.393-2.85.809 2.949-.948.26q-.825.226-1.058.455-.222.208-.272.567-.038.34.205 1.226l3.236 11.798q.264.963.447 1.209.182.245.475.296.372.096 1.013-.08l1.131-.31.81 2.95-10.393 2.85-.81-2.95.842-.23q.901-.248 1.143-.446.237-.213.284-.521.058-.328-.173-1.169l-3.248-11.844q-.273-.994-.494-1.261-.21-.288-.562-.372-.248-.064-1.073.163l-.948.26zM284.145 449.482q4.926-1.849 9.093.007 4.18 1.85 5.946 6.554 1.186 3.16.71 6.131t-2.438 5.231q-1.953 2.24-5.425 3.543-4.584 1.72-8.454.295-4.672-1.717-6.582-6.806-1.776-4.733.18-8.903 1.97-4.176 6.97-6.052zm1.296 3.272q-2.36.885-3.091 3.174-.916 2.882.404 6.399t3.72 4.951q2.066 1.222 4.38.354 2.33-.875 3.068-3.149.862-2.71-.452-6.211-.925-2.463-2.266-3.873-1.326-1.415-2.84-1.794-1.514-.38-2.923.149zM296.97 444.895l7.997-4.098 11.652 8.523-3.6-7.023q-.463-.903-.677-1.078-.315-.266-.62-.27-.311-.018-1.002.336l-.96.491-1.394-2.721 8.123-4.164 1.395 2.722-.903.462q-.677.347-.893.654-.203.3-.178.626.024.326.48 1.214l7.8 15.217-4.048 2.075-14.737-10.754 5.198 10.14q.448.875.67 1.064.235.182.576.185.354-.004 1.03-.35l.946-.485 1.395 2.722-8.166 4.186-1.395-2.722.846-.434q.705-.361.902-.604.202-.265.206-.64.003-.376-.3-.968l-5.783-11.282q-.333-.65-.626-.873-.3-.238-.605-.242-.312-.018-.876.27l-1.057.543zM324.616 429.602l4.143-2.728 14.932 10.603q1.2.842 1.718.88.532.03 1.463-.603l1.682 2.555-8.735 5.752-1.683-2.555.521-.361q.728-.48.897-.857.16-.39-.022-.668-.157-.238-.897-.814l-1.65-1.323-5.624 3.704.54 2.32q.18.734.303.92.14.211.398.287.272.068.669-.08.26-.094 1.279-.766l1.682 2.555-7.147 4.706-1.683-2.554q.689-.453.928-.782.24-.328.28-.697.056-.378-.12-1.192zm5.976 10.315 3.693-2.432-5.147-3.897zM337.211 421.085l8.379-6.827 1.932 2.37-.737.601q-.615.5-.724.692-.195.364-.12.732.065.355.516.908l7.978 9.792q.48.59.64.684.171.086.413.031.233-.066.724-.466 1.646-1.342 2.29-2.583.658-1.25.686-2.847.03-1.62-.724-3.724l2.89-1.068 2.906 8.182-13.084 10.66-1.932-2.37.823-.67q.504-.411.652-.757.147-.345.078-.656-.067-.334-.528-.899l-7.908-9.705q-.5-.615-.844-.785-.33-.18-.652-.123-.309.048-.813.458l-.909.74zM362.821 398.758l7.631-8.716q2.6-2.97 5.076-3.897 2.476-.928 5.233-.348 2.766.57 5.354 2.834 1.8 1.577 2.75 3.356.959 1.766 1.185 3.818.214 2.04-.268 3.746-.364 1.282-1.551 3.191-1.177 1.898-2.054 2.9l-6.723 7.678-2.301-2.015.501-.572q.637-.727.716-1.058.08-.331-.082-.725-.143-.293-.906-.962l-9.086-7.954q-.763-.668-1.071-.749-.31-.103-.626.042-.318.122-.976.873l-.5.573zm7.995-3.743 10.337 9.05q.525.46.696.505.263.061.491-.055.227-.139.843-.842 1.712-1.956 2.076-3.575.362-1.64-.366-3.48-.74-1.848-2.577-3.456-1.812-1.586-3.711-2.112-1.9-.547-3.274-.086-1.373.462-2.908 2.215zM379.087 379.93l10.547-15.135 7.174 1.929-.795 2.942q-1.82-.38-3.24-.172-1.411.195-2.364.98-.957.762-1.853 2.05l-1.93 2.77 4.524 3.152.635-.91q.715-1.027.817-1.478.098-.473-.106-.846-.216-.383-1.165-1.044l-.69-.48 1.613-2.315 7.672 5.346-1.613 2.314-.78-.543q-.793-.553-1.293-.612-.491-.071-.848.163-.356.235-1.136 1.353l-.57.819 4.16 2.9q.663.461.852.496t.393-.093q.214-.14.649-.765l1.06-1.521q1.187-1.703 1.521-3.209.321-1.514-.124-3.176-.448-1.684-1.6-3.22l2.478-1.809 5.077 7.073-10.927 15.68-2.51-1.749.318-.455q.634-.91.721-1.313.088-.402-.147-.759-.15-.2-1.06-.835l-9.881-6.886q-.806-.562-1.135-.617-.32-.068-.6.085-.292.143-.773.832l-.561.806zM392.182 360.876l8.834-15.995 7.383 1.217-.512 2.994q-1.683-.133-2.67.047-1 .172-1.879.682t-1.522 1.314q-.426.542-1.261 2.055l-1.318 2.386 5.133 2.834.674-1.22q.383-.694.39-1.198.014-.517-.227-.867-.234-.364-1.01-.793l-1.027-.567 1.379-2.497 8.656 4.78-1.379 2.497-1.248-.69q-.541-.298-.844-.339-.402-.059-.733.048t-.575.353q-.236.231-.65.98l-.59 1.068 4.065 2.245q.735.406 1.068.427.318.013.596-.196.278-.208.715-.999l.437-.79 2.677 1.478-5.21 9.433-2.677-1.478.345-.625q.575-1.04.487-1.505-.093-.486-.912-.938l-11.126-6.144q-.763-.421-1.081-.434-.319-.013-.605.209t-.76 1.082l-.345.625zM402.614 341.827l7.184-16.99 7.418.401-.168 3.043q-1.86.005-3.206.503-1.34.483-2.11 1.448-.777.944-1.388 2.39l-1.315 3.108 5.08 2.148.432-1.022q.487-1.153.493-1.615-.002-.482-.278-.806-.291-.33-1.357-.78l-.773-.327 1.098-2.598 8.612 3.642-1.099 2.598-.875-.37q-.89-.377-1.392-.331-.495.032-.795.335t-.831 1.558l-.39.92 4.672 1.975q.744.315.935.31t.366-.173q.18-.182.476-.882l.722-1.708q.809-1.912.824-3.454.001-1.549-.778-3.083-.788-1.554-2.232-2.819l2.049-2.282 6.431 5.868-7.443 17.603-2.817-1.191.216-.51q.432-1.023.434-1.435t-.301-.712q-.188-.166-1.21-.598l-11.093-4.69q-.905-.383-1.238-.369-.327 0-.569.207-.257.2-.584.975l-.383.904zM411.477 320.624l2.578-8.608 14.217-2.509-7.56-2.264q-.972-.29-1.247-.257-.41.043-.623.26-.23.212-.452.956l-.31 1.033-2.93-.878 2.619-8.744 2.93.877-.29.972q-.22.728-.148 1.097.077.354.329.562.252.207 1.208.494l16.38 4.905-1.304 4.357-17.961 3.19 10.915 3.27q.942.281 1.231.252.295-.044.533-.287.243-.258.461-.987l.305-1.017 2.93.877-2.632 8.79-2.93-.877.272-.91q.228-.76.188-1.07-.05-.329-.32-.591-.268-.263-.906-.454l-12.145-3.637q-.698-.209-1.062-.152-.38.052-.594.269-.229.212-.41.82l-.342 1.138zM421.18 281.5l7.64-.497.281 3.052q-2.873.96-4.418 2.571-1.56 1.61-1.95 3.681-.252 1.34.147 2.22.401.866 1.07.992.764.144 1.55-.434.783-.562 1.643-2.303l2-3.946q1.65-3.285 3.578-4.454 1.942-1.151 4.154-.735 2.819.53 4.344 3.139 1.677 2.912.977 6.634-.325 1.729-1.033 3.095-.724 1.364-2.064 2.74l1.429.979-.437 2.32-8.715-.043-.153-3.044q2.763-.545 4.899-2.384 2.123-1.858 2.612-4.46.22-1.167.067-1.986-.15-.835-.605-1.324-.457-.488-1.017-.594-.935-.176-1.774.602-.843.793-1.928 2.959l-1.741 3.43q-.39.781-1.294 2.078-.918 1.279-1.762 1.91-.842.616-2.026.91-1.2.29-2.414.061-1.729-.325-2.998-1.547-1.283-1.241-1.826-3.327-.54-2.1-.1-4.437.53-2.819 2.421-4.818l-.976-.812zM421.946 277.078l1.524-18.384 7.173-1.934.79 2.944q-1.767.585-2.89 1.478-1.122.877-1.552 2.034-.445 1.14-.574 2.703l-.279 3.364 5.496.456.092-1.106q.103-1.247-.035-1.688-.153-.458-.516-.68-.38-.221-1.532-.317l-.837-.07.232-2.81 9.319.772-.233 2.81-.948-.078q-.963-.08-1.425.12-.46.185-.651.567t-.304 1.74l-.082.995 5.054.419q.805.067.986.002t.293-.278q.114-.23.177-.987l.153-1.848q.172-2.069-.295-3.539-.482-1.47-1.701-2.685-1.234-1.231-3-1.982l1.234-2.808 7.941 3.568-1.578 19.047-3.048-.252.046-.553q.091-1.106-.035-1.498-.127-.392-.509-.583-.23-.098-1.335-.19l-12.003-.995q-.98-.08-1.291.037-.311.101-.477.374-.181.27-.25 1.108l-.082.979z" style="letter-spacing:1.98438px;word-spacing:1.98438px;fill:#fff;fill-opacity:1;stroke:#041e42;stroke-width:.875521;stroke-miterlimit:4;stroke-dasharray:none;stroke-opacity:1" transform="translate(-936.18 495.753)scale(.37775)"/></g><circle cx="-940.949" cy="577.527" r="3.922" style="vector-effect:none;fill:#fff;fill-opacity:1;fill-rule:nonzero;stroke:none;stroke-width:.152061;stroke-linecap:square;stroke-linejoin:bevel;stroke-miterlimit:4;stroke-dasharray:none;stroke-dashoffset:0;stroke-opacity:1"/><circle cx="-773.782" cy="577.527" r="3.922" style="vector-effect:none;fill:#fff;fill-opacity:1;fill-rule:nonzero;stroke:none;stroke-width:.152061;stroke-linecap:square;stroke-linejoin:bevel;stroke-miterlimit:4;stroke-dasharray:none;stroke-dashoffset:0;stroke-opacity:1"/><g aria-label="PHILIPPINES" style="font-style:normal;font-variant:normal;font-weight:600;font-stretch:normal;font-size:8.52717px;line-height:1.25;font-family:&quot;Bookman Old Style&quot;;-inkscape-font-specification:&quot;Bookman Old Style Semi-Bold&quot;;font-variant-ligatures:normal;font-variant-caps:normal;font-variant-numeric:normal;font-feature-settings:normal;text-align:start;letter-spacing:.69515px;writing-mode:lr-tb;text-anchor:start;vector-effect:none;fill:#041e42;fill-opacity:1;fill-rule:nonzero;stroke:#f28920;stroke-width:.198437;stroke-linecap:square;stroke-linejoin:bevel;stroke-miterlimit:4;stroke-dasharray:none;stroke-dashoffset:0;stroke-opacity:1"><path d="M-889.537 632.96h3.068q.583 0 .966.12.388.117.662.358.28.242.43.575.149.329.149.7 0 .745-.575 1.248-.57.504-1.578.504h-.99v1.087q0 .204.029.258.037.08.112.117.08.037.262.037h.296v.804h-2.831v-.804h.195q.259 0 .342-.037.083-.038.12-.117.038-.083.038-.337v-3.194q0-.266-.033-.35-.034-.087-.108-.124-.071-.042-.275-.042h-.28zm2.131.949v1.649h.496q.454 0 .666-.092.213-.096.342-.287.129-.196.129-.463 0-.4-.308-.632-.23-.175-.68-.175zM-883.152 632.96h2.836v.803h-.263q-.216 0-.295.046-.08.041-.113.125-.033.079-.033.35v1.011h2.115v-1.087q0-.2-.025-.27-.033-.1-.112-.138-.08-.037-.35-.037h-.22v-.804h2.843v.804h-.237q-.242 0-.32.042-.08.037-.113.116-.03.075-.03.362v3.148q0 .292.038.379.042.083.12.12.084.034.376.034h.166v.804h-2.844v-.804h.188q.262 0 .354-.042.095-.041.129-.12.037-.08.037-.37v-1.23h-2.115v1.23q0 .29.025.361.042.104.13.138.087.033.353.033h.196v.804h-2.836v-.804h.192q.241 0 .337-.042.096-.041.13-.116.037-.075.037-.33v-3.155q0-.296-.038-.383-.033-.092-.108-.133t-.292-.042h-.258zM-875.376 632.96h2.832v.803h-.258q-.225 0-.3.042-.071.037-.108.124-.034.084-.034.325v3.215q0 .262.03.337.028.075.1.108.087.05.262.05h.308v.804h-2.832v-.804h.23q.245 0 .32-.033.075-.038.108-.113.038-.079.038-.308v-3.227q0-.27-.038-.353-.033-.088-.116-.134-.059-.033-.283-.033h-.259zM-871.118 632.96h2.84v.803h-.25q-.208 0-.262.02-.1.042-.146.13-.046.083-.046.27v3.319q0 .2.017.246.02.045.08.074.057.025.224.025.558 0 .895-.145.342-.146.612-.467.275-.324.47-.878l.767.262-.766 2.149h-4.435v-.804h.28q.17 0 .258-.046.087-.046.124-.12.042-.08.042-.271v-3.29q0-.208-.042-.3-.037-.09-.112-.132-.07-.042-.241-.042h-.309zM-864.911 632.96h2.831v.803h-.258q-.225 0-.3.042-.07.037-.108.124-.033.084-.033.325v3.215q0 .262.029.337t.1.108q.087.05.262.05h.308v.804h-2.831v-.804h.229q.246 0 .32-.033.075-.038.109-.113.037-.079.037-.308v-3.227q0-.27-.037-.353-.034-.088-.117-.134-.058-.033-.283-.033h-.258zM-860.653 632.96h3.068q.583 0 .966.12.388.117.662.358.28.242.43.575.15.329.15.7 0 .745-.575 1.248-.57.504-1.578.504h-.991v1.087q0 .204.029.258.037.08.112.117.08.037.262.037h.296v.804h-2.831v-.804h.195q.259 0 .342-.037.083-.038.12-.117.038-.083.038-.337v-3.194q0-.266-.033-.35-.034-.087-.108-.124-.071-.042-.275-.042h-.28zm2.132.949v1.649h.495q.454 0 .666-.092.213-.096.342-.287.129-.196.129-.463 0-.4-.308-.632-.23-.175-.68-.175zM-854.23 632.96h3.068q.583 0 .966.12.388.117.662.358.28.242.43.575.15.329.15.7 0 .745-.575 1.248-.57.504-1.578.504h-.991v1.087q0 .204.029.258.037.08.112.117.08.037.263.037h.295v.804h-2.831v-.804h.196q.258 0 .34-.037.084-.038.122-.117.037-.083.037-.337v-3.194q0-.266-.033-.35-.033-.087-.108-.124-.071-.042-.275-.042h-.28zm2.132.949v1.649h.495q.454 0 .666-.092.213-.096.342-.287.129-.196.129-.463 0-.4-.308-.632-.23-.175-.679-.175zM-847.857 632.96h2.831v.803h-.258q-.225 0-.3.042-.07.037-.108.124-.033.084-.033.325v3.215q0 .262.029.337t.1.108q.087.05.262.05h.308v.804h-2.831v-.804h.229q.245 0 .32-.033.075-.038.109-.113.037-.079.037-.308v-3.227q0-.27-.037-.353-.034-.088-.117-.134-.058-.033-.283-.033h-.258zM-843.616 632.96h2.36l1.704 3.389v-2.074q0-.266-.03-.333-.04-.1-.112-.137-.07-.042-.274-.042h-.284v-.804h2.399v.804h-.267q-.2 0-.287.046-.083.046-.117.125-.033.079-.033.341v4.493h-1.195l-2.157-4.28v2.993q0 .258.03.33.033.07.112.112.083.041.283.041h.279v.804h-2.41v-.804h.249q.208 0 .283-.033.08-.038.125-.125.046-.087.046-.262v-3.331q0-.192-.042-.28-.041-.09-.112-.128-.071-.042-.238-.042h-.312zM-836.51 632.96h4.846l.662 1.836-.753.27q-.192-.45-.45-.724-.254-.275-.566-.363-.308-.091-.72-.091h-.887v1.449h.291q.33 0 .442-.046.116-.05.166-.15.05-.104.05-.408v-.22h.741v2.456h-.74v-.25q0-.254-.063-.37-.059-.117-.163-.159t-.462-.041h-.262v1.332q0 .213.02.258.021.046.08.071.062.025.262.025h.487q.546 0 .92-.154.375-.158.666-.504.296-.35.454-.828l.762.262-.762 2.157h-5.021v-.804h.146q.291 0 .391-.041.1-.042.142-.146.02-.063.02-.354v-3.164q0-.259-.037-.338-.033-.079-.108-.116-.075-.042-.296-.042h-.258zM-825.195 632.96l.5 1.948-.775.22q-.387-.695-.878-1.015-.491-.325-1.045-.325-.358 0-.566.146-.204.145-.204.324 0 .204.187.38.183.174.674.312l1.116.324q.929.267 1.324.708.392.446.392 1.037 0 .754-.6 1.274-.67.575-1.665.575-.462 0-.85-.117-.387-.12-.807-.4l-.184.417h-.62l-.412-2.253.778-.187q.275.687.854 1.149.583.458 1.278.458.312 0 .516-.08.209-.078.313-.22.104-.141.104-.291 0-.25-.242-.43-.245-.178-.857-.353l-.97-.283q-.221-.063-.6-.233-.375-.175-.579-.363-.2-.187-.333-.478-.133-.296-.133-.62 0-.463.254-.85.258-.392.77-.633.516-.242 1.141-.242.754 0 1.361.392l.163-.292z" style="font-style:normal;font-variant:normal;font-weight:600;font-stretch:normal;font-family:&quot;Bookman Old Style&quot;;-inkscape-font-specification:&quot;Bookman Old Style Semi-Bold&quot;;letter-spacing:.79375px;fill:#041e42;fill-opacity:1;stroke:#f28920;stroke-width:.198437;stroke-miterlimit:4;stroke-dasharray:none;stroke-opacity:1"/></g></g></svg>